%TF.GenerationSoftware,KiCad,Pcbnew,7.0.5-0*%
%TF.CreationDate,2023-07-19T18:28:50-07:00*%
%TF.ProjectId,tasty-totem-board,74617374-792d-4746-9f74-656d2d626f61,0.1*%
%TF.SameCoordinates,Original*%
%TF.FileFunction,Copper,L2,Bot*%
%TF.FilePolarity,Positive*%
%FSLAX46Y46*%
G04 Gerber Fmt 4.6, Leading zero omitted, Abs format (unit mm)*
G04 Created by KiCad (PCBNEW 7.0.5-0) date 2023-07-19 18:28:50*
%MOMM*%
%LPD*%
G01*
G04 APERTURE LIST*
%TA.AperFunction,ComponentPad*%
%ADD10R,1.700000X1.700000*%
%TD*%
%TA.AperFunction,ComponentPad*%
%ADD11O,1.700000X1.700000*%
%TD*%
%TA.AperFunction,ComponentPad*%
%ADD12O,1.600000X1.600000*%
%TD*%
%TA.AperFunction,ComponentPad*%
%ADD13R,1.600000X1.600000*%
%TD*%
%TA.AperFunction,ComponentPad*%
%ADD14C,2.000000*%
%TD*%
%TA.AperFunction,ComponentPad*%
%ADD15R,2.000000X2.000000*%
%TD*%
%TA.AperFunction,Conductor*%
%ADD16C,0.450000*%
%TD*%
G04 APERTURE END LIST*
D10*
%TO.P,J8,1,Pin_1*%
%TO.N,+5V*%
X184150000Y-76200000D03*
D11*
%TO.P,J8,2,Pin_2*%
%TO.N,/SIGA*%
X184150000Y-73660000D03*
%TO.P,J8,3,Pin_3*%
%TO.N,GND*%
X184150000Y-71120000D03*
%TD*%
D10*
%TO.P,J7,1,Pin_1*%
%TO.N,+5V*%
X184150000Y-94740000D03*
D11*
%TO.P,J7,2,Pin_2*%
%TO.N,/LIGHT SENSOR*%
X184150000Y-92200000D03*
%TO.P,J7,3,Pin_3*%
%TO.N,GND*%
X184150000Y-89660000D03*
%TD*%
D10*
%TO.P,J6,1,Pin_1*%
%TO.N,+5V*%
X184150000Y-104440000D03*
D11*
%TO.P,J6,2,Pin_2*%
%TO.N,/AUX Strip*%
X184150000Y-101900000D03*
%TO.P,J6,3,Pin_3*%
%TO.N,GND*%
X184150000Y-99360000D03*
%TD*%
D10*
%TO.P,J5,1,Pin_1*%
%TO.N,/ACTIVATION SWITCH*%
X184150000Y-85090000D03*
D11*
%TO.P,J5,2,Pin_2*%
%TO.N,GND*%
X184150000Y-82550000D03*
%TD*%
D12*
%TO.P,U2,8,GND*%
%TO.N,GND*%
X161300000Y-82560000D03*
%TO.P,U2,7,IB*%
%TO.N,/MOTOR PWM 2*%
X163840000Y-82560000D03*
%TO.P,U2,6,IA*%
%TO.N,/MOTOR PWM 1*%
X166380000Y-82560000D03*
%TO.P,U2,5,GND*%
%TO.N,GND*%
X168920000Y-82560000D03*
%TO.P,U2,4,OB*%
%TO.N,/MOTOR POWER INPUT M2*%
X168920000Y-74940000D03*
%TO.P,U2,3,VCC*%
%TO.N,+5V*%
X166380000Y-74940000D03*
%TO.P,U2,2,VCC*%
X163840000Y-74940000D03*
D13*
%TO.P,U2,1,OA*%
%TO.N,/MOTOR POWER INPUT M1 *%
X161300000Y-74940000D03*
%TD*%
D10*
%TO.P,J4,1,Pin_1*%
%TO.N,+5V*%
X144100000Y-81295000D03*
D11*
%TO.P,J4,2,Pin_2*%
%TO.N,/LED Strobe*%
X144100000Y-83835000D03*
%TO.P,J4,3,Pin_3*%
%TO.N,GND*%
X144100000Y-86375000D03*
%TD*%
%TO.P,J3,2,Pin_2*%
%TO.N,GND*%
X144100000Y-95220000D03*
D10*
%TO.P,J3,1,Pin_1*%
%TO.N,+3.3V*%
X144100000Y-92680000D03*
%TD*%
%TO.P,J2,1,Pin_1*%
%TO.N,+3.3V*%
X144100000Y-101615000D03*
D11*
%TO.P,J2,2,Pin_2*%
%TO.N,/IR Signal*%
X144100000Y-104155000D03*
%TO.P,J2,3,Pin_3*%
%TO.N,GND*%
X144100000Y-106695000D03*
%TD*%
D10*
%TO.P,J1,1,Pin_1*%
%TO.N,/MOTOR POWER INPUT M1 *%
X144100000Y-62255000D03*
D11*
%TO.P,J1,2,Pin_2*%
%TO.N,GND*%
X144100000Y-64795000D03*
%TO.P,J1,3,Pin_3*%
%TO.N,/B PHASE OF C1 ENCODER*%
X144100000Y-67335000D03*
%TO.P,J1,4,Pin_4*%
%TO.N,/A PHASE OF C2 ENCODER*%
X144100000Y-69875000D03*
%TO.P,J1,5,Pin_5*%
%TO.N,+3.3V*%
X144100000Y-72415000D03*
%TO.P,J1,6,Pin_6*%
%TO.N,/MOTOR POWER INPUT M2*%
X144100000Y-74955000D03*
%TD*%
D14*
%TO.P,U1,16,EN*%
%TO.N,unconnected-(U1-EN-Pad16)*%
X177380000Y-104480000D03*
%TO.P,U1,17,VP*%
%TO.N,unconnected-(U1-VP-Pad17)*%
X177380000Y-101940000D03*
%TO.P,U1,18,VN*%
%TO.N,unconnected-(U1-VN-Pad18)*%
X177380000Y-99400000D03*
%TO.P,U1,19,D34*%
%TO.N,/AUX Strip*%
X177380000Y-96860000D03*
%TO.P,U1,20,D35*%
%TO.N,unconnected-(U1-D35-Pad20)*%
X177380000Y-94320000D03*
%TO.P,U1,21,D32*%
%TO.N,/LIGHT SENSOR*%
X177380000Y-91780000D03*
%TO.P,U1,22,D33*%
%TO.N,unconnected-(U1-D33-Pad22)*%
X177380000Y-89240000D03*
%TO.P,U1,23,D25*%
%TO.N,unconnected-(U1-D25-Pad23)*%
X177380000Y-86700000D03*
%TO.P,U1,24,D26*%
%TO.N,/ACTIVATION SWITCH*%
X177380000Y-84160000D03*
%TO.P,U1,25,D27*%
%TO.N,unconnected-(U1-D27-Pad25)*%
X177380000Y-81620000D03*
%TO.P,U1,26,D14*%
%TO.N,unconnected-(U1-D14-Pad26)*%
X177380000Y-79080000D03*
%TO.P,U1,27,D12*%
%TO.N,unconnected-(U1-D12-Pad27)*%
X177380000Y-76540000D03*
%TO.P,U1,28,D13*%
%TO.N,/SIGA*%
X177380000Y-74000000D03*
%TO.P,U1,29,GND*%
%TO.N,GND*%
X177380000Y-71460000D03*
%TO.P,U1,30,VIN*%
%TO.N,+5V*%
X177380000Y-68920000D03*
%TO.P,U1,15,D23*%
%TO.N,unconnected-(U1-D23-Pad15)*%
X151980000Y-104480000D03*
%TO.P,U1,14,D22*%
%TO.N,unconnected-(U1-D22-Pad14)*%
X151980000Y-101940000D03*
%TO.P,U1,13,TX0*%
%TO.N,unconnected-(U1-TX0-Pad13)*%
X151980000Y-99400000D03*
%TO.P,U1,12,RX0*%
%TO.N,unconnected-(U1-RX0-Pad12)*%
X151980000Y-96860000D03*
%TO.P,U1,11,D21*%
%TO.N,/IR Signal*%
X151980000Y-94320000D03*
%TO.P,U1,10,D19*%
%TO.N,/MOTOR PWM 1*%
X151980000Y-91780000D03*
%TO.P,U1,9,D18*%
%TO.N,/MOTOR PWM 2*%
X151980000Y-89240000D03*
%TO.P,U1,8,D5*%
%TO.N,/LED Strobe*%
X151980000Y-86700000D03*
%TO.P,U1,7,TX2*%
%TO.N,unconnected-(U1-TX2-Pad7)*%
X151980000Y-84160000D03*
%TO.P,U1,6,RX2*%
%TO.N,unconnected-(U1-RX2-Pad6)*%
X151980000Y-81620000D03*
%TO.P,U1,5,D4*%
%TO.N,unconnected-(U1-D4-Pad5)*%
X151980000Y-79080000D03*
%TO.P,U1,4,D2*%
%TO.N,/A PHASE OF C2 ENCODER*%
X151980000Y-76540000D03*
%TO.P,U1,3,D15*%
%TO.N,/B PHASE OF C1 ENCODER*%
X151980000Y-74000000D03*
%TO.P,U1,2,GND*%
%TO.N,GND*%
X151980000Y-71460000D03*
D15*
%TO.P,U1,1,3V3*%
%TO.N,+3.3V*%
X151980000Y-68920000D03*
%TD*%
D16*
%TO.N,+5V*%
X180340000Y-71880000D02*
X180340000Y-74930000D01*
X180340000Y-74930000D02*
X180340000Y-92710000D01*
X184150000Y-76200000D02*
X181610000Y-76200000D01*
X181610000Y-76200000D02*
X180340000Y-74930000D01*
X180340000Y-92710000D02*
X180340000Y-101600000D01*
X184150000Y-94740000D02*
X182370000Y-94740000D01*
X182370000Y-94740000D02*
X180340000Y-92710000D01*
X180340000Y-101600000D02*
X183180000Y-104440000D01*
X183180000Y-104440000D02*
X184150000Y-104440000D01*
X177380000Y-68920000D02*
X180340000Y-71880000D01*
%TO.N,+3.3V*%
X147595000Y-98120000D02*
X147595000Y-91440000D01*
X147595000Y-91440000D02*
X147595000Y-68920000D01*
X144100000Y-92680000D02*
X146355000Y-92680000D01*
X146355000Y-92680000D02*
X147595000Y-91440000D01*
X144100000Y-101615000D02*
X147595000Y-98120000D01*
X144100000Y-72415000D02*
X147595000Y-68920000D01*
X147595000Y-68920000D02*
X151980000Y-68920000D01*
%TD*%
%TA.AperFunction,Conductor*%
%TO.N,GND*%
G36*
X186632539Y-58440185D02*
G01*
X186678294Y-58492989D01*
X186689500Y-58544500D01*
X186689500Y-110365500D01*
X186669815Y-110432539D01*
X186617011Y-110478294D01*
X186565500Y-110489500D01*
X141094500Y-110489500D01*
X141027461Y-110469815D01*
X140981706Y-110417011D01*
X140970500Y-110365500D01*
X140970500Y-104155000D01*
X142744341Y-104155000D01*
X142764936Y-104390403D01*
X142764938Y-104390413D01*
X142826094Y-104618655D01*
X142826096Y-104618659D01*
X142826097Y-104618663D01*
X142877000Y-104727824D01*
X142925965Y-104832830D01*
X142925967Y-104832834D01*
X143061501Y-105026395D01*
X143061506Y-105026402D01*
X143228597Y-105193493D01*
X143228603Y-105193498D01*
X143414594Y-105323730D01*
X143458219Y-105378307D01*
X143465413Y-105447805D01*
X143433890Y-105510160D01*
X143414595Y-105526880D01*
X143228922Y-105656890D01*
X143228920Y-105656891D01*
X143061891Y-105823920D01*
X143061886Y-105823926D01*
X142926400Y-106017420D01*
X142926399Y-106017422D01*
X142826570Y-106231507D01*
X142826567Y-106231513D01*
X142769364Y-106444999D01*
X142769364Y-106445000D01*
X143666314Y-106445000D01*
X143640507Y-106485156D01*
X143600000Y-106623111D01*
X143600000Y-106766889D01*
X143640507Y-106904844D01*
X143666314Y-106945000D01*
X142769364Y-106945000D01*
X142826567Y-107158486D01*
X142826570Y-107158492D01*
X142926399Y-107372578D01*
X143061894Y-107566082D01*
X143228917Y-107733105D01*
X143422421Y-107868600D01*
X143636507Y-107968429D01*
X143636516Y-107968433D01*
X143850000Y-108025634D01*
X143850000Y-107130501D01*
X143957685Y-107179680D01*
X144064237Y-107195000D01*
X144135763Y-107195000D01*
X144242315Y-107179680D01*
X144350000Y-107130501D01*
X144350000Y-108025633D01*
X144563483Y-107968433D01*
X144563492Y-107968429D01*
X144777578Y-107868600D01*
X144971082Y-107733105D01*
X145138105Y-107566082D01*
X145273600Y-107372578D01*
X145373429Y-107158492D01*
X145373432Y-107158486D01*
X145430636Y-106945000D01*
X144533686Y-106945000D01*
X144559493Y-106904844D01*
X144600000Y-106766889D01*
X144600000Y-106623111D01*
X144559493Y-106485156D01*
X144533686Y-106445000D01*
X145430636Y-106445000D01*
X145430635Y-106444999D01*
X145373432Y-106231513D01*
X145373429Y-106231507D01*
X145273600Y-106017422D01*
X145273599Y-106017420D01*
X145138113Y-105823926D01*
X145138108Y-105823920D01*
X144971078Y-105656890D01*
X144785405Y-105526879D01*
X144741780Y-105472302D01*
X144734588Y-105402804D01*
X144766110Y-105340449D01*
X144785406Y-105323730D01*
X144971401Y-105193495D01*
X145138495Y-105026401D01*
X145274035Y-104832830D01*
X145373903Y-104618663D01*
X145435063Y-104390408D01*
X145455659Y-104155000D01*
X145435063Y-103919592D01*
X145373903Y-103691337D01*
X145274035Y-103477171D01*
X145200577Y-103372262D01*
X145138496Y-103283600D01*
X145087348Y-103232452D01*
X145016567Y-103161671D01*
X144983084Y-103100351D01*
X144988068Y-103030659D01*
X145029939Y-102974725D01*
X145060915Y-102957810D01*
X145192331Y-102908796D01*
X145307546Y-102822546D01*
X145393796Y-102707331D01*
X145444091Y-102572483D01*
X145450500Y-102512873D01*
X145450499Y-101341872D01*
X145470184Y-101274834D01*
X145486813Y-101254197D01*
X148064246Y-98676764D01*
X148077872Y-98664988D01*
X148096258Y-98651302D01*
X148128673Y-98612669D01*
X148132315Y-98608696D01*
X148137885Y-98603127D01*
X148157060Y-98578874D01*
X148158071Y-98577635D01*
X148205273Y-98521383D01*
X148205277Y-98521374D01*
X148209246Y-98515342D01*
X148209329Y-98515396D01*
X148212980Y-98509665D01*
X148212896Y-98509613D01*
X148216687Y-98503467D01*
X148216687Y-98503465D01*
X148216689Y-98503464D01*
X148247717Y-98436920D01*
X148248441Y-98435427D01*
X148281388Y-98369825D01*
X148281390Y-98369814D01*
X148283859Y-98363035D01*
X148283950Y-98363068D01*
X148286185Y-98356638D01*
X148286092Y-98356607D01*
X148288358Y-98349765D01*
X148288363Y-98349756D01*
X148303199Y-98277898D01*
X148303579Y-98276189D01*
X148315036Y-98227854D01*
X148320500Y-98204799D01*
X148320500Y-98204798D01*
X148320501Y-98204794D01*
X148321339Y-98197626D01*
X148321434Y-98197637D01*
X148322127Y-98190860D01*
X148322030Y-98190852D01*
X148322659Y-98183667D01*
X148320526Y-98110352D01*
X148320500Y-98108549D01*
X148320500Y-91526793D01*
X148322127Y-91510867D01*
X148322031Y-91510859D01*
X148322660Y-91503667D01*
X148320526Y-91430317D01*
X148320500Y-91428514D01*
X148320500Y-69769500D01*
X148340185Y-69702461D01*
X148392989Y-69656706D01*
X148444500Y-69645500D01*
X150355501Y-69645500D01*
X150422540Y-69665185D01*
X150468295Y-69717989D01*
X150479501Y-69769500D01*
X150479501Y-69967876D01*
X150485908Y-70027483D01*
X150536202Y-70162328D01*
X150536206Y-70162335D01*
X150622452Y-70277544D01*
X150622455Y-70277547D01*
X150737663Y-70363793D01*
X150742799Y-70366597D01*
X150792205Y-70416002D01*
X150807057Y-70484275D01*
X150787182Y-70543251D01*
X150656267Y-70743632D01*
X150556412Y-70971282D01*
X150495387Y-71212261D01*
X150495385Y-71212270D01*
X150474859Y-71459994D01*
X150474859Y-71460005D01*
X150495385Y-71707729D01*
X150495387Y-71707738D01*
X150556412Y-71948717D01*
X150656266Y-72176364D01*
X150756564Y-72329882D01*
X151488866Y-71597579D01*
X151511318Y-71674040D01*
X151590605Y-71797413D01*
X151701438Y-71893451D01*
X151834839Y-71954373D01*
X151838634Y-71954918D01*
X151109942Y-72683609D01*
X151111343Y-72706177D01*
X151095850Y-72774307D01*
X151063744Y-72811713D01*
X150960258Y-72892260D01*
X150791833Y-73075217D01*
X150655826Y-73283393D01*
X150555936Y-73511118D01*
X150494892Y-73752175D01*
X150494890Y-73752187D01*
X150474357Y-73999994D01*
X150474357Y-74000005D01*
X150494890Y-74247812D01*
X150494892Y-74247824D01*
X150555936Y-74488881D01*
X150655826Y-74716606D01*
X150791833Y-74924782D01*
X150805842Y-74940000D01*
X150960256Y-75107738D01*
X151043008Y-75172147D01*
X151083821Y-75228857D01*
X151087496Y-75298630D01*
X151052864Y-75359313D01*
X151043014Y-75367848D01*
X151019055Y-75386497D01*
X150960257Y-75432261D01*
X150791833Y-75615217D01*
X150655826Y-75823393D01*
X150555936Y-76051118D01*
X150494892Y-76292175D01*
X150494890Y-76292187D01*
X150474357Y-76539994D01*
X150474357Y-76540005D01*
X150494890Y-76787812D01*
X150494892Y-76787824D01*
X150555936Y-77028881D01*
X150655826Y-77256606D01*
X150791833Y-77464782D01*
X150791836Y-77464785D01*
X150960256Y-77647738D01*
X151043008Y-77712147D01*
X151083821Y-77768857D01*
X151087496Y-77838630D01*
X151052864Y-77899313D01*
X151043014Y-77907848D01*
X150984400Y-77953469D01*
X150960257Y-77972261D01*
X150791833Y-78155217D01*
X150655826Y-78363393D01*
X150555936Y-78591118D01*
X150494892Y-78832175D01*
X150494890Y-78832187D01*
X150474357Y-79079994D01*
X150474357Y-79080005D01*
X150494890Y-79327812D01*
X150494892Y-79327824D01*
X150555936Y-79568881D01*
X150655826Y-79796606D01*
X150791833Y-80004782D01*
X150791836Y-80004785D01*
X150960256Y-80187738D01*
X151043008Y-80252147D01*
X151083821Y-80308857D01*
X151087496Y-80378630D01*
X151052864Y-80439313D01*
X151043014Y-80447848D01*
X150984400Y-80493469D01*
X150960257Y-80512261D01*
X150791833Y-80695217D01*
X150655826Y-80903393D01*
X150555936Y-81131118D01*
X150494892Y-81372175D01*
X150494890Y-81372187D01*
X150474357Y-81619994D01*
X150474357Y-81620005D01*
X150494890Y-81867812D01*
X150494892Y-81867824D01*
X150555936Y-82108881D01*
X150655826Y-82336606D01*
X150791833Y-82544782D01*
X150791836Y-82544785D01*
X150960256Y-82727738D01*
X151043008Y-82792147D01*
X151083821Y-82848857D01*
X151087496Y-82918630D01*
X151052864Y-82979313D01*
X151043014Y-82987848D01*
X151010068Y-83013492D01*
X150960257Y-83052261D01*
X150791833Y-83235217D01*
X150655826Y-83443393D01*
X150555936Y-83671118D01*
X150494892Y-83912175D01*
X150494890Y-83912187D01*
X150474357Y-84159994D01*
X150474357Y-84160005D01*
X150494890Y-84407812D01*
X150494892Y-84407824D01*
X150555936Y-84648881D01*
X150655826Y-84876606D01*
X150791833Y-85084782D01*
X150791836Y-85084785D01*
X150960256Y-85267738D01*
X151043008Y-85332147D01*
X151083821Y-85388857D01*
X151087496Y-85458630D01*
X151052864Y-85519313D01*
X151043014Y-85527848D01*
X150984400Y-85573469D01*
X150960257Y-85592261D01*
X150791833Y-85775217D01*
X150655826Y-85983393D01*
X150555936Y-86211118D01*
X150494892Y-86452175D01*
X150494890Y-86452187D01*
X150474357Y-86699994D01*
X150474357Y-86700005D01*
X150494890Y-86947812D01*
X150494892Y-86947824D01*
X150555936Y-87188881D01*
X150655826Y-87416606D01*
X150791833Y-87624782D01*
X150824245Y-87659991D01*
X150960256Y-87807738D01*
X151043008Y-87872147D01*
X151083821Y-87928857D01*
X151087496Y-87998630D01*
X151052864Y-88059313D01*
X151043014Y-88067848D01*
X150984400Y-88113469D01*
X150960257Y-88132261D01*
X150791833Y-88315217D01*
X150655826Y-88523393D01*
X150555936Y-88751118D01*
X150494892Y-88992175D01*
X150494890Y-88992187D01*
X150474357Y-89239994D01*
X150474357Y-89240005D01*
X150494890Y-89487812D01*
X150494892Y-89487824D01*
X150555936Y-89728881D01*
X150655826Y-89956606D01*
X150791833Y-90164782D01*
X150791836Y-90164785D01*
X150960256Y-90347738D01*
X151043008Y-90412147D01*
X151083821Y-90468857D01*
X151087496Y-90538630D01*
X151052864Y-90599313D01*
X151043014Y-90607848D01*
X150984400Y-90653469D01*
X150960257Y-90672261D01*
X150791833Y-90855217D01*
X150655826Y-91063393D01*
X150555936Y-91291118D01*
X150494892Y-91532175D01*
X150494890Y-91532187D01*
X150474357Y-91779994D01*
X150474357Y-91780005D01*
X150494890Y-92027812D01*
X150494892Y-92027824D01*
X150555936Y-92268881D01*
X150655826Y-92496606D01*
X150791833Y-92704782D01*
X150791836Y-92704785D01*
X150960256Y-92887738D01*
X151043008Y-92952147D01*
X151083821Y-93008857D01*
X151087496Y-93078630D01*
X151052864Y-93139313D01*
X151043014Y-93147848D01*
X150986457Y-93191869D01*
X150960257Y-93212261D01*
X150791833Y-93395217D01*
X150655826Y-93603393D01*
X150555936Y-93831118D01*
X150494892Y-94072175D01*
X150494890Y-94072187D01*
X150474357Y-94319994D01*
X150474357Y-94320005D01*
X150494890Y-94567812D01*
X150494892Y-94567824D01*
X150555936Y-94808881D01*
X150655826Y-95036606D01*
X150791833Y-95244782D01*
X150791836Y-95244785D01*
X150960256Y-95427738D01*
X151043008Y-95492147D01*
X151083821Y-95548857D01*
X151087496Y-95618630D01*
X151052864Y-95679313D01*
X151043014Y-95687848D01*
X151001706Y-95720000D01*
X150960257Y-95752261D01*
X150791833Y-95935217D01*
X150655826Y-96143393D01*
X150555936Y-96371118D01*
X150494892Y-96612175D01*
X150494890Y-96612187D01*
X150474357Y-96859994D01*
X150474357Y-96860005D01*
X150494890Y-97107812D01*
X150494892Y-97107824D01*
X150555936Y-97348881D01*
X150655826Y-97576606D01*
X150791833Y-97784782D01*
X150791836Y-97784785D01*
X150960256Y-97967738D01*
X151043008Y-98032147D01*
X151083821Y-98088857D01*
X151087496Y-98158630D01*
X151052864Y-98219313D01*
X151043014Y-98227848D01*
X150984400Y-98273469D01*
X150960257Y-98292261D01*
X150791833Y-98475217D01*
X150655826Y-98683393D01*
X150555936Y-98911118D01*
X150494892Y-99152175D01*
X150494890Y-99152187D01*
X150474357Y-99399994D01*
X150474357Y-99400005D01*
X150494890Y-99647812D01*
X150494892Y-99647824D01*
X150555936Y-99888881D01*
X150655826Y-100116606D01*
X150791833Y-100324782D01*
X150791836Y-100324785D01*
X150960256Y-100507738D01*
X151043008Y-100572146D01*
X151083820Y-100628856D01*
X151087495Y-100698629D01*
X151052864Y-100759312D01*
X151043009Y-100767852D01*
X150960255Y-100832262D01*
X150791833Y-101015217D01*
X150655826Y-101223393D01*
X150555936Y-101451118D01*
X150494892Y-101692175D01*
X150494890Y-101692187D01*
X150474357Y-101939994D01*
X150474357Y-101940005D01*
X150494890Y-102187812D01*
X150494892Y-102187824D01*
X150555936Y-102428881D01*
X150655826Y-102656606D01*
X150791833Y-102864782D01*
X150791836Y-102864785D01*
X150960256Y-103047738D01*
X151043008Y-103112147D01*
X151083821Y-103168857D01*
X151087496Y-103238630D01*
X151052864Y-103299313D01*
X151043014Y-103307848D01*
X150984400Y-103353469D01*
X150960257Y-103372261D01*
X150791833Y-103555217D01*
X150655826Y-103763393D01*
X150555936Y-103991118D01*
X150494892Y-104232175D01*
X150494890Y-104232187D01*
X150474357Y-104479994D01*
X150474357Y-104480005D01*
X150494890Y-104727812D01*
X150494892Y-104727824D01*
X150555936Y-104968881D01*
X150655826Y-105196606D01*
X150791833Y-105404782D01*
X150791836Y-105404785D01*
X150960256Y-105587738D01*
X151156491Y-105740474D01*
X151375190Y-105858828D01*
X151610386Y-105939571D01*
X151855665Y-105980500D01*
X151855671Y-105980501D01*
X151860776Y-105980924D01*
X151860644Y-105982505D01*
X151920855Y-106000185D01*
X151966610Y-106052989D01*
X151976554Y-106122147D01*
X151947529Y-106185703D01*
X151890366Y-106222991D01*
X151740358Y-106269262D01*
X151497230Y-106386346D01*
X151274258Y-106538365D01*
X151076442Y-106721910D01*
X150908185Y-106932898D01*
X150773258Y-107166599D01*
X150773256Y-107166603D01*
X150674666Y-107417804D01*
X150674664Y-107417811D01*
X150614616Y-107680898D01*
X150594451Y-107949995D01*
X150594451Y-107950004D01*
X150614616Y-108219101D01*
X150674259Y-108480412D01*
X150674666Y-108482195D01*
X150773257Y-108733398D01*
X150908185Y-108967102D01*
X151044080Y-109137509D01*
X151076442Y-109178089D01*
X151263183Y-109351358D01*
X151274259Y-109361635D01*
X151497226Y-109513651D01*
X151740359Y-109630738D01*
X151998228Y-109710280D01*
X151998229Y-109710280D01*
X151998232Y-109710281D01*
X152265063Y-109750499D01*
X152265068Y-109750499D01*
X152265071Y-109750500D01*
X152265072Y-109750500D01*
X152534928Y-109750500D01*
X152534929Y-109750500D01*
X152574949Y-109744468D01*
X152801767Y-109710281D01*
X152801768Y-109710280D01*
X152801772Y-109710280D01*
X153059641Y-109630738D01*
X153302775Y-109513651D01*
X153525741Y-109361635D01*
X153723561Y-109178085D01*
X153891815Y-108967102D01*
X154026743Y-108733398D01*
X154125334Y-108482195D01*
X154185383Y-108219103D01*
X154205549Y-107950000D01*
X154185383Y-107680897D01*
X154125334Y-107417805D01*
X154026743Y-107166602D01*
X153891815Y-106932898D01*
X153723561Y-106721915D01*
X153723560Y-106721914D01*
X153723557Y-106721910D01*
X153525741Y-106538365D01*
X153447698Y-106485156D01*
X153302775Y-106386349D01*
X153302769Y-106386346D01*
X153302768Y-106386345D01*
X153302767Y-106386344D01*
X153059643Y-106269263D01*
X153059645Y-106269263D01*
X152801773Y-106189720D01*
X152801767Y-106189718D01*
X152534936Y-106149500D01*
X152534929Y-106149500D01*
X152481204Y-106149500D01*
X152414165Y-106129815D01*
X152368410Y-106077011D01*
X152358466Y-106007853D01*
X152387491Y-105944297D01*
X152440941Y-105908219D01*
X152507456Y-105885383D01*
X152584810Y-105858828D01*
X152803509Y-105740474D01*
X152999744Y-105587738D01*
X153168164Y-105404785D01*
X153304173Y-105196607D01*
X153404063Y-104968881D01*
X153465108Y-104727821D01*
X153485643Y-104480000D01*
X153478219Y-104390408D01*
X153465109Y-104232187D01*
X153465107Y-104232175D01*
X153404063Y-103991118D01*
X153304173Y-103763393D01*
X153168166Y-103555217D01*
X153146557Y-103531744D01*
X153043690Y-103420000D01*
X155770000Y-103420000D01*
X155770000Y-109910000D01*
X173460000Y-109910000D01*
X173460000Y-107950004D01*
X175105451Y-107950004D01*
X175125616Y-108219101D01*
X175185259Y-108480412D01*
X175185666Y-108482195D01*
X175284257Y-108733398D01*
X175419185Y-108967102D01*
X175555080Y-109137509D01*
X175587442Y-109178089D01*
X175774183Y-109351358D01*
X175785259Y-109361635D01*
X176008226Y-109513651D01*
X176251359Y-109630738D01*
X176509228Y-109710280D01*
X176509229Y-109710280D01*
X176509232Y-109710281D01*
X176776063Y-109750499D01*
X176776068Y-109750499D01*
X176776071Y-109750500D01*
X176776072Y-109750500D01*
X177045928Y-109750500D01*
X177045929Y-109750500D01*
X177085949Y-109744468D01*
X177312767Y-109710281D01*
X177312768Y-109710280D01*
X177312772Y-109710280D01*
X177570641Y-109630738D01*
X177813775Y-109513651D01*
X178036741Y-109361635D01*
X178234561Y-109178085D01*
X178402815Y-108967102D01*
X178537743Y-108733398D01*
X178636334Y-108482195D01*
X178696383Y-108219103D01*
X178716549Y-107950000D01*
X178696383Y-107680897D01*
X178636334Y-107417805D01*
X178537743Y-107166602D01*
X178402815Y-106932898D01*
X178234561Y-106721915D01*
X178234560Y-106721914D01*
X178234557Y-106721910D01*
X178036741Y-106538365D01*
X177958698Y-106485156D01*
X177813775Y-106386349D01*
X177813769Y-106386346D01*
X177813768Y-106386345D01*
X177813767Y-106386344D01*
X177570643Y-106269263D01*
X177570645Y-106269263D01*
X177420634Y-106222991D01*
X177362375Y-106184420D01*
X177334217Y-106120476D01*
X177345101Y-106051459D01*
X177391570Y-105999282D01*
X177457184Y-105980500D01*
X177504335Y-105980500D01*
X177749614Y-105939571D01*
X177984810Y-105858828D01*
X178203509Y-105740474D01*
X178399744Y-105587738D01*
X178568164Y-105404785D01*
X178704173Y-105196607D01*
X178804063Y-104968881D01*
X178865108Y-104727821D01*
X178885643Y-104480000D01*
X178865108Y-104232179D01*
X178804063Y-103991119D01*
X178772688Y-103919592D01*
X178704173Y-103763393D01*
X178568166Y-103555217D01*
X178546557Y-103531744D01*
X178399744Y-103372262D01*
X178316991Y-103307852D01*
X178276179Y-103251143D01*
X178272504Y-103181370D01*
X178307136Y-103120687D01*
X178316985Y-103112151D01*
X178399744Y-103047738D01*
X178568164Y-102864785D01*
X178704173Y-102656607D01*
X178804063Y-102428881D01*
X178865108Y-102187821D01*
X178869452Y-102135403D01*
X178881576Y-101989080D01*
X178885643Y-101940000D01*
X178865108Y-101692179D01*
X178858122Y-101664592D01*
X178804063Y-101451118D01*
X178704173Y-101223393D01*
X178568166Y-101015217D01*
X178546557Y-100991744D01*
X178399744Y-100832262D01*
X178316991Y-100767852D01*
X178276179Y-100711143D01*
X178272504Y-100641370D01*
X178307136Y-100580687D01*
X178316985Y-100572151D01*
X178399744Y-100507738D01*
X178568164Y-100324785D01*
X178704173Y-100116607D01*
X178804063Y-99888881D01*
X178865108Y-99647821D01*
X178885643Y-99400000D01*
X178865108Y-99152179D01*
X178804063Y-98911119D01*
X178797656Y-98896513D01*
X178704173Y-98683393D01*
X178568166Y-98475217D01*
X178531468Y-98435353D01*
X178399744Y-98292262D01*
X178316991Y-98227852D01*
X178276179Y-98171143D01*
X178272504Y-98101370D01*
X178307136Y-98040687D01*
X178316985Y-98032151D01*
X178399744Y-97967738D01*
X178568164Y-97784785D01*
X178704173Y-97576607D01*
X178804063Y-97348881D01*
X178865108Y-97107821D01*
X178885643Y-96860000D01*
X178865108Y-96612179D01*
X178804063Y-96371119D01*
X178754490Y-96258105D01*
X178704173Y-96143393D01*
X178568166Y-95935217D01*
X178473456Y-95832335D01*
X178399744Y-95752262D01*
X178316991Y-95687852D01*
X178276179Y-95631143D01*
X178272504Y-95561370D01*
X178307136Y-95500687D01*
X178316985Y-95492151D01*
X178399744Y-95427738D01*
X178568164Y-95244785D01*
X178704173Y-95036607D01*
X178804063Y-94808881D01*
X178865108Y-94567821D01*
X178885643Y-94320000D01*
X178869927Y-94130337D01*
X178865109Y-94072187D01*
X178865107Y-94072175D01*
X178804063Y-93831118D01*
X178704173Y-93603393D01*
X178568166Y-93395217D01*
X178516449Y-93339038D01*
X178399744Y-93212262D01*
X178316991Y-93147852D01*
X178276179Y-93091143D01*
X178272504Y-93021370D01*
X178307136Y-92960687D01*
X178316985Y-92952151D01*
X178399744Y-92887738D01*
X178568164Y-92704785D01*
X178704173Y-92496607D01*
X178804063Y-92268881D01*
X178865108Y-92027821D01*
X178885643Y-91780000D01*
X178865108Y-91532179D01*
X178857888Y-91503667D01*
X178804063Y-91291118D01*
X178704173Y-91063393D01*
X178568166Y-90855217D01*
X178543220Y-90828119D01*
X178399744Y-90672262D01*
X178316991Y-90607852D01*
X178276179Y-90551143D01*
X178272504Y-90481370D01*
X178307136Y-90420687D01*
X178316985Y-90412151D01*
X178399744Y-90347738D01*
X178568164Y-90164785D01*
X178704173Y-89956607D01*
X178804063Y-89728881D01*
X178865108Y-89487821D01*
X178885643Y-89240000D01*
X178865108Y-88992179D01*
X178804063Y-88751119D01*
X178704173Y-88523393D01*
X178680004Y-88486399D01*
X178568166Y-88315217D01*
X178546557Y-88291744D01*
X178399744Y-88132262D01*
X178316991Y-88067852D01*
X178276179Y-88011143D01*
X178272504Y-87941370D01*
X178307136Y-87880687D01*
X178316985Y-87872151D01*
X178399744Y-87807738D01*
X178568164Y-87624785D01*
X178704173Y-87416607D01*
X178804063Y-87188881D01*
X178865108Y-86947821D01*
X178885643Y-86700000D01*
X178865108Y-86452179D01*
X178862150Y-86440498D01*
X178804063Y-86211118D01*
X178704173Y-85983393D01*
X178568166Y-85775217D01*
X178546557Y-85751744D01*
X178399744Y-85592262D01*
X178316991Y-85527852D01*
X178276179Y-85471143D01*
X178272504Y-85401370D01*
X178307136Y-85340687D01*
X178316985Y-85332151D01*
X178399744Y-85267738D01*
X178568164Y-85084785D01*
X178704173Y-84876607D01*
X178804063Y-84648881D01*
X178865108Y-84407821D01*
X178885643Y-84160000D01*
X178872192Y-83997669D01*
X178865109Y-83912187D01*
X178865107Y-83912175D01*
X178804063Y-83671118D01*
X178704173Y-83443393D01*
X178568166Y-83235217D01*
X178496319Y-83157171D01*
X178399744Y-83052262D01*
X178316991Y-82987852D01*
X178276179Y-82931143D01*
X178272504Y-82861370D01*
X178307136Y-82800687D01*
X178316985Y-82792151D01*
X178399744Y-82727738D01*
X178568164Y-82544785D01*
X178704173Y-82336607D01*
X178804063Y-82108881D01*
X178865108Y-81867821D01*
X178885643Y-81620000D01*
X178865108Y-81372179D01*
X178804063Y-81131119D01*
X178704173Y-80903393D01*
X178568166Y-80695217D01*
X178546557Y-80671744D01*
X178399744Y-80512262D01*
X178316991Y-80447852D01*
X178276179Y-80391143D01*
X178272504Y-80321370D01*
X178307136Y-80260687D01*
X178316985Y-80252151D01*
X178399744Y-80187738D01*
X178568164Y-80004785D01*
X178704173Y-79796607D01*
X178804063Y-79568881D01*
X178865108Y-79327821D01*
X178885643Y-79080000D01*
X178865108Y-78832179D01*
X178804063Y-78591119D01*
X178704173Y-78363393D01*
X178568166Y-78155217D01*
X178546557Y-78131744D01*
X178399744Y-77972262D01*
X178316991Y-77907852D01*
X178276179Y-77851143D01*
X178272504Y-77781370D01*
X178307136Y-77720687D01*
X178316985Y-77712151D01*
X178399744Y-77647738D01*
X178568164Y-77464785D01*
X178704173Y-77256607D01*
X178804063Y-77028881D01*
X178865108Y-76787821D01*
X178868832Y-76742885D01*
X178873750Y-76683529D01*
X178885643Y-76540000D01*
X178873349Y-76391643D01*
X178865109Y-76292187D01*
X178865107Y-76292175D01*
X178804063Y-76051118D01*
X178704173Y-75823393D01*
X178568166Y-75615217D01*
X178546557Y-75591744D01*
X178399744Y-75432262D01*
X178316991Y-75367852D01*
X178276179Y-75311143D01*
X178272504Y-75241370D01*
X178307136Y-75180687D01*
X178316985Y-75172151D01*
X178399744Y-75107738D01*
X178568164Y-74924785D01*
X178704173Y-74716607D01*
X178804063Y-74488881D01*
X178865108Y-74247821D01*
X178885643Y-74000000D01*
X178867617Y-73782454D01*
X178865109Y-73752187D01*
X178865107Y-73752175D01*
X178804063Y-73511118D01*
X178704173Y-73283393D01*
X178568166Y-73075217D01*
X178482509Y-72982169D01*
X178399744Y-72892262D01*
X178296253Y-72811712D01*
X178255442Y-72755003D01*
X178248655Y-72706176D01*
X178250056Y-72683609D01*
X177521365Y-71954918D01*
X177525161Y-71954373D01*
X177658562Y-71893451D01*
X177769395Y-71797413D01*
X177848682Y-71674040D01*
X177871133Y-71597580D01*
X178603434Y-72329882D01*
X178703731Y-72176369D01*
X178803587Y-71948717D01*
X178865872Y-71702766D01*
X178866936Y-71703035D01*
X178895022Y-71645000D01*
X178954629Y-71608547D01*
X179024481Y-71610106D01*
X179074581Y-71640593D01*
X179578180Y-72144192D01*
X179611665Y-72205515D01*
X179614499Y-72231873D01*
X179614499Y-74868118D01*
X179613190Y-74886090D01*
X179609870Y-74908755D01*
X179609869Y-74908758D01*
X179614264Y-74958977D01*
X179614500Y-74964384D01*
X179614500Y-92648111D01*
X179613191Y-92666083D01*
X179609870Y-92688755D01*
X179609869Y-92688758D01*
X179614264Y-92738977D01*
X179614500Y-92744384D01*
X179614500Y-101538111D01*
X179613191Y-101556083D01*
X179609870Y-101578755D01*
X179609869Y-101578758D01*
X179614264Y-101628977D01*
X179614500Y-101634384D01*
X179614500Y-101642259D01*
X179618075Y-101672851D01*
X179618259Y-101674645D01*
X179624650Y-101747707D01*
X179626110Y-101754774D01*
X179626016Y-101754793D01*
X179627493Y-101761452D01*
X179627586Y-101761431D01*
X179629248Y-101768448D01*
X179654327Y-101837350D01*
X179654919Y-101839053D01*
X179677998Y-101908699D01*
X179681050Y-101915244D01*
X179680962Y-101915284D01*
X179683929Y-101921411D01*
X179684015Y-101921368D01*
X179687254Y-101927817D01*
X179687256Y-101927820D01*
X179727562Y-101989104D01*
X179728515Y-101990600D01*
X179767032Y-102053044D01*
X179767034Y-102053046D01*
X179771514Y-102058713D01*
X179771436Y-102058773D01*
X179775733Y-102064048D01*
X179775809Y-102063985D01*
X179780454Y-102069520D01*
X179833802Y-102119851D01*
X179835096Y-102121108D01*
X182623231Y-104909243D01*
X182635007Y-104922868D01*
X182648698Y-104941258D01*
X182665437Y-104955304D01*
X182687325Y-104973671D01*
X182691313Y-104977326D01*
X182696868Y-104982881D01*
X182721019Y-105001978D01*
X182722417Y-105003116D01*
X182755205Y-105030628D01*
X182793907Y-105088799D01*
X182799500Y-105125617D01*
X182799500Y-105337869D01*
X182799501Y-105337876D01*
X182805908Y-105397483D01*
X182856202Y-105532328D01*
X182856206Y-105532335D01*
X182942452Y-105647544D01*
X182942455Y-105647547D01*
X183057664Y-105733793D01*
X183057671Y-105733797D01*
X183192517Y-105784091D01*
X183192516Y-105784091D01*
X183199444Y-105784835D01*
X183252127Y-105790500D01*
X185047872Y-105790499D01*
X185107483Y-105784091D01*
X185242331Y-105733796D01*
X185357546Y-105647546D01*
X185443796Y-105532331D01*
X185494091Y-105397483D01*
X185500500Y-105337873D01*
X185500499Y-103542128D01*
X185494091Y-103482517D01*
X185492096Y-103477169D01*
X185443797Y-103347671D01*
X185443793Y-103347664D01*
X185357547Y-103232455D01*
X185357544Y-103232452D01*
X185242335Y-103146206D01*
X185242328Y-103146202D01*
X185110917Y-103097189D01*
X185054983Y-103055318D01*
X185030566Y-102989853D01*
X185045418Y-102921580D01*
X185066563Y-102893332D01*
X185188495Y-102771401D01*
X185324035Y-102577830D01*
X185423903Y-102363663D01*
X185485063Y-102135408D01*
X185505659Y-101900000D01*
X185485063Y-101664592D01*
X185423903Y-101436337D01*
X185324035Y-101222171D01*
X185188495Y-101028599D01*
X185188494Y-101028597D01*
X185021402Y-100861506D01*
X185021401Y-100861505D01*
X184835405Y-100731269D01*
X184791781Y-100676692D01*
X184784588Y-100607193D01*
X184816110Y-100544839D01*
X184835405Y-100528119D01*
X185021082Y-100398105D01*
X185188105Y-100231082D01*
X185323600Y-100037578D01*
X185423429Y-99823492D01*
X185423432Y-99823486D01*
X185480636Y-99610000D01*
X184583686Y-99610000D01*
X184609493Y-99569844D01*
X184650000Y-99431889D01*
X184650000Y-99288111D01*
X184609493Y-99150156D01*
X184583686Y-99110000D01*
X185480636Y-99110000D01*
X185480635Y-99109999D01*
X185423432Y-98896513D01*
X185423429Y-98896507D01*
X185323600Y-98682422D01*
X185323599Y-98682420D01*
X185188113Y-98488926D01*
X185188108Y-98488920D01*
X185021082Y-98321894D01*
X184827578Y-98186399D01*
X184613492Y-98086570D01*
X184613486Y-98086567D01*
X184400000Y-98029364D01*
X184400000Y-98924498D01*
X184292315Y-98875320D01*
X184185763Y-98860000D01*
X184114237Y-98860000D01*
X184007685Y-98875320D01*
X183900000Y-98924498D01*
X183900000Y-98029364D01*
X183899999Y-98029364D01*
X183686513Y-98086567D01*
X183686507Y-98086570D01*
X183472422Y-98186399D01*
X183472420Y-98186400D01*
X183278926Y-98321886D01*
X183278920Y-98321891D01*
X183111891Y-98488920D01*
X183111886Y-98488926D01*
X182976400Y-98682420D01*
X182976399Y-98682422D01*
X182876570Y-98896507D01*
X182876567Y-98896513D01*
X182819364Y-99109999D01*
X182819364Y-99110000D01*
X183716314Y-99110000D01*
X183690507Y-99150156D01*
X183650000Y-99288111D01*
X183650000Y-99431889D01*
X183690507Y-99569844D01*
X183716314Y-99610000D01*
X182819364Y-99610000D01*
X182876567Y-99823486D01*
X182876570Y-99823492D01*
X182976399Y-100037578D01*
X183111894Y-100231082D01*
X183278917Y-100398105D01*
X183464595Y-100528119D01*
X183508219Y-100582696D01*
X183515412Y-100652195D01*
X183483890Y-100714549D01*
X183464595Y-100731269D01*
X183278594Y-100861508D01*
X183111505Y-101028597D01*
X182975965Y-101222169D01*
X182975964Y-101222171D01*
X182876098Y-101436335D01*
X182876094Y-101436344D01*
X182814938Y-101664586D01*
X182814936Y-101664596D01*
X182794341Y-101899999D01*
X182794341Y-101900000D01*
X182814936Y-102135403D01*
X182814938Y-102135413D01*
X182876094Y-102363655D01*
X182876096Y-102363659D01*
X182876097Y-102363663D01*
X182945680Y-102512883D01*
X182975965Y-102577830D01*
X182975967Y-102577834D01*
X183066643Y-102707331D01*
X183111501Y-102771396D01*
X183111506Y-102771402D01*
X183233430Y-102893326D01*
X183266915Y-102954649D01*
X183261931Y-103024341D01*
X183220059Y-103080274D01*
X183189083Y-103097189D01*
X183057669Y-103146203D01*
X183049886Y-103150454D01*
X183048793Y-103148453D01*
X182995018Y-103168501D01*
X182926747Y-103153639D01*
X182898509Y-103132497D01*
X181101819Y-101335807D01*
X181068334Y-101274484D01*
X181065500Y-101248126D01*
X181065500Y-94760874D01*
X181085185Y-94693835D01*
X181137989Y-94648080D01*
X181207147Y-94638136D01*
X181270703Y-94667161D01*
X181277181Y-94673193D01*
X181813231Y-95209243D01*
X181825007Y-95222868D01*
X181838698Y-95241258D01*
X181855437Y-95255304D01*
X181877325Y-95273671D01*
X181881313Y-95277326D01*
X181886868Y-95282881D01*
X181911019Y-95301978D01*
X181912418Y-95303117D01*
X181956295Y-95339933D01*
X181968617Y-95350273D01*
X181968619Y-95350274D01*
X181974653Y-95354243D01*
X181974599Y-95354324D01*
X181980333Y-95357978D01*
X181980385Y-95357895D01*
X181986534Y-95361687D01*
X181986537Y-95361689D01*
X182053042Y-95392700D01*
X182054565Y-95393437D01*
X182120175Y-95426388D01*
X182120179Y-95426389D01*
X182126964Y-95428859D01*
X182126930Y-95428951D01*
X182133359Y-95431185D01*
X182133390Y-95431093D01*
X182140240Y-95433363D01*
X182140243Y-95433363D01*
X182140244Y-95433364D01*
X182212152Y-95448211D01*
X182213789Y-95448574D01*
X182285201Y-95465500D01*
X182285207Y-95465500D01*
X182292374Y-95466338D01*
X182292362Y-95466435D01*
X182299135Y-95467127D01*
X182299144Y-95467031D01*
X182306334Y-95467660D01*
X182306337Y-95467659D01*
X182306338Y-95467660D01*
X182329788Y-95466977D01*
X182379683Y-95465526D01*
X182381486Y-95465500D01*
X182675501Y-95465500D01*
X182742540Y-95485185D01*
X182788295Y-95537989D01*
X182799501Y-95589500D01*
X182799501Y-95637876D01*
X182805908Y-95697483D01*
X182856202Y-95832328D01*
X182856206Y-95832335D01*
X182942452Y-95947544D01*
X182942455Y-95947547D01*
X183057664Y-96033793D01*
X183057671Y-96033797D01*
X183192517Y-96084091D01*
X183192516Y-96084091D01*
X183199444Y-96084835D01*
X183252127Y-96090500D01*
X185047872Y-96090499D01*
X185107483Y-96084091D01*
X185242331Y-96033796D01*
X185357546Y-95947546D01*
X185443796Y-95832331D01*
X185494091Y-95697483D01*
X185500500Y-95637873D01*
X185500499Y-93842128D01*
X185494091Y-93782517D01*
X185490293Y-93772335D01*
X185443797Y-93647671D01*
X185443793Y-93647664D01*
X185357547Y-93532455D01*
X185357544Y-93532452D01*
X185242335Y-93446206D01*
X185242328Y-93446202D01*
X185110917Y-93397189D01*
X185054983Y-93355318D01*
X185030566Y-93289853D01*
X185045418Y-93221580D01*
X185066563Y-93193332D01*
X185188495Y-93071401D01*
X185324035Y-92877830D01*
X185423903Y-92663663D01*
X185485063Y-92435408D01*
X185505659Y-92200000D01*
X185485063Y-91964592D01*
X185423903Y-91736337D01*
X185324035Y-91522171D01*
X185316115Y-91510859D01*
X185188494Y-91328597D01*
X185021402Y-91161506D01*
X185021401Y-91161505D01*
X184835405Y-91031269D01*
X184791781Y-90976692D01*
X184784588Y-90907193D01*
X184816110Y-90844839D01*
X184835405Y-90828119D01*
X185021082Y-90698105D01*
X185188105Y-90531082D01*
X185323600Y-90337578D01*
X185423429Y-90123492D01*
X185423432Y-90123486D01*
X185480636Y-89910000D01*
X184583686Y-89910000D01*
X184609493Y-89869844D01*
X184650000Y-89731889D01*
X184650000Y-89588111D01*
X184609493Y-89450156D01*
X184583686Y-89410000D01*
X185480636Y-89410000D01*
X185480635Y-89409999D01*
X185423432Y-89196513D01*
X185423429Y-89196507D01*
X185323600Y-88982422D01*
X185323599Y-88982420D01*
X185188113Y-88788926D01*
X185188108Y-88788920D01*
X185021082Y-88621894D01*
X184827578Y-88486399D01*
X184613492Y-88386570D01*
X184613486Y-88386567D01*
X184400000Y-88329364D01*
X184400000Y-89224498D01*
X184292315Y-89175320D01*
X184185763Y-89160000D01*
X184114237Y-89160000D01*
X184007685Y-89175320D01*
X183900000Y-89224498D01*
X183900000Y-88329364D01*
X183899999Y-88329364D01*
X183686513Y-88386567D01*
X183686507Y-88386570D01*
X183472422Y-88486399D01*
X183472420Y-88486400D01*
X183278926Y-88621886D01*
X183278920Y-88621891D01*
X183111891Y-88788920D01*
X183111886Y-88788926D01*
X182976400Y-88982420D01*
X182976399Y-88982422D01*
X182876570Y-89196507D01*
X182876567Y-89196513D01*
X182819364Y-89409999D01*
X182819364Y-89410000D01*
X183716314Y-89410000D01*
X183690507Y-89450156D01*
X183650000Y-89588111D01*
X183650000Y-89731889D01*
X183690507Y-89869844D01*
X183716314Y-89910000D01*
X182819364Y-89910000D01*
X182876567Y-90123486D01*
X182876570Y-90123492D01*
X182976399Y-90337578D01*
X183111894Y-90531082D01*
X183278917Y-90698105D01*
X183464595Y-90828119D01*
X183508219Y-90882696D01*
X183515412Y-90952195D01*
X183483890Y-91014549D01*
X183464595Y-91031269D01*
X183278594Y-91161508D01*
X183111505Y-91328597D01*
X182975965Y-91522169D01*
X182975964Y-91522171D01*
X182876098Y-91736335D01*
X182876094Y-91736344D01*
X182814938Y-91964586D01*
X182814936Y-91964596D01*
X182794341Y-92199999D01*
X182794341Y-92200000D01*
X182814936Y-92435403D01*
X182814938Y-92435413D01*
X182876094Y-92663655D01*
X182876096Y-92663659D01*
X182876097Y-92663663D01*
X182895273Y-92704785D01*
X182975965Y-92877830D01*
X182975967Y-92877834D01*
X183033982Y-92960687D01*
X183111501Y-93071396D01*
X183111506Y-93071402D01*
X183233430Y-93193326D01*
X183266915Y-93254649D01*
X183261931Y-93324341D01*
X183220059Y-93380274D01*
X183189083Y-93397189D01*
X183057669Y-93446203D01*
X183057664Y-93446206D01*
X182942455Y-93532452D01*
X182942452Y-93532455D01*
X182856206Y-93647664D01*
X182856202Y-93647671D01*
X182805908Y-93782517D01*
X182799501Y-93842116D01*
X182799501Y-93842123D01*
X182799500Y-93842135D01*
X182799500Y-93844125D01*
X182799369Y-93844569D01*
X182799322Y-93845452D01*
X182799113Y-93845440D01*
X182779815Y-93911164D01*
X182727011Y-93956919D01*
X182657853Y-93966863D01*
X182594297Y-93937838D01*
X182587819Y-93931806D01*
X181101818Y-92445806D01*
X181068333Y-92384483D01*
X181065499Y-92358134D01*
X181065499Y-85987870D01*
X182799500Y-85987870D01*
X182799501Y-85987876D01*
X182805908Y-86047483D01*
X182856202Y-86182328D01*
X182856206Y-86182335D01*
X182942452Y-86297544D01*
X182942455Y-86297547D01*
X183057664Y-86383793D01*
X183057671Y-86383797D01*
X183192517Y-86434091D01*
X183192516Y-86434091D01*
X183199444Y-86434835D01*
X183252127Y-86440500D01*
X185047872Y-86440499D01*
X185107483Y-86434091D01*
X185242331Y-86383796D01*
X185357546Y-86297546D01*
X185443796Y-86182331D01*
X185494091Y-86047483D01*
X185500500Y-85987873D01*
X185500499Y-84192128D01*
X185494091Y-84132517D01*
X185443796Y-83997669D01*
X185443795Y-83997668D01*
X185443793Y-83997664D01*
X185357547Y-83882455D01*
X185357544Y-83882452D01*
X185242335Y-83796206D01*
X185242328Y-83796202D01*
X185110401Y-83746997D01*
X185054467Y-83705126D01*
X185030050Y-83639662D01*
X185044902Y-83571389D01*
X185066053Y-83543133D01*
X185188108Y-83421078D01*
X185323600Y-83227578D01*
X185423429Y-83013492D01*
X185423432Y-83013486D01*
X185480636Y-82800000D01*
X184583686Y-82800000D01*
X184609493Y-82759844D01*
X184650000Y-82621889D01*
X184650000Y-82478111D01*
X184609493Y-82340156D01*
X184583686Y-82300000D01*
X185480636Y-82300000D01*
X185480635Y-82299999D01*
X185423432Y-82086513D01*
X185423429Y-82086507D01*
X185323600Y-81872422D01*
X185323599Y-81872420D01*
X185188113Y-81678926D01*
X185188108Y-81678920D01*
X185021082Y-81511894D01*
X184827578Y-81376399D01*
X184613492Y-81276570D01*
X184613486Y-81276567D01*
X184400000Y-81219364D01*
X184400000Y-82114498D01*
X184292315Y-82065320D01*
X184185763Y-82050000D01*
X184114237Y-82050000D01*
X184007685Y-82065320D01*
X183900000Y-82114498D01*
X183900000Y-81219364D01*
X183899999Y-81219364D01*
X183686513Y-81276567D01*
X183686507Y-81276570D01*
X183472422Y-81376399D01*
X183472420Y-81376400D01*
X183278926Y-81511886D01*
X183278920Y-81511891D01*
X183111891Y-81678920D01*
X183111886Y-81678926D01*
X182976400Y-81872420D01*
X182976399Y-81872422D01*
X182876570Y-82086507D01*
X182876567Y-82086513D01*
X182819364Y-82299999D01*
X182819364Y-82300000D01*
X183716314Y-82300000D01*
X183690507Y-82340156D01*
X183650000Y-82478111D01*
X183650000Y-82621889D01*
X183690507Y-82759844D01*
X183716314Y-82800000D01*
X182819364Y-82800000D01*
X182876567Y-83013486D01*
X182876570Y-83013492D01*
X182976399Y-83227578D01*
X183111894Y-83421082D01*
X183233946Y-83543134D01*
X183267431Y-83604457D01*
X183262447Y-83674149D01*
X183220575Y-83730082D01*
X183189598Y-83746997D01*
X183057671Y-83796202D01*
X183057664Y-83796206D01*
X182942455Y-83882452D01*
X182942452Y-83882455D01*
X182856206Y-83997664D01*
X182856202Y-83997671D01*
X182805908Y-84132517D01*
X182799501Y-84192116D01*
X182799501Y-84192123D01*
X182799500Y-84192135D01*
X182799500Y-85987870D01*
X181065499Y-85987870D01*
X181065499Y-76941235D01*
X181085184Y-76874197D01*
X181137988Y-76828442D01*
X181207146Y-76818498D01*
X181241900Y-76828852D01*
X181293027Y-76852693D01*
X181294602Y-76853455D01*
X181360175Y-76886388D01*
X181360180Y-76886389D01*
X181366957Y-76888856D01*
X181366923Y-76888948D01*
X181373360Y-76891185D01*
X181373391Y-76891092D01*
X181380239Y-76893360D01*
X181380244Y-76893363D01*
X181452083Y-76908195D01*
X181453792Y-76908575D01*
X181525201Y-76925500D01*
X181525205Y-76925501D01*
X181532374Y-76926339D01*
X181532362Y-76926435D01*
X181539135Y-76927127D01*
X181539144Y-76927030D01*
X181546334Y-76927659D01*
X181546337Y-76927658D01*
X181546338Y-76927659D01*
X181571415Y-76926929D01*
X181619663Y-76925526D01*
X181621466Y-76925500D01*
X182675501Y-76925500D01*
X182742540Y-76945185D01*
X182788295Y-76997989D01*
X182799501Y-77049500D01*
X182799501Y-77097876D01*
X182805908Y-77157483D01*
X182856202Y-77292328D01*
X182856206Y-77292335D01*
X182942452Y-77407544D01*
X182942455Y-77407547D01*
X183057664Y-77493793D01*
X183057671Y-77493797D01*
X183192517Y-77544091D01*
X183192516Y-77544091D01*
X183199444Y-77544835D01*
X183252127Y-77550500D01*
X185047872Y-77550499D01*
X185107483Y-77544091D01*
X185242331Y-77493796D01*
X185357546Y-77407546D01*
X185443796Y-77292331D01*
X185494091Y-77157483D01*
X185500500Y-77097873D01*
X185500499Y-75302128D01*
X185494091Y-75242517D01*
X185493663Y-75241370D01*
X185443797Y-75107671D01*
X185443793Y-75107664D01*
X185357547Y-74992455D01*
X185357544Y-74992452D01*
X185242335Y-74906206D01*
X185242328Y-74906202D01*
X185110917Y-74857189D01*
X185054983Y-74815318D01*
X185030566Y-74749853D01*
X185045418Y-74681580D01*
X185066563Y-74653332D01*
X185188495Y-74531401D01*
X185324035Y-74337830D01*
X185423903Y-74123663D01*
X185485063Y-73895408D01*
X185505659Y-73660000D01*
X185485063Y-73424592D01*
X185423903Y-73196337D01*
X185324035Y-72982171D01*
X185261081Y-72892262D01*
X185188494Y-72788597D01*
X185021402Y-72621506D01*
X185021401Y-72621505D01*
X184835405Y-72491269D01*
X184791781Y-72436692D01*
X184784588Y-72367193D01*
X184816110Y-72304839D01*
X184835405Y-72288119D01*
X185021082Y-72158105D01*
X185188105Y-71991082D01*
X185323600Y-71797578D01*
X185423429Y-71583492D01*
X185423432Y-71583486D01*
X185480636Y-71370000D01*
X184583686Y-71370000D01*
X184609493Y-71329844D01*
X184650000Y-71191889D01*
X184650000Y-71048111D01*
X184609493Y-70910156D01*
X184583686Y-70870000D01*
X185480636Y-70870000D01*
X185480635Y-70869999D01*
X185423432Y-70656513D01*
X185423429Y-70656507D01*
X185323600Y-70442422D01*
X185323599Y-70442420D01*
X185188113Y-70248926D01*
X185188108Y-70248920D01*
X185021082Y-70081894D01*
X184827578Y-69946399D01*
X184613492Y-69846570D01*
X184613486Y-69846567D01*
X184400000Y-69789364D01*
X184400000Y-70684498D01*
X184292315Y-70635320D01*
X184185763Y-70620000D01*
X184114237Y-70620000D01*
X184007685Y-70635320D01*
X183900000Y-70684498D01*
X183900000Y-69789364D01*
X183899999Y-69789364D01*
X183686513Y-69846567D01*
X183686507Y-69846570D01*
X183472422Y-69946399D01*
X183472420Y-69946400D01*
X183278926Y-70081886D01*
X183278920Y-70081891D01*
X183111891Y-70248920D01*
X183111886Y-70248926D01*
X182976400Y-70442420D01*
X182976399Y-70442422D01*
X182876570Y-70656507D01*
X182876567Y-70656513D01*
X182819364Y-70869999D01*
X182819364Y-70870000D01*
X183716314Y-70870000D01*
X183690507Y-70910156D01*
X183650000Y-71048111D01*
X183650000Y-71191889D01*
X183690507Y-71329844D01*
X183716314Y-71370000D01*
X182819364Y-71370000D01*
X182876567Y-71583486D01*
X182876570Y-71583492D01*
X182976399Y-71797578D01*
X183111894Y-71991082D01*
X183278917Y-72158105D01*
X183464595Y-72288119D01*
X183508219Y-72342696D01*
X183515412Y-72412195D01*
X183483890Y-72474549D01*
X183464595Y-72491269D01*
X183278594Y-72621508D01*
X183111505Y-72788597D01*
X182975965Y-72982169D01*
X182975964Y-72982171D01*
X182876098Y-73196335D01*
X182876094Y-73196344D01*
X182814938Y-73424586D01*
X182814936Y-73424596D01*
X182794341Y-73659999D01*
X182794341Y-73660000D01*
X182814936Y-73895403D01*
X182814938Y-73895413D01*
X182876094Y-74123655D01*
X182876096Y-74123659D01*
X182876097Y-74123663D01*
X182947678Y-74277169D01*
X182975965Y-74337830D01*
X182975967Y-74337834D01*
X183081732Y-74488881D01*
X183111501Y-74531396D01*
X183111506Y-74531402D01*
X183233430Y-74653326D01*
X183266915Y-74714649D01*
X183261931Y-74784341D01*
X183220059Y-74840274D01*
X183189083Y-74857189D01*
X183057669Y-74906203D01*
X183057664Y-74906206D01*
X182942455Y-74992452D01*
X182942452Y-74992455D01*
X182856206Y-75107664D01*
X182856202Y-75107671D01*
X182805908Y-75242517D01*
X182799876Y-75298630D01*
X182799501Y-75302123D01*
X182799500Y-75302135D01*
X182799500Y-75350500D01*
X182779815Y-75417539D01*
X182727011Y-75463294D01*
X182675500Y-75474500D01*
X181961874Y-75474500D01*
X181894835Y-75454815D01*
X181874193Y-75438181D01*
X181101819Y-74665807D01*
X181068334Y-74604484D01*
X181065500Y-74578126D01*
X181065500Y-71941886D01*
X181066809Y-71923916D01*
X181070130Y-71901244D01*
X181069448Y-71893451D01*
X181065736Y-71851020D01*
X181065500Y-71845614D01*
X181065500Y-71837750D01*
X181065500Y-71837744D01*
X181061917Y-71807094D01*
X181061748Y-71805449D01*
X181055349Y-71732292D01*
X181055346Y-71732285D01*
X181053889Y-71725223D01*
X181053985Y-71725203D01*
X181052512Y-71718559D01*
X181052417Y-71718582D01*
X181050750Y-71711550D01*
X181049359Y-71707729D01*
X181037098Y-71674040D01*
X181025662Y-71642619D01*
X181025070Y-71640916D01*
X181014860Y-71610106D01*
X181002002Y-71571303D01*
X181001997Y-71571295D01*
X180998950Y-71564759D01*
X180999038Y-71564717D01*
X180996070Y-71558586D01*
X180995983Y-71558631D01*
X180992746Y-71552187D01*
X180992744Y-71552180D01*
X180952435Y-71490892D01*
X180951466Y-71489371D01*
X180933353Y-71460005D01*
X180912968Y-71426956D01*
X180912964Y-71426952D01*
X180908490Y-71421293D01*
X180908566Y-71421232D01*
X180904267Y-71415954D01*
X180904193Y-71416017D01*
X180899550Y-71410484D01*
X180846194Y-71360145D01*
X180844934Y-71358922D01*
X178872236Y-69386225D01*
X178838752Y-69324903D01*
X178839713Y-69268104D01*
X178865105Y-69167833D01*
X178865107Y-69167824D01*
X178865108Y-69167821D01*
X178885643Y-68920000D01*
X178867958Y-68706575D01*
X178865109Y-68672187D01*
X178865107Y-68672175D01*
X178804063Y-68431118D01*
X178704173Y-68203393D01*
X178568166Y-67995217D01*
X178546557Y-67971744D01*
X178399744Y-67812262D01*
X178203509Y-67659526D01*
X178203507Y-67659525D01*
X178203506Y-67659524D01*
X177984811Y-67541172D01*
X177984802Y-67541169D01*
X177749616Y-67460429D01*
X177504335Y-67419500D01*
X177255665Y-67419500D01*
X177010383Y-67460429D01*
X176775197Y-67541169D01*
X176775188Y-67541172D01*
X176556493Y-67659524D01*
X176360257Y-67812261D01*
X176191833Y-67995217D01*
X176055826Y-68203393D01*
X175955936Y-68431118D01*
X175894892Y-68672175D01*
X175894890Y-68672187D01*
X175874357Y-68919994D01*
X175874357Y-68920005D01*
X175894890Y-69167812D01*
X175894892Y-69167824D01*
X175955936Y-69408881D01*
X176055826Y-69636606D01*
X176191833Y-69844782D01*
X176191836Y-69844785D01*
X176360256Y-70027738D01*
X176360259Y-70027740D01*
X176360262Y-70027743D01*
X176463743Y-70108286D01*
X176504556Y-70164996D01*
X176511343Y-70213823D01*
X176509941Y-70236389D01*
X177238634Y-70965081D01*
X177234839Y-70965627D01*
X177101438Y-71026549D01*
X176990605Y-71122587D01*
X176911318Y-71245960D01*
X176888867Y-71322419D01*
X176156564Y-70590116D01*
X176056267Y-70743632D01*
X175956412Y-70971282D01*
X175895387Y-71212261D01*
X175895385Y-71212270D01*
X175874859Y-71459994D01*
X175874859Y-71460005D01*
X175895385Y-71707729D01*
X175895387Y-71707738D01*
X175956412Y-71948717D01*
X176056266Y-72176364D01*
X176156564Y-72329882D01*
X176888866Y-71597580D01*
X176911318Y-71674040D01*
X176990605Y-71797413D01*
X177101438Y-71893451D01*
X177234839Y-71954373D01*
X177238634Y-71954918D01*
X176509942Y-72683609D01*
X176511343Y-72706177D01*
X176495850Y-72774307D01*
X176463744Y-72811713D01*
X176360258Y-72892260D01*
X176191833Y-73075217D01*
X176055826Y-73283393D01*
X175955936Y-73511118D01*
X175894892Y-73752175D01*
X175894890Y-73752187D01*
X175874357Y-73999994D01*
X175874357Y-74000005D01*
X175894890Y-74247812D01*
X175894892Y-74247824D01*
X175955936Y-74488881D01*
X176055826Y-74716606D01*
X176191833Y-74924782D01*
X176205842Y-74940000D01*
X176360256Y-75107738D01*
X176443008Y-75172147D01*
X176483821Y-75228857D01*
X176487496Y-75298630D01*
X176452864Y-75359313D01*
X176443014Y-75367848D01*
X176419055Y-75386497D01*
X176360257Y-75432261D01*
X176191833Y-75615217D01*
X176055826Y-75823393D01*
X175955936Y-76051118D01*
X175894892Y-76292175D01*
X175894890Y-76292187D01*
X175874357Y-76539994D01*
X175874357Y-76540005D01*
X175894890Y-76787812D01*
X175894892Y-76787824D01*
X175955936Y-77028881D01*
X176055826Y-77256606D01*
X176191833Y-77464782D01*
X176191836Y-77464785D01*
X176360256Y-77647738D01*
X176443008Y-77712147D01*
X176483821Y-77768857D01*
X176487496Y-77838630D01*
X176452864Y-77899313D01*
X176443014Y-77907848D01*
X176384400Y-77953469D01*
X176360257Y-77972261D01*
X176191833Y-78155217D01*
X176055826Y-78363393D01*
X175955936Y-78591118D01*
X175894892Y-78832175D01*
X175894890Y-78832187D01*
X175874357Y-79079994D01*
X175874357Y-79080005D01*
X175894890Y-79327812D01*
X175894892Y-79327824D01*
X175955936Y-79568881D01*
X176055826Y-79796606D01*
X176191833Y-80004782D01*
X176191836Y-80004785D01*
X176360256Y-80187738D01*
X176443008Y-80252147D01*
X176483821Y-80308857D01*
X176487496Y-80378630D01*
X176452864Y-80439313D01*
X176443014Y-80447848D01*
X176384400Y-80493469D01*
X176360257Y-80512261D01*
X176191833Y-80695217D01*
X176055826Y-80903393D01*
X175955936Y-81131118D01*
X175894892Y-81372175D01*
X175894890Y-81372187D01*
X175874357Y-81619994D01*
X175874357Y-81620005D01*
X175894890Y-81867812D01*
X175894892Y-81867824D01*
X175955936Y-82108881D01*
X176055826Y-82336606D01*
X176191833Y-82544782D01*
X176191836Y-82544785D01*
X176360256Y-82727738D01*
X176443008Y-82792147D01*
X176483821Y-82848857D01*
X176487496Y-82918630D01*
X176452864Y-82979313D01*
X176443014Y-82987848D01*
X176410068Y-83013492D01*
X176360257Y-83052261D01*
X176191833Y-83235217D01*
X176055826Y-83443393D01*
X175955936Y-83671118D01*
X175894892Y-83912175D01*
X175894890Y-83912187D01*
X175874357Y-84159994D01*
X175874357Y-84160005D01*
X175894890Y-84407812D01*
X175894892Y-84407824D01*
X175955936Y-84648881D01*
X176055826Y-84876606D01*
X176191833Y-85084782D01*
X176191836Y-85084785D01*
X176360256Y-85267738D01*
X176443008Y-85332147D01*
X176483821Y-85388857D01*
X176487496Y-85458630D01*
X176452864Y-85519313D01*
X176443014Y-85527848D01*
X176384400Y-85573469D01*
X176360257Y-85592261D01*
X176191833Y-85775217D01*
X176055826Y-85983393D01*
X175955936Y-86211118D01*
X175894892Y-86452175D01*
X175894890Y-86452187D01*
X175874357Y-86699994D01*
X175874357Y-86700005D01*
X175894890Y-86947812D01*
X175894892Y-86947824D01*
X175955936Y-87188881D01*
X176055826Y-87416606D01*
X176191833Y-87624782D01*
X176224245Y-87659991D01*
X176360256Y-87807738D01*
X176443008Y-87872147D01*
X176483821Y-87928857D01*
X176487496Y-87998630D01*
X176452864Y-88059313D01*
X176443014Y-88067848D01*
X176384400Y-88113469D01*
X176360257Y-88132261D01*
X176191833Y-88315217D01*
X176055826Y-88523393D01*
X175955936Y-88751118D01*
X175894892Y-88992175D01*
X175894890Y-88992187D01*
X175874357Y-89239994D01*
X175874357Y-89240005D01*
X175894890Y-89487812D01*
X175894892Y-89487824D01*
X175955936Y-89728881D01*
X176055826Y-89956606D01*
X176191833Y-90164782D01*
X176191836Y-90164785D01*
X176360256Y-90347738D01*
X176443008Y-90412147D01*
X176483821Y-90468857D01*
X176487496Y-90538630D01*
X176452864Y-90599313D01*
X176443014Y-90607848D01*
X176384400Y-90653469D01*
X176360257Y-90672261D01*
X176191833Y-90855217D01*
X176055826Y-91063393D01*
X175955936Y-91291118D01*
X175894892Y-91532175D01*
X175894890Y-91532187D01*
X175874357Y-91779994D01*
X175874357Y-91780005D01*
X175894890Y-92027812D01*
X175894892Y-92027824D01*
X175955936Y-92268881D01*
X176055826Y-92496606D01*
X176191833Y-92704782D01*
X176191836Y-92704785D01*
X176360256Y-92887738D01*
X176443008Y-92952147D01*
X176483821Y-93008857D01*
X176487496Y-93078630D01*
X176452864Y-93139313D01*
X176443014Y-93147848D01*
X176386457Y-93191869D01*
X176360257Y-93212261D01*
X176191833Y-93395217D01*
X176055826Y-93603393D01*
X175955936Y-93831118D01*
X175894892Y-94072175D01*
X175894890Y-94072187D01*
X175874357Y-94319994D01*
X175874357Y-94320005D01*
X175894890Y-94567812D01*
X175894892Y-94567824D01*
X175955936Y-94808881D01*
X176055826Y-95036606D01*
X176191833Y-95244782D01*
X176191836Y-95244785D01*
X176360256Y-95427738D01*
X176443008Y-95492147D01*
X176483821Y-95548857D01*
X176487496Y-95618630D01*
X176452864Y-95679313D01*
X176443014Y-95687848D01*
X176401706Y-95720000D01*
X176360257Y-95752261D01*
X176191833Y-95935217D01*
X176055826Y-96143393D01*
X175955936Y-96371118D01*
X175894892Y-96612175D01*
X175894890Y-96612187D01*
X175874357Y-96859994D01*
X175874357Y-96860005D01*
X175894890Y-97107812D01*
X175894892Y-97107824D01*
X175955936Y-97348881D01*
X176055826Y-97576606D01*
X176191833Y-97784782D01*
X176191836Y-97784785D01*
X176360256Y-97967738D01*
X176443008Y-98032147D01*
X176483821Y-98088857D01*
X176487496Y-98158630D01*
X176452864Y-98219313D01*
X176443014Y-98227848D01*
X176384400Y-98273469D01*
X176360257Y-98292261D01*
X176191833Y-98475217D01*
X176055826Y-98683393D01*
X175955936Y-98911118D01*
X175894892Y-99152175D01*
X175894890Y-99152187D01*
X175874357Y-99399994D01*
X175874357Y-99400005D01*
X175894890Y-99647812D01*
X175894892Y-99647824D01*
X175955936Y-99888881D01*
X176055826Y-100116606D01*
X176191833Y-100324782D01*
X176191836Y-100324785D01*
X176360256Y-100507738D01*
X176443008Y-100572146D01*
X176483820Y-100628856D01*
X176487495Y-100698629D01*
X176452864Y-100759312D01*
X176443009Y-100767852D01*
X176360255Y-100832262D01*
X176191833Y-101015217D01*
X176055826Y-101223393D01*
X175955936Y-101451118D01*
X175894892Y-101692175D01*
X175894890Y-101692187D01*
X175874357Y-101939994D01*
X175874357Y-101940005D01*
X175894890Y-102187812D01*
X175894892Y-102187824D01*
X175955936Y-102428881D01*
X176055826Y-102656606D01*
X176191833Y-102864782D01*
X176191836Y-102864785D01*
X176360256Y-103047738D01*
X176443008Y-103112147D01*
X176483821Y-103168857D01*
X176487496Y-103238630D01*
X176452864Y-103299313D01*
X176443014Y-103307848D01*
X176384400Y-103353469D01*
X176360257Y-103372261D01*
X176191833Y-103555217D01*
X176055826Y-103763393D01*
X175955936Y-103991118D01*
X175894892Y-104232175D01*
X175894890Y-104232187D01*
X175874357Y-104479994D01*
X175874357Y-104480005D01*
X175894890Y-104727812D01*
X175894892Y-104727824D01*
X175955936Y-104968881D01*
X176055826Y-105196606D01*
X176191833Y-105404782D01*
X176191836Y-105404785D01*
X176360256Y-105587738D01*
X176556491Y-105740474D01*
X176775190Y-105858828D01*
X176830691Y-105877881D01*
X176919059Y-105908219D01*
X176976074Y-105948605D01*
X177002205Y-106013404D01*
X176989153Y-106082044D01*
X176941065Y-106132732D01*
X176878796Y-106149500D01*
X176776063Y-106149500D01*
X176509232Y-106189718D01*
X176509226Y-106189720D01*
X176251358Y-106269262D01*
X176008230Y-106386346D01*
X175785258Y-106538365D01*
X175587442Y-106721910D01*
X175419185Y-106932898D01*
X175284258Y-107166599D01*
X175284256Y-107166603D01*
X175185666Y-107417804D01*
X175185664Y-107417811D01*
X175125616Y-107680898D01*
X175105451Y-107949995D01*
X175105451Y-107950004D01*
X173460000Y-107950004D01*
X173460000Y-103420000D01*
X155770000Y-103420000D01*
X153043690Y-103420000D01*
X152999744Y-103372262D01*
X152916991Y-103307852D01*
X152876179Y-103251143D01*
X152872504Y-103181370D01*
X152907136Y-103120687D01*
X152916985Y-103112151D01*
X152999744Y-103047738D01*
X153168164Y-102864785D01*
X153304173Y-102656607D01*
X153404063Y-102428881D01*
X153465108Y-102187821D01*
X153469451Y-102135408D01*
X153485643Y-101940005D01*
X153485643Y-101939994D01*
X153465109Y-101692187D01*
X153465107Y-101692175D01*
X153404063Y-101451118D01*
X153304173Y-101223393D01*
X153168166Y-101015217D01*
X153146557Y-100991744D01*
X152999744Y-100832262D01*
X152916991Y-100767852D01*
X152876179Y-100711143D01*
X152872504Y-100641370D01*
X152907136Y-100580687D01*
X152916985Y-100572151D01*
X152999744Y-100507738D01*
X153168164Y-100324785D01*
X153304173Y-100116607D01*
X153404063Y-99888881D01*
X153465108Y-99647821D01*
X153468242Y-99610000D01*
X153485643Y-99400005D01*
X153485643Y-99399994D01*
X153465109Y-99152187D01*
X153465107Y-99152175D01*
X153404063Y-98911118D01*
X153304173Y-98683393D01*
X153168166Y-98475217D01*
X153131468Y-98435353D01*
X152999744Y-98292262D01*
X152916991Y-98227852D01*
X152876179Y-98171143D01*
X152872504Y-98101370D01*
X152907136Y-98040687D01*
X152916985Y-98032151D01*
X152999744Y-97967738D01*
X153168164Y-97784785D01*
X153304173Y-97576607D01*
X153404063Y-97348881D01*
X153465108Y-97107821D01*
X153485643Y-96860000D01*
X153465108Y-96612179D01*
X153404063Y-96371119D01*
X153354490Y-96258105D01*
X153304173Y-96143393D01*
X153168166Y-95935217D01*
X153073456Y-95832335D01*
X152999744Y-95752262D01*
X152916991Y-95687852D01*
X152876179Y-95631143D01*
X152872504Y-95561370D01*
X152907136Y-95500687D01*
X152916985Y-95492151D01*
X152999744Y-95427738D01*
X153168164Y-95244785D01*
X153304173Y-95036607D01*
X153404063Y-94808881D01*
X153465108Y-94567821D01*
X153473917Y-94461512D01*
X153485643Y-94320005D01*
X153485643Y-94319994D01*
X153465109Y-94072187D01*
X153465107Y-94072175D01*
X153404063Y-93831118D01*
X153304173Y-93603393D01*
X153168166Y-93395217D01*
X153116449Y-93339038D01*
X152999744Y-93212262D01*
X152972525Y-93191077D01*
X152916991Y-93147852D01*
X152876178Y-93091141D01*
X152872505Y-93021368D01*
X152907136Y-92960685D01*
X152916974Y-92952160D01*
X152999744Y-92887738D01*
X153168164Y-92704785D01*
X153304173Y-92496607D01*
X153404063Y-92268881D01*
X153465108Y-92027821D01*
X153470347Y-91964596D01*
X153485643Y-91780005D01*
X153485643Y-91779994D01*
X153465109Y-91532187D01*
X153465107Y-91532175D01*
X153404063Y-91291118D01*
X153304173Y-91063393D01*
X153168166Y-90855217D01*
X153143220Y-90828119D01*
X152999744Y-90672262D01*
X152972525Y-90651077D01*
X152916991Y-90607852D01*
X152876178Y-90551141D01*
X152872505Y-90481368D01*
X152907136Y-90420685D01*
X152916974Y-90412160D01*
X152999744Y-90347738D01*
X153168164Y-90164785D01*
X153304173Y-89956607D01*
X153404063Y-89728881D01*
X153465108Y-89487821D01*
X153468229Y-89450156D01*
X153485643Y-89240005D01*
X153485643Y-89239994D01*
X153465109Y-88992187D01*
X153465107Y-88992175D01*
X153404063Y-88751118D01*
X153304173Y-88523393D01*
X153168166Y-88315217D01*
X153147860Y-88293159D01*
X152999744Y-88132262D01*
X152972525Y-88111077D01*
X152916991Y-88067852D01*
X152876178Y-88011141D01*
X152872505Y-87941368D01*
X152907136Y-87880685D01*
X152916974Y-87872160D01*
X152999744Y-87807738D01*
X153168164Y-87624785D01*
X153304173Y-87416607D01*
X153404063Y-87188881D01*
X153465108Y-86947821D01*
X153472412Y-86859680D01*
X153485643Y-86700005D01*
X153485643Y-86699994D01*
X153465109Y-86452187D01*
X153465107Y-86452175D01*
X153404063Y-86211118D01*
X153304173Y-85983393D01*
X153168166Y-85775217D01*
X153146557Y-85751744D01*
X152999744Y-85592262D01*
X152916991Y-85527852D01*
X152876179Y-85471143D01*
X152872504Y-85401370D01*
X152907136Y-85340687D01*
X152916985Y-85332151D01*
X152999744Y-85267738D01*
X153168164Y-85084785D01*
X153304173Y-84876607D01*
X153404063Y-84648881D01*
X153465108Y-84407821D01*
X153474154Y-84298655D01*
X153485643Y-84160005D01*
X153485643Y-84159994D01*
X153465109Y-83912187D01*
X153465107Y-83912175D01*
X153404063Y-83671118D01*
X153304173Y-83443393D01*
X153168166Y-83235217D01*
X153096319Y-83157171D01*
X152999744Y-83052262D01*
X152916991Y-82987852D01*
X152876179Y-82931143D01*
X152872504Y-82861370D01*
X152907136Y-82800687D01*
X152916985Y-82792151D01*
X152999744Y-82727738D01*
X153168164Y-82544785D01*
X153304173Y-82336607D01*
X153315844Y-82309999D01*
X160021127Y-82309999D01*
X160021128Y-82310000D01*
X160984314Y-82310000D01*
X160972359Y-82321955D01*
X160914835Y-82434852D01*
X160895014Y-82560000D01*
X160914835Y-82685148D01*
X160972359Y-82798045D01*
X160984314Y-82810000D01*
X160021128Y-82810000D01*
X160073730Y-83006317D01*
X160073734Y-83006326D01*
X160169865Y-83212482D01*
X160300342Y-83398820D01*
X160461179Y-83559657D01*
X160647517Y-83690134D01*
X160853673Y-83786265D01*
X160853682Y-83786269D01*
X161049999Y-83838872D01*
X161050000Y-83838871D01*
X161050000Y-82875686D01*
X161061955Y-82887641D01*
X161174852Y-82945165D01*
X161268519Y-82960000D01*
X161331481Y-82960000D01*
X161425148Y-82945165D01*
X161538045Y-82887641D01*
X161550000Y-82875686D01*
X161550000Y-83838872D01*
X161746317Y-83786269D01*
X161746326Y-83786265D01*
X161952482Y-83690134D01*
X162138820Y-83559657D01*
X162299657Y-83398820D01*
X162430132Y-83212484D01*
X162457341Y-83154134D01*
X162503513Y-83101695D01*
X162570707Y-83082542D01*
X162637588Y-83102757D01*
X162682105Y-83154132D01*
X162704088Y-83201275D01*
X162709431Y-83212732D01*
X162709432Y-83212734D01*
X162839954Y-83399141D01*
X163000858Y-83560045D01*
X163000861Y-83560047D01*
X163187266Y-83690568D01*
X163393504Y-83786739D01*
X163393509Y-83786740D01*
X163393511Y-83786741D01*
X163446415Y-83800916D01*
X163613308Y-83845635D01*
X163775230Y-83859801D01*
X163839998Y-83865468D01*
X163840000Y-83865468D01*
X163840002Y-83865468D01*
X163896673Y-83860509D01*
X164066692Y-83845635D01*
X164286496Y-83786739D01*
X164492734Y-83690568D01*
X164679139Y-83560047D01*
X164840047Y-83399139D01*
X164970568Y-83212734D01*
X164997618Y-83154724D01*
X165043790Y-83102285D01*
X165110983Y-83083133D01*
X165177865Y-83103348D01*
X165222381Y-83154724D01*
X165236517Y-83185038D01*
X165249429Y-83212728D01*
X165249432Y-83212734D01*
X165379954Y-83399141D01*
X165540858Y-83560045D01*
X165540861Y-83560047D01*
X165727266Y-83690568D01*
X165933504Y-83786739D01*
X165933509Y-83786740D01*
X165933511Y-83786741D01*
X165986415Y-83800916D01*
X166153308Y-83845635D01*
X166315230Y-83859801D01*
X166379998Y-83865468D01*
X166380000Y-83865468D01*
X166380002Y-83865468D01*
X166436673Y-83860509D01*
X166606692Y-83845635D01*
X166826496Y-83786739D01*
X167032734Y-83690568D01*
X167219139Y-83560047D01*
X167380047Y-83399139D01*
X167510568Y-83212734D01*
X167537895Y-83154129D01*
X167584064Y-83101695D01*
X167651257Y-83082542D01*
X167718139Y-83102757D01*
X167762657Y-83154133D01*
X167789865Y-83212482D01*
X167920342Y-83398820D01*
X168081179Y-83559657D01*
X168267517Y-83690134D01*
X168473673Y-83786265D01*
X168473682Y-83786269D01*
X168669999Y-83838872D01*
X168670000Y-83838871D01*
X168670000Y-82875686D01*
X168681955Y-82887641D01*
X168794852Y-82945165D01*
X168888519Y-82960000D01*
X168951481Y-82960000D01*
X169045148Y-82945165D01*
X169158045Y-82887641D01*
X169170000Y-82875686D01*
X169170000Y-83838872D01*
X169366317Y-83786269D01*
X169366326Y-83786265D01*
X169572482Y-83690134D01*
X169758820Y-83559657D01*
X169919657Y-83398820D01*
X170050134Y-83212482D01*
X170146265Y-83006326D01*
X170146269Y-83006317D01*
X170198872Y-82810000D01*
X169235686Y-82810000D01*
X169247641Y-82798045D01*
X169305165Y-82685148D01*
X169324986Y-82560000D01*
X169305165Y-82434852D01*
X169247641Y-82321955D01*
X169235686Y-82310000D01*
X170198872Y-82310000D01*
X170198872Y-82309999D01*
X170146269Y-82113682D01*
X170146265Y-82113673D01*
X170050134Y-81907517D01*
X169919657Y-81721179D01*
X169758820Y-81560342D01*
X169572482Y-81429865D01*
X169366328Y-81333734D01*
X169170000Y-81281127D01*
X169170000Y-82244314D01*
X169158045Y-82232359D01*
X169045148Y-82174835D01*
X168951481Y-82160000D01*
X168888519Y-82160000D01*
X168794852Y-82174835D01*
X168681955Y-82232359D01*
X168670000Y-82244314D01*
X168670000Y-81281127D01*
X168473671Y-81333734D01*
X168267517Y-81429865D01*
X168081179Y-81560342D01*
X167920342Y-81721179D01*
X167789867Y-81907515D01*
X167762657Y-81965867D01*
X167716484Y-82018306D01*
X167649290Y-82037457D01*
X167582409Y-82017241D01*
X167537893Y-81965865D01*
X167510685Y-81907518D01*
X167510568Y-81907266D01*
X167380047Y-81720861D01*
X167380045Y-81720858D01*
X167219141Y-81559954D01*
X167032734Y-81429432D01*
X167032732Y-81429431D01*
X166826497Y-81333261D01*
X166826488Y-81333258D01*
X166606697Y-81274366D01*
X166606693Y-81274365D01*
X166606692Y-81274365D01*
X166606691Y-81274364D01*
X166606686Y-81274364D01*
X166380002Y-81254532D01*
X166379998Y-81254532D01*
X166153313Y-81274364D01*
X166153302Y-81274366D01*
X165933511Y-81333258D01*
X165933502Y-81333261D01*
X165727267Y-81429431D01*
X165727265Y-81429432D01*
X165540858Y-81559954D01*
X165379954Y-81720858D01*
X165249432Y-81907265D01*
X165249431Y-81907267D01*
X165222382Y-81965275D01*
X165176209Y-82017714D01*
X165109016Y-82036866D01*
X165042135Y-82016650D01*
X164997618Y-81965275D01*
X164970686Y-81907520D01*
X164970568Y-81907266D01*
X164840047Y-81720861D01*
X164840045Y-81720858D01*
X164679141Y-81559954D01*
X164492734Y-81429432D01*
X164492732Y-81429431D01*
X164286497Y-81333261D01*
X164286488Y-81333258D01*
X164066697Y-81274366D01*
X164066693Y-81274365D01*
X164066692Y-81274365D01*
X164066691Y-81274364D01*
X164066686Y-81274364D01*
X163840002Y-81254532D01*
X163839998Y-81254532D01*
X163613313Y-81274364D01*
X163613302Y-81274366D01*
X163393511Y-81333258D01*
X163393502Y-81333261D01*
X163187267Y-81429431D01*
X163187265Y-81429432D01*
X163000858Y-81559954D01*
X162839954Y-81720858D01*
X162709433Y-81907264D01*
X162709432Y-81907266D01*
X162709315Y-81907518D01*
X162682106Y-81965867D01*
X162635933Y-82018306D01*
X162568739Y-82037457D01*
X162501858Y-82017241D01*
X162457342Y-81965865D01*
X162430135Y-81907520D01*
X162430134Y-81907518D01*
X162299657Y-81721179D01*
X162138820Y-81560342D01*
X161952482Y-81429865D01*
X161746328Y-81333734D01*
X161550000Y-81281127D01*
X161550000Y-82244314D01*
X161538045Y-82232359D01*
X161425148Y-82174835D01*
X161331481Y-82160000D01*
X161268519Y-82160000D01*
X161174852Y-82174835D01*
X161061955Y-82232359D01*
X161050000Y-82244313D01*
X161050000Y-81281127D01*
X160853671Y-81333734D01*
X160647517Y-81429865D01*
X160461179Y-81560342D01*
X160300342Y-81721179D01*
X160169865Y-81907517D01*
X160073734Y-82113673D01*
X160073730Y-82113682D01*
X160021127Y-82309999D01*
X153315844Y-82309999D01*
X153404063Y-82108881D01*
X153465108Y-81867821D01*
X153477259Y-81721179D01*
X153485643Y-81620005D01*
X153485643Y-81619994D01*
X153465109Y-81372187D01*
X153465107Y-81372175D01*
X153404063Y-81131118D01*
X153304173Y-80903393D01*
X153168166Y-80695217D01*
X153146557Y-80671744D01*
X152999744Y-80512262D01*
X152916991Y-80447852D01*
X152876179Y-80391143D01*
X152872504Y-80321370D01*
X152907136Y-80260687D01*
X152916985Y-80252151D01*
X152999744Y-80187738D01*
X153168164Y-80004785D01*
X153304173Y-79796607D01*
X153404063Y-79568881D01*
X153465108Y-79327821D01*
X153485643Y-79080000D01*
X153465108Y-78832179D01*
X153404063Y-78591119D01*
X153304173Y-78363393D01*
X153304172Y-78363393D01*
X153168166Y-78155217D01*
X153146557Y-78131744D01*
X152999744Y-77972262D01*
X152916991Y-77907852D01*
X152876179Y-77851143D01*
X152872504Y-77781370D01*
X152907136Y-77720687D01*
X152916985Y-77712151D01*
X152999744Y-77647738D01*
X153168164Y-77464785D01*
X153304173Y-77256607D01*
X153404063Y-77028881D01*
X153465108Y-76787821D01*
X153467203Y-76762542D01*
X153485643Y-76540005D01*
X153485643Y-76539994D01*
X153465109Y-76292187D01*
X153465107Y-76292175D01*
X153404063Y-76051118D01*
X153304173Y-75823393D01*
X153280965Y-75787870D01*
X159999500Y-75787870D01*
X159999501Y-75787876D01*
X160005908Y-75847483D01*
X160056202Y-75982328D01*
X160056206Y-75982335D01*
X160142452Y-76097544D01*
X160142455Y-76097547D01*
X160257664Y-76183793D01*
X160257671Y-76183797D01*
X160392517Y-76234091D01*
X160392516Y-76234091D01*
X160399444Y-76234835D01*
X160452127Y-76240500D01*
X162147872Y-76240499D01*
X162207483Y-76234091D01*
X162342331Y-76183796D01*
X162457546Y-76097546D01*
X162543796Y-75982331D01*
X162594091Y-75847483D01*
X162597862Y-75812401D01*
X162624599Y-75747855D01*
X162681990Y-75708006D01*
X162751816Y-75705511D01*
X162811905Y-75741163D01*
X162822726Y-75754536D01*
X162839956Y-75779143D01*
X163000858Y-75940045D01*
X163000861Y-75940047D01*
X163187266Y-76070568D01*
X163393504Y-76166739D01*
X163613308Y-76225635D01*
X163775230Y-76239801D01*
X163839998Y-76245468D01*
X163840000Y-76245468D01*
X163840002Y-76245468D01*
X163896807Y-76240498D01*
X164066692Y-76225635D01*
X164286496Y-76166739D01*
X164492734Y-76070568D01*
X164679139Y-75940047D01*
X164840047Y-75779139D01*
X164970568Y-75592734D01*
X164997618Y-75534724D01*
X165043790Y-75482285D01*
X165110983Y-75463133D01*
X165177865Y-75483348D01*
X165222382Y-75534725D01*
X165249429Y-75592728D01*
X165249432Y-75592734D01*
X165379954Y-75779141D01*
X165540858Y-75940045D01*
X165540861Y-75940047D01*
X165727266Y-76070568D01*
X165933504Y-76166739D01*
X166153308Y-76225635D01*
X166315230Y-76239801D01*
X166379998Y-76245468D01*
X166380000Y-76245468D01*
X166380002Y-76245468D01*
X166436807Y-76240498D01*
X166606692Y-76225635D01*
X166826496Y-76166739D01*
X167032734Y-76070568D01*
X167219139Y-75940047D01*
X167380047Y-75779139D01*
X167510568Y-75592734D01*
X167537618Y-75534724D01*
X167583790Y-75482285D01*
X167650983Y-75463133D01*
X167717865Y-75483348D01*
X167762382Y-75534725D01*
X167789429Y-75592728D01*
X167789432Y-75592734D01*
X167919954Y-75779141D01*
X168080858Y-75940045D01*
X168080861Y-75940047D01*
X168267266Y-76070568D01*
X168473504Y-76166739D01*
X168693308Y-76225635D01*
X168855230Y-76239801D01*
X168919998Y-76245468D01*
X168920000Y-76245468D01*
X168920002Y-76245468D01*
X168976807Y-76240498D01*
X169146692Y-76225635D01*
X169366496Y-76166739D01*
X169572734Y-76070568D01*
X169759139Y-75940047D01*
X169920047Y-75779139D01*
X170050568Y-75592734D01*
X170146739Y-75386496D01*
X170205635Y-75166692D01*
X170225468Y-74940000D01*
X170222734Y-74908755D01*
X170214560Y-74815318D01*
X170205635Y-74713308D01*
X170146739Y-74493504D01*
X170050568Y-74287266D01*
X169920047Y-74100861D01*
X169920045Y-74100858D01*
X169759141Y-73939954D01*
X169572734Y-73809432D01*
X169572732Y-73809431D01*
X169366497Y-73713261D01*
X169366488Y-73713258D01*
X169146697Y-73654366D01*
X169146693Y-73654365D01*
X169146692Y-73654365D01*
X169146691Y-73654364D01*
X169146686Y-73654364D01*
X168920002Y-73634532D01*
X168919998Y-73634532D01*
X168693313Y-73654364D01*
X168693302Y-73654366D01*
X168473511Y-73713258D01*
X168473502Y-73713261D01*
X168267267Y-73809431D01*
X168267265Y-73809432D01*
X168080858Y-73939954D01*
X167919954Y-74100858D01*
X167789432Y-74287265D01*
X167789431Y-74287267D01*
X167770310Y-74328272D01*
X167765854Y-74337830D01*
X167762382Y-74345275D01*
X167716209Y-74397714D01*
X167649016Y-74416866D01*
X167582135Y-74396650D01*
X167537618Y-74345275D01*
X167534148Y-74337834D01*
X167510568Y-74287266D01*
X167380047Y-74100861D01*
X167380045Y-74100858D01*
X167219141Y-73939954D01*
X167032734Y-73809432D01*
X167032732Y-73809431D01*
X166826497Y-73713261D01*
X166826488Y-73713258D01*
X166606697Y-73654366D01*
X166606693Y-73654365D01*
X166606692Y-73654365D01*
X166606691Y-73654364D01*
X166606686Y-73654364D01*
X166380002Y-73634532D01*
X166379998Y-73634532D01*
X166153313Y-73654364D01*
X166153302Y-73654366D01*
X165933511Y-73713258D01*
X165933502Y-73713261D01*
X165727267Y-73809431D01*
X165727265Y-73809432D01*
X165540858Y-73939954D01*
X165379954Y-74100858D01*
X165249432Y-74287265D01*
X165249431Y-74287267D01*
X165230310Y-74328272D01*
X165225854Y-74337830D01*
X165222382Y-74345275D01*
X165176209Y-74397714D01*
X165109016Y-74416866D01*
X165042135Y-74396650D01*
X164997618Y-74345275D01*
X164994148Y-74337834D01*
X164970568Y-74287266D01*
X164840047Y-74100861D01*
X164840045Y-74100858D01*
X164679141Y-73939954D01*
X164492734Y-73809432D01*
X164492732Y-73809431D01*
X164286497Y-73713261D01*
X164286488Y-73713258D01*
X164066697Y-73654366D01*
X164066693Y-73654365D01*
X164066692Y-73654365D01*
X164066691Y-73654364D01*
X164066686Y-73654364D01*
X163840002Y-73634532D01*
X163839998Y-73634532D01*
X163613313Y-73654364D01*
X163613302Y-73654366D01*
X163393511Y-73713258D01*
X163393502Y-73713261D01*
X163187267Y-73809431D01*
X163187265Y-73809432D01*
X163000858Y-73939954D01*
X162839954Y-74100858D01*
X162822725Y-74125464D01*
X162768147Y-74169088D01*
X162698648Y-74176280D01*
X162636294Y-74144757D01*
X162600882Y-74084526D01*
X162597861Y-74067591D01*
X162594091Y-74032516D01*
X162543797Y-73897671D01*
X162543793Y-73897664D01*
X162457547Y-73782455D01*
X162457544Y-73782452D01*
X162342335Y-73696206D01*
X162342328Y-73696202D01*
X162207482Y-73645908D01*
X162207483Y-73645908D01*
X162147883Y-73639501D01*
X162147881Y-73639500D01*
X162147873Y-73639500D01*
X162147864Y-73639500D01*
X160452129Y-73639500D01*
X160452123Y-73639501D01*
X160392516Y-73645908D01*
X160257671Y-73696202D01*
X160257664Y-73696206D01*
X160142455Y-73782452D01*
X160142452Y-73782455D01*
X160056206Y-73897664D01*
X160056202Y-73897671D01*
X160005908Y-74032517D01*
X159999501Y-74092116D01*
X159999500Y-74092135D01*
X159999500Y-75787870D01*
X153280965Y-75787870D01*
X153168166Y-75615217D01*
X153146557Y-75591744D01*
X152999744Y-75432262D01*
X152916991Y-75367852D01*
X152876179Y-75311143D01*
X152872504Y-75241370D01*
X152907136Y-75180687D01*
X152916985Y-75172151D01*
X152999744Y-75107738D01*
X153168164Y-74924785D01*
X153304173Y-74716607D01*
X153404063Y-74488881D01*
X153465108Y-74247821D01*
X153475397Y-74123655D01*
X153485643Y-74000005D01*
X153485643Y-73999994D01*
X153465109Y-73752187D01*
X153465107Y-73752175D01*
X153404063Y-73511118D01*
X153304173Y-73283393D01*
X153168166Y-73075217D01*
X153082509Y-72982169D01*
X152999744Y-72892262D01*
X152896253Y-72811712D01*
X152855442Y-72755003D01*
X152848655Y-72706176D01*
X152850056Y-72683609D01*
X152121365Y-71954918D01*
X152125161Y-71954373D01*
X152258562Y-71893451D01*
X152369395Y-71797413D01*
X152448682Y-71674040D01*
X152471132Y-71597580D01*
X153203434Y-72329882D01*
X153303731Y-72176369D01*
X153403587Y-71948717D01*
X153464612Y-71707738D01*
X153464614Y-71707729D01*
X153485141Y-71460005D01*
X153485141Y-71459994D01*
X153464614Y-71212270D01*
X153464612Y-71212261D01*
X153403587Y-70971282D01*
X153303733Y-70743635D01*
X153172817Y-70543252D01*
X153152630Y-70476362D01*
X153171810Y-70409176D01*
X153217203Y-70366595D01*
X153222321Y-70363799D01*
X153222331Y-70363796D01*
X153337546Y-70277546D01*
X153423796Y-70162331D01*
X153474091Y-70027483D01*
X153480500Y-69967873D01*
X153480499Y-67872128D01*
X153474091Y-67812517D01*
X153468924Y-67798664D01*
X153423797Y-67677671D01*
X153423793Y-67677664D01*
X153337547Y-67562455D01*
X153337544Y-67562452D01*
X153222335Y-67476206D01*
X153222328Y-67476202D01*
X153087482Y-67425908D01*
X153087483Y-67425908D01*
X153027883Y-67419501D01*
X153027881Y-67419500D01*
X153027873Y-67419500D01*
X153027864Y-67419500D01*
X150932129Y-67419500D01*
X150932123Y-67419501D01*
X150872516Y-67425908D01*
X150737671Y-67476202D01*
X150737664Y-67476206D01*
X150622455Y-67562452D01*
X150622452Y-67562455D01*
X150536206Y-67677664D01*
X150536202Y-67677671D01*
X150485908Y-67812517D01*
X150479501Y-67872116D01*
X150479501Y-67872123D01*
X150479500Y-67872135D01*
X150479500Y-68070500D01*
X150459815Y-68137539D01*
X150407011Y-68183294D01*
X150355500Y-68194500D01*
X147656887Y-68194500D01*
X147638918Y-68193191D01*
X147616239Y-68189869D01*
X147593413Y-68191866D01*
X147575403Y-68192128D01*
X147552534Y-68190796D01*
X147552527Y-68190797D01*
X147531526Y-68194500D01*
X147502884Y-68199549D01*
X147497527Y-68200255D01*
X147447290Y-68204650D01*
X147440223Y-68206110D01*
X147440203Y-68206017D01*
X147433543Y-68207493D01*
X147433566Y-68207587D01*
X147426546Y-68209250D01*
X147416689Y-68212837D01*
X147395834Y-68218425D01*
X147385514Y-68220245D01*
X147385505Y-68220248D01*
X147339204Y-68240218D01*
X147334151Y-68242141D01*
X147286300Y-68257999D01*
X147279753Y-68261052D01*
X147279712Y-68260965D01*
X147273584Y-68263932D01*
X147273628Y-68264018D01*
X147267180Y-68267256D01*
X147258418Y-68273018D01*
X147239413Y-68283265D01*
X147229783Y-68287419D01*
X147229779Y-68287422D01*
X147189335Y-68317529D01*
X147184861Y-68320566D01*
X147141961Y-68347028D01*
X147136289Y-68351513D01*
X147136229Y-68351438D01*
X147130947Y-68355741D01*
X147131009Y-68355814D01*
X147125486Y-68360447D01*
X147118290Y-68368075D01*
X147102153Y-68382435D01*
X147093744Y-68388696D01*
X147093739Y-68388699D01*
X147061332Y-68427321D01*
X147057677Y-68431310D01*
X145656429Y-69832557D01*
X145595106Y-69866042D01*
X145525414Y-69861058D01*
X145469481Y-69819186D01*
X145445220Y-69755684D01*
X145435063Y-69639596D01*
X145435063Y-69639592D01*
X145373903Y-69411337D01*
X145274035Y-69197171D01*
X145253493Y-69167833D01*
X145138494Y-69003597D01*
X144971402Y-68836506D01*
X144971396Y-68836501D01*
X144785842Y-68706575D01*
X144742217Y-68651998D01*
X144735023Y-68582500D01*
X144766546Y-68520145D01*
X144785842Y-68503425D01*
X144808026Y-68487891D01*
X144971401Y-68373495D01*
X145138495Y-68206401D01*
X145274035Y-68012830D01*
X145373903Y-67798663D01*
X145435063Y-67570408D01*
X145455659Y-67335000D01*
X145435063Y-67099592D01*
X145373903Y-66871337D01*
X145274035Y-66657171D01*
X145138495Y-66463599D01*
X145138494Y-66463597D01*
X144971402Y-66296506D01*
X144971401Y-66296505D01*
X144785405Y-66166269D01*
X144741781Y-66111692D01*
X144734588Y-66042193D01*
X144766110Y-65979839D01*
X144785405Y-65963119D01*
X144971082Y-65833105D01*
X145138105Y-65666082D01*
X145273600Y-65472578D01*
X145373429Y-65258492D01*
X145373432Y-65258486D01*
X145430636Y-65045000D01*
X144533686Y-65045000D01*
X144559493Y-65004844D01*
X144600000Y-64866889D01*
X144600000Y-64723111D01*
X144559493Y-64585156D01*
X144533686Y-64545000D01*
X145430636Y-64545000D01*
X145430635Y-64544999D01*
X145373432Y-64331513D01*
X145373429Y-64331507D01*
X145273600Y-64117422D01*
X145273599Y-64117420D01*
X145138113Y-63923926D01*
X145138108Y-63923920D01*
X145016053Y-63801865D01*
X144982568Y-63740542D01*
X144987552Y-63670850D01*
X145029424Y-63614917D01*
X145060400Y-63598002D01*
X145192331Y-63548796D01*
X145307546Y-63462546D01*
X145393796Y-63347331D01*
X145444091Y-63212483D01*
X145450500Y-63152873D01*
X145450499Y-61357128D01*
X145444091Y-61297517D01*
X145418574Y-61229103D01*
X145393797Y-61162671D01*
X145393793Y-61162664D01*
X145307547Y-61047455D01*
X145307544Y-61047452D01*
X145192335Y-60961206D01*
X145192328Y-60961202D01*
X145189116Y-60960004D01*
X150594451Y-60960004D01*
X150614616Y-61229101D01*
X150643838Y-61357129D01*
X150674666Y-61492195D01*
X150773257Y-61743398D01*
X150908185Y-61977102D01*
X151044080Y-62147509D01*
X151076442Y-62188089D01*
X151263183Y-62361358D01*
X151274259Y-62371635D01*
X151497226Y-62523651D01*
X151740359Y-62640738D01*
X151998228Y-62720280D01*
X151998229Y-62720280D01*
X151998232Y-62720281D01*
X152265063Y-62760499D01*
X152265068Y-62760499D01*
X152265071Y-62760500D01*
X152265072Y-62760500D01*
X152534928Y-62760500D01*
X152534929Y-62760500D01*
X152574949Y-62754468D01*
X152801767Y-62720281D01*
X152801768Y-62720280D01*
X152801772Y-62720280D01*
X153059641Y-62640738D01*
X153302775Y-62523651D01*
X153525741Y-62371635D01*
X153723561Y-62188085D01*
X153891815Y-61977102D01*
X154026743Y-61743398D01*
X154125334Y-61492195D01*
X154185383Y-61229103D01*
X154198995Y-61047455D01*
X154205549Y-60960004D01*
X175105451Y-60960004D01*
X175125616Y-61229101D01*
X175154838Y-61357129D01*
X175185666Y-61492195D01*
X175284257Y-61743398D01*
X175419185Y-61977102D01*
X175555080Y-62147509D01*
X175587442Y-62188089D01*
X175774183Y-62361358D01*
X175785259Y-62371635D01*
X176008226Y-62523651D01*
X176251359Y-62640738D01*
X176509228Y-62720280D01*
X176509229Y-62720280D01*
X176509232Y-62720281D01*
X176776063Y-62760499D01*
X176776068Y-62760499D01*
X176776071Y-62760500D01*
X176776072Y-62760500D01*
X177045928Y-62760500D01*
X177045929Y-62760500D01*
X177085949Y-62754468D01*
X177312767Y-62720281D01*
X177312768Y-62720280D01*
X177312772Y-62720280D01*
X177570641Y-62640738D01*
X177813775Y-62523651D01*
X178036741Y-62371635D01*
X178234561Y-62188085D01*
X178402815Y-61977102D01*
X178537743Y-61743398D01*
X178636334Y-61492195D01*
X178696383Y-61229103D01*
X178709995Y-61047455D01*
X178716549Y-60960004D01*
X178716549Y-60959995D01*
X178699744Y-60735747D01*
X178696383Y-60690897D01*
X178636334Y-60427805D01*
X178537743Y-60176602D01*
X178402815Y-59942898D01*
X178234561Y-59731915D01*
X178234560Y-59731914D01*
X178234557Y-59731910D01*
X178036741Y-59548365D01*
X177979904Y-59509614D01*
X177813775Y-59396349D01*
X177813769Y-59396346D01*
X177813768Y-59396345D01*
X177813767Y-59396344D01*
X177570643Y-59279263D01*
X177570645Y-59279263D01*
X177312773Y-59199720D01*
X177312767Y-59199718D01*
X177045936Y-59159500D01*
X177045929Y-59159500D01*
X176776071Y-59159500D01*
X176776063Y-59159500D01*
X176509232Y-59199718D01*
X176509226Y-59199720D01*
X176251358Y-59279262D01*
X176008230Y-59396346D01*
X175785258Y-59548365D01*
X175587442Y-59731910D01*
X175419185Y-59942898D01*
X175284258Y-60176599D01*
X175284256Y-60176603D01*
X175185666Y-60427804D01*
X175185664Y-60427811D01*
X175125616Y-60690898D01*
X175105451Y-60959995D01*
X175105451Y-60960004D01*
X154205549Y-60960004D01*
X154205549Y-60959995D01*
X154188744Y-60735747D01*
X154185383Y-60690897D01*
X154125334Y-60427805D01*
X154026743Y-60176602D01*
X153891815Y-59942898D01*
X153723561Y-59731915D01*
X153723560Y-59731914D01*
X153723557Y-59731910D01*
X153525741Y-59548365D01*
X153468904Y-59509614D01*
X153302775Y-59396349D01*
X153302769Y-59396346D01*
X153302768Y-59396345D01*
X153302767Y-59396344D01*
X153059643Y-59279263D01*
X153059645Y-59279263D01*
X152801773Y-59199720D01*
X152801767Y-59199718D01*
X152534936Y-59159500D01*
X152534929Y-59159500D01*
X152265071Y-59159500D01*
X152265063Y-59159500D01*
X151998232Y-59199718D01*
X151998226Y-59199720D01*
X151740358Y-59279262D01*
X151497230Y-59396346D01*
X151274258Y-59548365D01*
X151076442Y-59731910D01*
X150908185Y-59942898D01*
X150773258Y-60176599D01*
X150773256Y-60176603D01*
X150674666Y-60427804D01*
X150674664Y-60427811D01*
X150614616Y-60690898D01*
X150594451Y-60959995D01*
X150594451Y-60960004D01*
X145189116Y-60960004D01*
X145057482Y-60910908D01*
X145057483Y-60910908D01*
X144997883Y-60904501D01*
X144997881Y-60904500D01*
X144997873Y-60904500D01*
X144997864Y-60904500D01*
X143202129Y-60904500D01*
X143202123Y-60904501D01*
X143142516Y-60910908D01*
X143007671Y-60961202D01*
X143007664Y-60961206D01*
X142892455Y-61047452D01*
X142892452Y-61047455D01*
X142806206Y-61162664D01*
X142806202Y-61162671D01*
X142755908Y-61297517D01*
X142750200Y-61350615D01*
X142749501Y-61357123D01*
X142749500Y-61357135D01*
X142749500Y-63152870D01*
X142749501Y-63152876D01*
X142755908Y-63212483D01*
X142806202Y-63347328D01*
X142806206Y-63347335D01*
X142892452Y-63462544D01*
X142892455Y-63462547D01*
X143007664Y-63548793D01*
X143007671Y-63548797D01*
X143007674Y-63548798D01*
X143139598Y-63598002D01*
X143195531Y-63639873D01*
X143219949Y-63705337D01*
X143205098Y-63773610D01*
X143183947Y-63801865D01*
X143061886Y-63923926D01*
X142926400Y-64117420D01*
X142926399Y-64117422D01*
X142826570Y-64331507D01*
X142826567Y-64331513D01*
X142769364Y-64544999D01*
X142769364Y-64545000D01*
X143666314Y-64545000D01*
X143640507Y-64585156D01*
X143600000Y-64723111D01*
X143600000Y-64866889D01*
X143640507Y-65004844D01*
X143666314Y-65045000D01*
X142769364Y-65045000D01*
X142826567Y-65258486D01*
X142826570Y-65258492D01*
X142926399Y-65472578D01*
X143061894Y-65666082D01*
X143228917Y-65833105D01*
X143414595Y-65963119D01*
X143458219Y-66017696D01*
X143465412Y-66087195D01*
X143433890Y-66149549D01*
X143414595Y-66166269D01*
X143228594Y-66296508D01*
X143061505Y-66463597D01*
X142925965Y-66657169D01*
X142925964Y-66657171D01*
X142826098Y-66871335D01*
X142826094Y-66871344D01*
X142764938Y-67099586D01*
X142764936Y-67099596D01*
X142744341Y-67334999D01*
X142744341Y-67335000D01*
X142764936Y-67570403D01*
X142764938Y-67570413D01*
X142826094Y-67798655D01*
X142826096Y-67798659D01*
X142826097Y-67798663D01*
X142860355Y-67872129D01*
X142925965Y-68012830D01*
X142925967Y-68012834D01*
X142966346Y-68070500D01*
X143051327Y-68191866D01*
X143061501Y-68206395D01*
X143061506Y-68206402D01*
X143228597Y-68373493D01*
X143228603Y-68373498D01*
X143414158Y-68503425D01*
X143457783Y-68558002D01*
X143464977Y-68627500D01*
X143433454Y-68689855D01*
X143414158Y-68706575D01*
X143228597Y-68836505D01*
X143061505Y-69003597D01*
X142925965Y-69197169D01*
X142925964Y-69197171D01*
X142826098Y-69411335D01*
X142826094Y-69411344D01*
X142764938Y-69639586D01*
X142764936Y-69639596D01*
X142744341Y-69874999D01*
X142744341Y-69875000D01*
X142764936Y-70110403D01*
X142764938Y-70110413D01*
X142826094Y-70338655D01*
X142826096Y-70338659D01*
X142826097Y-70338663D01*
X142874480Y-70442420D01*
X142925965Y-70552830D01*
X142925967Y-70552834D01*
X143061501Y-70746395D01*
X143061506Y-70746402D01*
X143228597Y-70913493D01*
X143228603Y-70913498D01*
X143414158Y-71043425D01*
X143457783Y-71098002D01*
X143464977Y-71167500D01*
X143433454Y-71229855D01*
X143414158Y-71246575D01*
X143228597Y-71376505D01*
X143061505Y-71543597D01*
X142925965Y-71737169D01*
X142925964Y-71737171D01*
X142826098Y-71951335D01*
X142826094Y-71951344D01*
X142764938Y-72179586D01*
X142764936Y-72179596D01*
X142744341Y-72414999D01*
X142744341Y-72415000D01*
X142764936Y-72650403D01*
X142764938Y-72650413D01*
X142826094Y-72878655D01*
X142826096Y-72878659D01*
X142826097Y-72878663D01*
X142874363Y-72982169D01*
X142925965Y-73092830D01*
X142925967Y-73092834D01*
X143061501Y-73286395D01*
X143061506Y-73286402D01*
X143228597Y-73453493D01*
X143228603Y-73453498D01*
X143414158Y-73583425D01*
X143457783Y-73638002D01*
X143464977Y-73707500D01*
X143433454Y-73769855D01*
X143414158Y-73786575D01*
X143228597Y-73916505D01*
X143061505Y-74083597D01*
X142925965Y-74277169D01*
X142925964Y-74277171D01*
X142826098Y-74491335D01*
X142826094Y-74491344D01*
X142764938Y-74719586D01*
X142764936Y-74719596D01*
X142744341Y-74954999D01*
X142744341Y-74955000D01*
X142764936Y-75190403D01*
X142764938Y-75190413D01*
X142826094Y-75418655D01*
X142826096Y-75418659D01*
X142826097Y-75418663D01*
X142880218Y-75534725D01*
X142925965Y-75632830D01*
X142925967Y-75632834D01*
X143028412Y-75779139D01*
X143061505Y-75826401D01*
X143228599Y-75993495D01*
X143310893Y-76051118D01*
X143422165Y-76129032D01*
X143422167Y-76129033D01*
X143422170Y-76129035D01*
X143636337Y-76228903D01*
X143864592Y-76290063D01*
X144052918Y-76306539D01*
X144099999Y-76310659D01*
X144100000Y-76310659D01*
X144100001Y-76310659D01*
X144139234Y-76307226D01*
X144335408Y-76290063D01*
X144563663Y-76228903D01*
X144777830Y-76129035D01*
X144971401Y-75993495D01*
X145138495Y-75826401D01*
X145274035Y-75632830D01*
X145373903Y-75418663D01*
X145435063Y-75190408D01*
X145455659Y-74955000D01*
X145454346Y-74939998D01*
X145449630Y-74886090D01*
X145435063Y-74719592D01*
X145373903Y-74491337D01*
X145274035Y-74277171D01*
X145181319Y-74144757D01*
X145138494Y-74083597D01*
X144971402Y-73916506D01*
X144971396Y-73916501D01*
X144785842Y-73786575D01*
X144742217Y-73731998D01*
X144735023Y-73662500D01*
X144766546Y-73600145D01*
X144785842Y-73583425D01*
X144889107Y-73511118D01*
X144971401Y-73453495D01*
X145138495Y-73286401D01*
X145274035Y-73092830D01*
X145373903Y-72878663D01*
X145435063Y-72650408D01*
X145455659Y-72415000D01*
X145435063Y-72179592D01*
X145435062Y-72179591D01*
X145434591Y-72174199D01*
X145435953Y-72174079D01*
X145442979Y-72111111D01*
X145469665Y-72071345D01*
X146657820Y-70883190D01*
X146719142Y-70849707D01*
X146788834Y-70854691D01*
X146844767Y-70896563D01*
X146869184Y-70962027D01*
X146869500Y-70970873D01*
X146869500Y-91088126D01*
X146849815Y-91155165D01*
X146833181Y-91175807D01*
X146090808Y-91918181D01*
X146029485Y-91951666D01*
X146003127Y-91954500D01*
X145574499Y-91954500D01*
X145507460Y-91934815D01*
X145461705Y-91882011D01*
X145450499Y-91830500D01*
X145450499Y-91782129D01*
X145450498Y-91782123D01*
X145450497Y-91782116D01*
X145444091Y-91722517D01*
X145393796Y-91587669D01*
X145393795Y-91587668D01*
X145393793Y-91587664D01*
X145307547Y-91472455D01*
X145307544Y-91472452D01*
X145192335Y-91386206D01*
X145192328Y-91386202D01*
X145057482Y-91335908D01*
X145057483Y-91335908D01*
X144997883Y-91329501D01*
X144997881Y-91329500D01*
X144997873Y-91329500D01*
X144997864Y-91329500D01*
X143202129Y-91329500D01*
X143202123Y-91329501D01*
X143142516Y-91335908D01*
X143007671Y-91386202D01*
X143007664Y-91386206D01*
X142892455Y-91472452D01*
X142892452Y-91472455D01*
X142806206Y-91587664D01*
X142806202Y-91587671D01*
X142755908Y-91722517D01*
X142749728Y-91780005D01*
X142749501Y-91782123D01*
X142749500Y-91782135D01*
X142749500Y-93577870D01*
X142749501Y-93577876D01*
X142755908Y-93637483D01*
X142806202Y-93772328D01*
X142806206Y-93772335D01*
X142892452Y-93887544D01*
X142892455Y-93887547D01*
X143007664Y-93973793D01*
X143007671Y-93973797D01*
X143007674Y-93973798D01*
X143139598Y-94023002D01*
X143195531Y-94064873D01*
X143219949Y-94130337D01*
X143205098Y-94198610D01*
X143183947Y-94226865D01*
X143061886Y-94348926D01*
X142926400Y-94542420D01*
X142926399Y-94542422D01*
X142826570Y-94756507D01*
X142826567Y-94756513D01*
X142769364Y-94969999D01*
X142769364Y-94970000D01*
X143666314Y-94970000D01*
X143640507Y-95010156D01*
X143600000Y-95148111D01*
X143600000Y-95291889D01*
X143640507Y-95429844D01*
X143666314Y-95470000D01*
X142769364Y-95470000D01*
X142826567Y-95683486D01*
X142826570Y-95683492D01*
X142926399Y-95897578D01*
X143061894Y-96091082D01*
X143228917Y-96258105D01*
X143422421Y-96393600D01*
X143636507Y-96493429D01*
X143636516Y-96493433D01*
X143850000Y-96550634D01*
X143850000Y-95655501D01*
X143957685Y-95704680D01*
X144064237Y-95720000D01*
X144135763Y-95720000D01*
X144242315Y-95704680D01*
X144350000Y-95655501D01*
X144350000Y-96550633D01*
X144563483Y-96493433D01*
X144563492Y-96493429D01*
X144777578Y-96393600D01*
X144971082Y-96258105D01*
X145138105Y-96091082D01*
X145273600Y-95897578D01*
X145373429Y-95683492D01*
X145373432Y-95683486D01*
X145430636Y-95470000D01*
X144533686Y-95470000D01*
X144559493Y-95429844D01*
X144600000Y-95291889D01*
X144600000Y-95148111D01*
X144559493Y-95010156D01*
X144533686Y-94970000D01*
X145430636Y-94970000D01*
X145430635Y-94969999D01*
X145373432Y-94756513D01*
X145373429Y-94756507D01*
X145273600Y-94542422D01*
X145273599Y-94542420D01*
X145138113Y-94348926D01*
X145138108Y-94348920D01*
X145016053Y-94226865D01*
X144982568Y-94165542D01*
X144987552Y-94095850D01*
X145029424Y-94039917D01*
X145060400Y-94023002D01*
X145192331Y-93973796D01*
X145307546Y-93887546D01*
X145393796Y-93772331D01*
X145444091Y-93637483D01*
X145450500Y-93577873D01*
X145450500Y-93529500D01*
X145470185Y-93462461D01*
X145522989Y-93416706D01*
X145574500Y-93405500D01*
X146293113Y-93405500D01*
X146311082Y-93406809D01*
X146314810Y-93407354D01*
X146333756Y-93410130D01*
X146383984Y-93405735D01*
X146389385Y-93405500D01*
X146397251Y-93405500D01*
X146397256Y-93405500D01*
X146427917Y-93401915D01*
X146429542Y-93401749D01*
X146502708Y-93395349D01*
X146502714Y-93395346D01*
X146509784Y-93393888D01*
X146509803Y-93393984D01*
X146516441Y-93392512D01*
X146516419Y-93392416D01*
X146523442Y-93390750D01*
X146523451Y-93390750D01*
X146569374Y-93374035D01*
X146592382Y-93365661D01*
X146594041Y-93365083D01*
X146663697Y-93342003D01*
X146663703Y-93341998D01*
X146670245Y-93338949D01*
X146670286Y-93339038D01*
X146676409Y-93336074D01*
X146676365Y-93335986D01*
X146689274Y-93329503D01*
X146690667Y-93332278D01*
X146744165Y-93315942D01*
X146811412Y-93334904D01*
X146857733Y-93387212D01*
X146869500Y-93439935D01*
X146869500Y-97768126D01*
X146849815Y-97835165D01*
X146833181Y-97855807D01*
X144460806Y-100228181D01*
X144399483Y-100261666D01*
X144373125Y-100264500D01*
X143202129Y-100264500D01*
X143202123Y-100264501D01*
X143142516Y-100270908D01*
X143007671Y-100321202D01*
X143007664Y-100321206D01*
X142892455Y-100407452D01*
X142892452Y-100407455D01*
X142806206Y-100522664D01*
X142806202Y-100522671D01*
X142755908Y-100657517D01*
X142749501Y-100717116D01*
X142749500Y-100717135D01*
X142749500Y-102512870D01*
X142749501Y-102512876D01*
X142755908Y-102572483D01*
X142806202Y-102707328D01*
X142806206Y-102707335D01*
X142892452Y-102822544D01*
X142892455Y-102822547D01*
X143007664Y-102908793D01*
X143007671Y-102908797D01*
X143139081Y-102957810D01*
X143195015Y-102999681D01*
X143219432Y-103065145D01*
X143204580Y-103133418D01*
X143183430Y-103161673D01*
X143061503Y-103283600D01*
X142925965Y-103477169D01*
X142925964Y-103477171D01*
X142826098Y-103691335D01*
X142826094Y-103691344D01*
X142764938Y-103919586D01*
X142764936Y-103919596D01*
X142744341Y-104154999D01*
X142744341Y-104155000D01*
X140970500Y-104155000D01*
X140970500Y-83835000D01*
X142744341Y-83835000D01*
X142764936Y-84070403D01*
X142764938Y-84070413D01*
X142826094Y-84298655D01*
X142826096Y-84298659D01*
X142826097Y-84298663D01*
X142877000Y-84407824D01*
X142925965Y-84512830D01*
X142925967Y-84512834D01*
X143061501Y-84706395D01*
X143061506Y-84706402D01*
X143228597Y-84873493D01*
X143228603Y-84873498D01*
X143414594Y-85003730D01*
X143458219Y-85058307D01*
X143465413Y-85127805D01*
X143433890Y-85190160D01*
X143414595Y-85206880D01*
X143228922Y-85336890D01*
X143228920Y-85336891D01*
X143061891Y-85503920D01*
X143061886Y-85503926D01*
X142926400Y-85697420D01*
X142926399Y-85697422D01*
X142826570Y-85911507D01*
X142826567Y-85911513D01*
X142769364Y-86124999D01*
X142769364Y-86125000D01*
X143666314Y-86125000D01*
X143640507Y-86165156D01*
X143600000Y-86303111D01*
X143600000Y-86446889D01*
X143640507Y-86584844D01*
X143666314Y-86625000D01*
X142769364Y-86625000D01*
X142826567Y-86838486D01*
X142826570Y-86838492D01*
X142926399Y-87052578D01*
X143061894Y-87246082D01*
X143228917Y-87413105D01*
X143422421Y-87548600D01*
X143636507Y-87648429D01*
X143636516Y-87648433D01*
X143850000Y-87705634D01*
X143850000Y-86810501D01*
X143957685Y-86859680D01*
X144064237Y-86875000D01*
X144135763Y-86875000D01*
X144242315Y-86859680D01*
X144350000Y-86810501D01*
X144350000Y-87705633D01*
X144563483Y-87648433D01*
X144563492Y-87648429D01*
X144777578Y-87548600D01*
X144971082Y-87413105D01*
X145138105Y-87246082D01*
X145273600Y-87052578D01*
X145373429Y-86838492D01*
X145373432Y-86838486D01*
X145430636Y-86625000D01*
X144533686Y-86625000D01*
X144559493Y-86584844D01*
X144600000Y-86446889D01*
X144600000Y-86303111D01*
X144559493Y-86165156D01*
X144533686Y-86125000D01*
X145430636Y-86125000D01*
X145430635Y-86124999D01*
X145373432Y-85911513D01*
X145373429Y-85911507D01*
X145273600Y-85697422D01*
X145273599Y-85697420D01*
X145138113Y-85503926D01*
X145138108Y-85503920D01*
X144971078Y-85336890D01*
X144785405Y-85206879D01*
X144741780Y-85152302D01*
X144734588Y-85082804D01*
X144766110Y-85020449D01*
X144785406Y-85003730D01*
X144971401Y-84873495D01*
X145138495Y-84706401D01*
X145274035Y-84512830D01*
X145373903Y-84298663D01*
X145435063Y-84070408D01*
X145455659Y-83835000D01*
X145435063Y-83599592D01*
X145373903Y-83371337D01*
X145274035Y-83157171D01*
X145272322Y-83154725D01*
X145138496Y-82963600D01*
X145093526Y-82918630D01*
X145016567Y-82841671D01*
X144983084Y-82780351D01*
X144988068Y-82710659D01*
X145029939Y-82654725D01*
X145060915Y-82637810D01*
X145192331Y-82588796D01*
X145307546Y-82502546D01*
X145393796Y-82387331D01*
X145444091Y-82252483D01*
X145450500Y-82192873D01*
X145450499Y-80397128D01*
X145444091Y-80337517D01*
X145415435Y-80260687D01*
X145393797Y-80202671D01*
X145393793Y-80202664D01*
X145307547Y-80087455D01*
X145307544Y-80087452D01*
X145192335Y-80001206D01*
X145192328Y-80001202D01*
X145057482Y-79950908D01*
X145057483Y-79950908D01*
X144997883Y-79944501D01*
X144997881Y-79944500D01*
X144997873Y-79944500D01*
X144997864Y-79944500D01*
X143202129Y-79944500D01*
X143202123Y-79944501D01*
X143142516Y-79950908D01*
X143007671Y-80001202D01*
X143007664Y-80001206D01*
X142892455Y-80087452D01*
X142892452Y-80087455D01*
X142806206Y-80202664D01*
X142806202Y-80202671D01*
X142755908Y-80337517D01*
X142750143Y-80391143D01*
X142749501Y-80397123D01*
X142749500Y-80397135D01*
X142749500Y-82192870D01*
X142749501Y-82192876D01*
X142755908Y-82252483D01*
X142806202Y-82387328D01*
X142806206Y-82387335D01*
X142892452Y-82502544D01*
X142892455Y-82502547D01*
X143007664Y-82588793D01*
X143007671Y-82588797D01*
X143139081Y-82637810D01*
X143195015Y-82679681D01*
X143219432Y-82745145D01*
X143204580Y-82813418D01*
X143183430Y-82841673D01*
X143061503Y-82963600D01*
X142925965Y-83157169D01*
X142925964Y-83157171D01*
X142826098Y-83371335D01*
X142826094Y-83371344D01*
X142764938Y-83599586D01*
X142764936Y-83599596D01*
X142744341Y-83834999D01*
X142744341Y-83835000D01*
X140970500Y-83835000D01*
X140970500Y-58544500D01*
X140990185Y-58477461D01*
X141042989Y-58431706D01*
X141094500Y-58420500D01*
X186565500Y-58420500D01*
X186632539Y-58440185D01*
G37*
%TD.AperFunction*%
%TD*%
M02*
