%TF.GenerationSoftware,KiCad,Pcbnew,7.0.5-0*%
%TF.CreationDate,2023-07-19T18:28:51-07:00*%
%TF.ProjectId,tasty-totem-board,74617374-792d-4746-9f74-656d2d626f61,0.1*%
%TF.SameCoordinates,Original*%
%TF.FileFunction,Legend,Bot*%
%TF.FilePolarity,Positive*%
%FSLAX46Y46*%
G04 Gerber Fmt 4.6, Leading zero omitted, Abs format (unit mm)*
G04 Created by KiCad (PCBNEW 7.0.5-0) date 2023-07-19 18:28:51*
%MOMM*%
%LPD*%
G01*
G04 APERTURE LIST*
%ADD10C,0.150000*%
%ADD11C,0.120000*%
G04 APERTURE END LIST*
D10*
X170621077Y-60124819D02*
X170049649Y-60124819D01*
X170335363Y-61124819D02*
X170335363Y-60124819D01*
X169287744Y-61124819D02*
X169287744Y-60601009D01*
X169287744Y-60601009D02*
X169335363Y-60505771D01*
X169335363Y-60505771D02*
X169430601Y-60458152D01*
X169430601Y-60458152D02*
X169621077Y-60458152D01*
X169621077Y-60458152D02*
X169716315Y-60505771D01*
X169287744Y-61077200D02*
X169382982Y-61124819D01*
X169382982Y-61124819D02*
X169621077Y-61124819D01*
X169621077Y-61124819D02*
X169716315Y-61077200D01*
X169716315Y-61077200D02*
X169763934Y-60981961D01*
X169763934Y-60981961D02*
X169763934Y-60886723D01*
X169763934Y-60886723D02*
X169716315Y-60791485D01*
X169716315Y-60791485D02*
X169621077Y-60743866D01*
X169621077Y-60743866D02*
X169382982Y-60743866D01*
X169382982Y-60743866D02*
X169287744Y-60696247D01*
X168859172Y-61077200D02*
X168763934Y-61124819D01*
X168763934Y-61124819D02*
X168573458Y-61124819D01*
X168573458Y-61124819D02*
X168478220Y-61077200D01*
X168478220Y-61077200D02*
X168430601Y-60981961D01*
X168430601Y-60981961D02*
X168430601Y-60934342D01*
X168430601Y-60934342D02*
X168478220Y-60839104D01*
X168478220Y-60839104D02*
X168573458Y-60791485D01*
X168573458Y-60791485D02*
X168716315Y-60791485D01*
X168716315Y-60791485D02*
X168811553Y-60743866D01*
X168811553Y-60743866D02*
X168859172Y-60648628D01*
X168859172Y-60648628D02*
X168859172Y-60601009D01*
X168859172Y-60601009D02*
X168811553Y-60505771D01*
X168811553Y-60505771D02*
X168716315Y-60458152D01*
X168716315Y-60458152D02*
X168573458Y-60458152D01*
X168573458Y-60458152D02*
X168478220Y-60505771D01*
X168144886Y-60458152D02*
X167763934Y-60458152D01*
X168002029Y-60124819D02*
X168002029Y-60981961D01*
X168002029Y-60981961D02*
X167954410Y-61077200D01*
X167954410Y-61077200D02*
X167859172Y-61124819D01*
X167859172Y-61124819D02*
X167763934Y-61124819D01*
X167525838Y-60458152D02*
X167287743Y-61124819D01*
X167049648Y-60458152D02*
X167287743Y-61124819D01*
X167287743Y-61124819D02*
X167382981Y-61362914D01*
X167382981Y-61362914D02*
X167430600Y-61410533D01*
X167430600Y-61410533D02*
X167525838Y-61458152D01*
X166049647Y-60124819D02*
X165478219Y-60124819D01*
X165763933Y-61124819D02*
X165763933Y-60124819D01*
X165002028Y-61124819D02*
X165097266Y-61077200D01*
X165097266Y-61077200D02*
X165144885Y-61029580D01*
X165144885Y-61029580D02*
X165192504Y-60934342D01*
X165192504Y-60934342D02*
X165192504Y-60648628D01*
X165192504Y-60648628D02*
X165144885Y-60553390D01*
X165144885Y-60553390D02*
X165097266Y-60505771D01*
X165097266Y-60505771D02*
X165002028Y-60458152D01*
X165002028Y-60458152D02*
X164859171Y-60458152D01*
X164859171Y-60458152D02*
X164763933Y-60505771D01*
X164763933Y-60505771D02*
X164716314Y-60553390D01*
X164716314Y-60553390D02*
X164668695Y-60648628D01*
X164668695Y-60648628D02*
X164668695Y-60934342D01*
X164668695Y-60934342D02*
X164716314Y-61029580D01*
X164716314Y-61029580D02*
X164763933Y-61077200D01*
X164763933Y-61077200D02*
X164859171Y-61124819D01*
X164859171Y-61124819D02*
X165002028Y-61124819D01*
X164382980Y-60458152D02*
X164002028Y-60458152D01*
X164240123Y-60124819D02*
X164240123Y-60981961D01*
X164240123Y-60981961D02*
X164192504Y-61077200D01*
X164192504Y-61077200D02*
X164097266Y-61124819D01*
X164097266Y-61124819D02*
X164002028Y-61124819D01*
X163287742Y-61077200D02*
X163382980Y-61124819D01*
X163382980Y-61124819D02*
X163573456Y-61124819D01*
X163573456Y-61124819D02*
X163668694Y-61077200D01*
X163668694Y-61077200D02*
X163716313Y-60981961D01*
X163716313Y-60981961D02*
X163716313Y-60601009D01*
X163716313Y-60601009D02*
X163668694Y-60505771D01*
X163668694Y-60505771D02*
X163573456Y-60458152D01*
X163573456Y-60458152D02*
X163382980Y-60458152D01*
X163382980Y-60458152D02*
X163287742Y-60505771D01*
X163287742Y-60505771D02*
X163240123Y-60601009D01*
X163240123Y-60601009D02*
X163240123Y-60696247D01*
X163240123Y-60696247D02*
X163716313Y-60791485D01*
X162811551Y-61124819D02*
X162811551Y-60458152D01*
X162811551Y-60553390D02*
X162763932Y-60505771D01*
X162763932Y-60505771D02*
X162668694Y-60458152D01*
X162668694Y-60458152D02*
X162525837Y-60458152D01*
X162525837Y-60458152D02*
X162430599Y-60505771D01*
X162430599Y-60505771D02*
X162382980Y-60601009D01*
X162382980Y-60601009D02*
X162382980Y-61124819D01*
X162382980Y-60601009D02*
X162335361Y-60505771D01*
X162335361Y-60505771D02*
X162240123Y-60458152D01*
X162240123Y-60458152D02*
X162097266Y-60458152D01*
X162097266Y-60458152D02*
X162002027Y-60505771D01*
X162002027Y-60505771D02*
X161954408Y-60601009D01*
X161954408Y-60601009D02*
X161954408Y-61124819D01*
X161525837Y-61077200D02*
X161430599Y-61124819D01*
X161430599Y-61124819D02*
X161240123Y-61124819D01*
X161240123Y-61124819D02*
X161144885Y-61077200D01*
X161144885Y-61077200D02*
X161097266Y-60981961D01*
X161097266Y-60981961D02*
X161097266Y-60934342D01*
X161097266Y-60934342D02*
X161144885Y-60839104D01*
X161144885Y-60839104D02*
X161240123Y-60791485D01*
X161240123Y-60791485D02*
X161382980Y-60791485D01*
X161382980Y-60791485D02*
X161478218Y-60743866D01*
X161478218Y-60743866D02*
X161525837Y-60648628D01*
X161525837Y-60648628D02*
X161525837Y-60601009D01*
X161525837Y-60601009D02*
X161478218Y-60505771D01*
X161478218Y-60505771D02*
X161382980Y-60458152D01*
X161382980Y-60458152D02*
X161240123Y-60458152D01*
X161240123Y-60458152D02*
X161144885Y-60505771D01*
X160002027Y-60458152D02*
X159763932Y-61124819D01*
X159763932Y-61124819D02*
X159525837Y-60458152D01*
X158954408Y-60124819D02*
X158859170Y-60124819D01*
X158859170Y-60124819D02*
X158763932Y-60172438D01*
X158763932Y-60172438D02*
X158716313Y-60220057D01*
X158716313Y-60220057D02*
X158668694Y-60315295D01*
X158668694Y-60315295D02*
X158621075Y-60505771D01*
X158621075Y-60505771D02*
X158621075Y-60743866D01*
X158621075Y-60743866D02*
X158668694Y-60934342D01*
X158668694Y-60934342D02*
X158716313Y-61029580D01*
X158716313Y-61029580D02*
X158763932Y-61077200D01*
X158763932Y-61077200D02*
X158859170Y-61124819D01*
X158859170Y-61124819D02*
X158954408Y-61124819D01*
X158954408Y-61124819D02*
X159049646Y-61077200D01*
X159049646Y-61077200D02*
X159097265Y-61029580D01*
X159097265Y-61029580D02*
X159144884Y-60934342D01*
X159144884Y-60934342D02*
X159192503Y-60743866D01*
X159192503Y-60743866D02*
X159192503Y-60505771D01*
X159192503Y-60505771D02*
X159144884Y-60315295D01*
X159144884Y-60315295D02*
X159097265Y-60220057D01*
X159097265Y-60220057D02*
X159049646Y-60172438D01*
X159049646Y-60172438D02*
X158954408Y-60124819D01*
X158192503Y-61029580D02*
X158144884Y-61077200D01*
X158144884Y-61077200D02*
X158192503Y-61124819D01*
X158192503Y-61124819D02*
X158240122Y-61077200D01*
X158240122Y-61077200D02*
X158192503Y-61029580D01*
X158192503Y-61029580D02*
X158192503Y-61124819D01*
X157192504Y-61124819D02*
X157763932Y-61124819D01*
X157478218Y-61124819D02*
X157478218Y-60124819D01*
X157478218Y-60124819D02*
X157573456Y-60267676D01*
X157573456Y-60267676D02*
X157668694Y-60362914D01*
X157668694Y-60362914D02*
X157763932Y-60410533D01*
X170525839Y-61830057D02*
X170478220Y-61782438D01*
X170478220Y-61782438D02*
X170382982Y-61734819D01*
X170382982Y-61734819D02*
X170144887Y-61734819D01*
X170144887Y-61734819D02*
X170049649Y-61782438D01*
X170049649Y-61782438D02*
X170002030Y-61830057D01*
X170002030Y-61830057D02*
X169954411Y-61925295D01*
X169954411Y-61925295D02*
X169954411Y-62020533D01*
X169954411Y-62020533D02*
X170002030Y-62163390D01*
X170002030Y-62163390D02*
X170573458Y-62734819D01*
X170573458Y-62734819D02*
X169954411Y-62734819D01*
X169335363Y-61734819D02*
X169240125Y-61734819D01*
X169240125Y-61734819D02*
X169144887Y-61782438D01*
X169144887Y-61782438D02*
X169097268Y-61830057D01*
X169097268Y-61830057D02*
X169049649Y-61925295D01*
X169049649Y-61925295D02*
X169002030Y-62115771D01*
X169002030Y-62115771D02*
X169002030Y-62353866D01*
X169002030Y-62353866D02*
X169049649Y-62544342D01*
X169049649Y-62544342D02*
X169097268Y-62639580D01*
X169097268Y-62639580D02*
X169144887Y-62687200D01*
X169144887Y-62687200D02*
X169240125Y-62734819D01*
X169240125Y-62734819D02*
X169335363Y-62734819D01*
X169335363Y-62734819D02*
X169430601Y-62687200D01*
X169430601Y-62687200D02*
X169478220Y-62639580D01*
X169478220Y-62639580D02*
X169525839Y-62544342D01*
X169525839Y-62544342D02*
X169573458Y-62353866D01*
X169573458Y-62353866D02*
X169573458Y-62115771D01*
X169573458Y-62115771D02*
X169525839Y-61925295D01*
X169525839Y-61925295D02*
X169478220Y-61830057D01*
X169478220Y-61830057D02*
X169430601Y-61782438D01*
X169430601Y-61782438D02*
X169335363Y-61734819D01*
X168621077Y-61830057D02*
X168573458Y-61782438D01*
X168573458Y-61782438D02*
X168478220Y-61734819D01*
X168478220Y-61734819D02*
X168240125Y-61734819D01*
X168240125Y-61734819D02*
X168144887Y-61782438D01*
X168144887Y-61782438D02*
X168097268Y-61830057D01*
X168097268Y-61830057D02*
X168049649Y-61925295D01*
X168049649Y-61925295D02*
X168049649Y-62020533D01*
X168049649Y-62020533D02*
X168097268Y-62163390D01*
X168097268Y-62163390D02*
X168668696Y-62734819D01*
X168668696Y-62734819D02*
X168049649Y-62734819D01*
X167716315Y-61734819D02*
X167097268Y-61734819D01*
X167097268Y-61734819D02*
X167430601Y-62115771D01*
X167430601Y-62115771D02*
X167287744Y-62115771D01*
X167287744Y-62115771D02*
X167192506Y-62163390D01*
X167192506Y-62163390D02*
X167144887Y-62211009D01*
X167144887Y-62211009D02*
X167097268Y-62306247D01*
X167097268Y-62306247D02*
X167097268Y-62544342D01*
X167097268Y-62544342D02*
X167144887Y-62639580D01*
X167144887Y-62639580D02*
X167192506Y-62687200D01*
X167192506Y-62687200D02*
X167287744Y-62734819D01*
X167287744Y-62734819D02*
X167573458Y-62734819D01*
X167573458Y-62734819D02*
X167668696Y-62687200D01*
X167668696Y-62687200D02*
X167716315Y-62639580D01*
X166668696Y-62353866D02*
X165906792Y-62353866D01*
X165240125Y-61734819D02*
X165144887Y-61734819D01*
X165144887Y-61734819D02*
X165049649Y-61782438D01*
X165049649Y-61782438D02*
X165002030Y-61830057D01*
X165002030Y-61830057D02*
X164954411Y-61925295D01*
X164954411Y-61925295D02*
X164906792Y-62115771D01*
X164906792Y-62115771D02*
X164906792Y-62353866D01*
X164906792Y-62353866D02*
X164954411Y-62544342D01*
X164954411Y-62544342D02*
X165002030Y-62639580D01*
X165002030Y-62639580D02*
X165049649Y-62687200D01*
X165049649Y-62687200D02*
X165144887Y-62734819D01*
X165144887Y-62734819D02*
X165240125Y-62734819D01*
X165240125Y-62734819D02*
X165335363Y-62687200D01*
X165335363Y-62687200D02*
X165382982Y-62639580D01*
X165382982Y-62639580D02*
X165430601Y-62544342D01*
X165430601Y-62544342D02*
X165478220Y-62353866D01*
X165478220Y-62353866D02*
X165478220Y-62115771D01*
X165478220Y-62115771D02*
X165430601Y-61925295D01*
X165430601Y-61925295D02*
X165382982Y-61830057D01*
X165382982Y-61830057D02*
X165335363Y-61782438D01*
X165335363Y-61782438D02*
X165240125Y-61734819D01*
X164573458Y-61734819D02*
X163906792Y-61734819D01*
X163906792Y-61734819D02*
X164335363Y-62734819D01*
X163525839Y-62353866D02*
X162763935Y-62353866D01*
X161763935Y-62734819D02*
X162335363Y-62734819D01*
X162049649Y-62734819D02*
X162049649Y-61734819D01*
X162049649Y-61734819D02*
X162144887Y-61877676D01*
X162144887Y-61877676D02*
X162240125Y-61972914D01*
X162240125Y-61972914D02*
X162335363Y-62020533D01*
X161287744Y-62734819D02*
X161097268Y-62734819D01*
X161097268Y-62734819D02*
X161002030Y-62687200D01*
X161002030Y-62687200D02*
X160954411Y-62639580D01*
X160954411Y-62639580D02*
X160859173Y-62496723D01*
X160859173Y-62496723D02*
X160811554Y-62306247D01*
X160811554Y-62306247D02*
X160811554Y-61925295D01*
X160811554Y-61925295D02*
X160859173Y-61830057D01*
X160859173Y-61830057D02*
X160906792Y-61782438D01*
X160906792Y-61782438D02*
X161002030Y-61734819D01*
X161002030Y-61734819D02*
X161192506Y-61734819D01*
X161192506Y-61734819D02*
X161287744Y-61782438D01*
X161287744Y-61782438D02*
X161335363Y-61830057D01*
X161335363Y-61830057D02*
X161382982Y-61925295D01*
X161382982Y-61925295D02*
X161382982Y-62163390D01*
X161382982Y-62163390D02*
X161335363Y-62258628D01*
X161335363Y-62258628D02*
X161287744Y-62306247D01*
X161287744Y-62306247D02*
X161192506Y-62353866D01*
X161192506Y-62353866D02*
X161002030Y-62353866D01*
X161002030Y-62353866D02*
X160906792Y-62306247D01*
X160906792Y-62306247D02*
X160859173Y-62258628D01*
X160859173Y-62258628D02*
X160811554Y-62163390D01*
%TO.C,U2*%
X158424819Y-77988095D02*
X159234342Y-77988095D01*
X159234342Y-77988095D02*
X159329580Y-78035714D01*
X159329580Y-78035714D02*
X159377200Y-78083333D01*
X159377200Y-78083333D02*
X159424819Y-78178571D01*
X159424819Y-78178571D02*
X159424819Y-78369047D01*
X159424819Y-78369047D02*
X159377200Y-78464285D01*
X159377200Y-78464285D02*
X159329580Y-78511904D01*
X159329580Y-78511904D02*
X159234342Y-78559523D01*
X159234342Y-78559523D02*
X158424819Y-78559523D01*
X158520057Y-78988095D02*
X158472438Y-79035714D01*
X158472438Y-79035714D02*
X158424819Y-79130952D01*
X158424819Y-79130952D02*
X158424819Y-79369047D01*
X158424819Y-79369047D02*
X158472438Y-79464285D01*
X158472438Y-79464285D02*
X158520057Y-79511904D01*
X158520057Y-79511904D02*
X158615295Y-79559523D01*
X158615295Y-79559523D02*
X158710533Y-79559523D01*
X158710533Y-79559523D02*
X158853390Y-79511904D01*
X158853390Y-79511904D02*
X159424819Y-78940476D01*
X159424819Y-78940476D02*
X159424819Y-79559523D01*
D11*
X159970000Y-79750000D02*
G75*
G03*
X159970000Y-77750000I0J1000000D01*
G01*
X170250000Y-76100000D02*
X170250000Y-81400000D01*
X159970000Y-77750000D02*
X159970000Y-76100000D01*
X170250000Y-81400000D02*
X159970000Y-81400000D01*
X159970000Y-76100000D02*
X170250000Y-76100000D01*
X159970000Y-81400000D02*
X159970000Y-79750000D01*
%TD*%
M02*
