%TF.GenerationSoftware,KiCad,Pcbnew,7.0.5-0*%
%TF.CreationDate,2023-07-19T18:28:51-07:00*%
%TF.ProjectId,tasty-totem-board,74617374-792d-4746-9f74-656d2d626f61,0.1*%
%TF.SameCoordinates,Original*%
%TF.FileFunction,Legend,Top*%
%TF.FilePolarity,Positive*%
%FSLAX46Y46*%
G04 Gerber Fmt 4.6, Leading zero omitted, Abs format (unit mm)*
G04 Created by KiCad (PCBNEW 7.0.5-0) date 2023-07-19 18:28:51*
%MOMM*%
%LPD*%
G01*
G04 APERTURE LIST*
%ADD10C,0.150000*%
%ADD11C,0.120000*%
%ADD12C,0.127000*%
%ADD13C,0.200000*%
G04 APERTURE END LIST*
D10*
X151641133Y-65741779D02*
X151641133Y-66503684D01*
X151450657Y-66313207D02*
X151641133Y-66503684D01*
X151641133Y-66503684D02*
X151831609Y-66313207D01*
X180676779Y-104898866D02*
X181438684Y-104898866D01*
X181248207Y-105089342D02*
X181438684Y-104898866D01*
X181438684Y-104898866D02*
X181248207Y-104708390D01*
X180676779Y-94738866D02*
X181438684Y-94738866D01*
X181248207Y-94929342D02*
X181438684Y-94738866D01*
X181438684Y-94738866D02*
X181248207Y-94548390D01*
X180676779Y-85213866D02*
X181438684Y-85213866D01*
X181248207Y-85404342D02*
X181438684Y-85213866D01*
X181438684Y-85213866D02*
X181248207Y-85023390D01*
X180676779Y-76323866D02*
X181438684Y-76323866D01*
X181248207Y-76514342D02*
X181438684Y-76323866D01*
X181438684Y-76323866D02*
X181248207Y-76133390D01*
X180517800Y-98714160D02*
X180470180Y-98857017D01*
X180470180Y-98857017D02*
X180470180Y-99095112D01*
X180470180Y-99095112D02*
X180517800Y-99190350D01*
X180517800Y-99190350D02*
X180565419Y-99237969D01*
X180565419Y-99237969D02*
X180660657Y-99285588D01*
X180660657Y-99285588D02*
X180755895Y-99285588D01*
X180755895Y-99285588D02*
X180851133Y-99237969D01*
X180851133Y-99237969D02*
X180898752Y-99190350D01*
X180898752Y-99190350D02*
X180946371Y-99095112D01*
X180946371Y-99095112D02*
X180993990Y-98904636D01*
X180993990Y-98904636D02*
X181041609Y-98809398D01*
X181041609Y-98809398D02*
X181089228Y-98761779D01*
X181089228Y-98761779D02*
X181184466Y-98714160D01*
X181184466Y-98714160D02*
X181279704Y-98714160D01*
X181279704Y-98714160D02*
X181374942Y-98761779D01*
X181374942Y-98761779D02*
X181422561Y-98809398D01*
X181422561Y-98809398D02*
X181470180Y-98904636D01*
X181470180Y-98904636D02*
X181470180Y-99142731D01*
X181470180Y-99142731D02*
X181422561Y-99285588D01*
X181470180Y-99571303D02*
X181470180Y-100142731D01*
X180470180Y-99857017D02*
X181470180Y-99857017D01*
X180470180Y-101047493D02*
X180946371Y-100714160D01*
X180470180Y-100476065D02*
X181470180Y-100476065D01*
X181470180Y-100476065D02*
X181470180Y-100857017D01*
X181470180Y-100857017D02*
X181422561Y-100952255D01*
X181422561Y-100952255D02*
X181374942Y-100999874D01*
X181374942Y-100999874D02*
X181279704Y-101047493D01*
X181279704Y-101047493D02*
X181136847Y-101047493D01*
X181136847Y-101047493D02*
X181041609Y-100999874D01*
X181041609Y-100999874D02*
X180993990Y-100952255D01*
X180993990Y-100952255D02*
X180946371Y-100857017D01*
X180946371Y-100857017D02*
X180946371Y-100476065D01*
X180470180Y-101476065D02*
X181470180Y-101476065D01*
X180470180Y-101952255D02*
X181470180Y-101952255D01*
X181470180Y-101952255D02*
X181470180Y-102333207D01*
X181470180Y-102333207D02*
X181422561Y-102428445D01*
X181422561Y-102428445D02*
X181374942Y-102476064D01*
X181374942Y-102476064D02*
X181279704Y-102523683D01*
X181279704Y-102523683D02*
X181136847Y-102523683D01*
X181136847Y-102523683D02*
X181041609Y-102476064D01*
X181041609Y-102476064D02*
X180993990Y-102428445D01*
X180993990Y-102428445D02*
X180946371Y-102333207D01*
X180946371Y-102333207D02*
X180946371Y-101952255D01*
X181374942Y-102904636D02*
X181422561Y-102952255D01*
X181422561Y-102952255D02*
X181470180Y-103047493D01*
X181470180Y-103047493D02*
X181470180Y-103285588D01*
X181470180Y-103285588D02*
X181422561Y-103380826D01*
X181422561Y-103380826D02*
X181374942Y-103428445D01*
X181374942Y-103428445D02*
X181279704Y-103476064D01*
X181279704Y-103476064D02*
X181184466Y-103476064D01*
X181184466Y-103476064D02*
X181041609Y-103428445D01*
X181041609Y-103428445D02*
X180470180Y-102857017D01*
X180470180Y-102857017D02*
X180470180Y-103476064D01*
X180755895Y-90459160D02*
X180755895Y-90935350D01*
X180470180Y-90363922D02*
X181470180Y-90697255D01*
X181470180Y-90697255D02*
X180470180Y-91030588D01*
X180470180Y-91363922D02*
X181470180Y-91363922D01*
X181470180Y-91363922D02*
X180755895Y-91697255D01*
X180755895Y-91697255D02*
X181470180Y-92030588D01*
X181470180Y-92030588D02*
X180470180Y-92030588D01*
X180993990Y-92840112D02*
X180946371Y-92982969D01*
X180946371Y-92982969D02*
X180898752Y-93030588D01*
X180898752Y-93030588D02*
X180803514Y-93078207D01*
X180803514Y-93078207D02*
X180660657Y-93078207D01*
X180660657Y-93078207D02*
X180565419Y-93030588D01*
X180565419Y-93030588D02*
X180517800Y-92982969D01*
X180517800Y-92982969D02*
X180470180Y-92887731D01*
X180470180Y-92887731D02*
X180470180Y-92506779D01*
X180470180Y-92506779D02*
X181470180Y-92506779D01*
X181470180Y-92506779D02*
X181470180Y-92840112D01*
X181470180Y-92840112D02*
X181422561Y-92935350D01*
X181422561Y-92935350D02*
X181374942Y-92982969D01*
X181374942Y-92982969D02*
X181279704Y-93030588D01*
X181279704Y-93030588D02*
X181184466Y-93030588D01*
X181184466Y-93030588D02*
X181089228Y-92982969D01*
X181089228Y-92982969D02*
X181041609Y-92935350D01*
X181041609Y-92935350D02*
X180993990Y-92840112D01*
X180993990Y-92840112D02*
X180993990Y-92506779D01*
X180517800Y-82204160D02*
X180470180Y-82347017D01*
X180470180Y-82347017D02*
X180470180Y-82585112D01*
X180470180Y-82585112D02*
X180517800Y-82680350D01*
X180517800Y-82680350D02*
X180565419Y-82727969D01*
X180565419Y-82727969D02*
X180660657Y-82775588D01*
X180660657Y-82775588D02*
X180755895Y-82775588D01*
X180755895Y-82775588D02*
X180851133Y-82727969D01*
X180851133Y-82727969D02*
X180898752Y-82680350D01*
X180898752Y-82680350D02*
X180946371Y-82585112D01*
X180946371Y-82585112D02*
X180993990Y-82394636D01*
X180993990Y-82394636D02*
X181041609Y-82299398D01*
X181041609Y-82299398D02*
X181089228Y-82251779D01*
X181089228Y-82251779D02*
X181184466Y-82204160D01*
X181184466Y-82204160D02*
X181279704Y-82204160D01*
X181279704Y-82204160D02*
X181374942Y-82251779D01*
X181374942Y-82251779D02*
X181422561Y-82299398D01*
X181422561Y-82299398D02*
X181470180Y-82394636D01*
X181470180Y-82394636D02*
X181470180Y-82632731D01*
X181470180Y-82632731D02*
X181422561Y-82775588D01*
X181470180Y-83108922D02*
X180470180Y-83347017D01*
X180470180Y-83347017D02*
X181184466Y-83537493D01*
X181184466Y-83537493D02*
X180470180Y-83727969D01*
X180470180Y-83727969D02*
X181470180Y-83966065D01*
X180470180Y-71456779D02*
X181470180Y-71456779D01*
X181470180Y-71456779D02*
X180755895Y-71790112D01*
X180755895Y-71790112D02*
X181470180Y-72123445D01*
X181470180Y-72123445D02*
X180470180Y-72123445D01*
X180470180Y-72599636D02*
X181470180Y-72599636D01*
X180517800Y-73028207D02*
X180470180Y-73171064D01*
X180470180Y-73171064D02*
X180470180Y-73409159D01*
X180470180Y-73409159D02*
X180517800Y-73504397D01*
X180517800Y-73504397D02*
X180565419Y-73552016D01*
X180565419Y-73552016D02*
X180660657Y-73599635D01*
X180660657Y-73599635D02*
X180755895Y-73599635D01*
X180755895Y-73599635D02*
X180851133Y-73552016D01*
X180851133Y-73552016D02*
X180898752Y-73504397D01*
X180898752Y-73504397D02*
X180946371Y-73409159D01*
X180946371Y-73409159D02*
X180993990Y-73218683D01*
X180993990Y-73218683D02*
X181041609Y-73123445D01*
X181041609Y-73123445D02*
X181089228Y-73075826D01*
X181089228Y-73075826D02*
X181184466Y-73028207D01*
X181184466Y-73028207D02*
X181279704Y-73028207D01*
X181279704Y-73028207D02*
X181374942Y-73075826D01*
X181374942Y-73075826D02*
X181422561Y-73123445D01*
X181422561Y-73123445D02*
X181470180Y-73218683D01*
X181470180Y-73218683D02*
X181470180Y-73456778D01*
X181470180Y-73456778D02*
X181422561Y-73599635D01*
X180565419Y-74599635D02*
X180517800Y-74552016D01*
X180517800Y-74552016D02*
X180470180Y-74409159D01*
X180470180Y-74409159D02*
X180470180Y-74313921D01*
X180470180Y-74313921D02*
X180517800Y-74171064D01*
X180517800Y-74171064D02*
X180613038Y-74075826D01*
X180613038Y-74075826D02*
X180708276Y-74028207D01*
X180708276Y-74028207D02*
X180898752Y-73980588D01*
X180898752Y-73980588D02*
X181041609Y-73980588D01*
X181041609Y-73980588D02*
X181232085Y-74028207D01*
X181232085Y-74028207D02*
X181327323Y-74075826D01*
X181327323Y-74075826D02*
X181422561Y-74171064D01*
X181422561Y-74171064D02*
X181470180Y-74313921D01*
X181470180Y-74313921D02*
X181470180Y-74409159D01*
X181470180Y-74409159D02*
X181422561Y-74552016D01*
X181422561Y-74552016D02*
X181374942Y-74599635D01*
X146983220Y-101476133D02*
X146221316Y-101476133D01*
X146411792Y-101285657D02*
X146221316Y-101476133D01*
X146221316Y-101476133D02*
X146411792Y-101666609D01*
X146983220Y-92586133D02*
X146221316Y-92586133D01*
X146411792Y-92395657D02*
X146221316Y-92586133D01*
X146221316Y-92586133D02*
X146411792Y-92776609D01*
X146983220Y-81156133D02*
X146221316Y-81156133D01*
X146411792Y-80965657D02*
X146221316Y-81156133D01*
X146221316Y-81156133D02*
X146411792Y-81346609D01*
X146983220Y-62106133D02*
X146221316Y-62106133D01*
X146411792Y-61915657D02*
X146221316Y-62106133D01*
X146221316Y-62106133D02*
X146411792Y-62296609D01*
X147189819Y-106343220D02*
X146189819Y-106343220D01*
X147189819Y-105295602D02*
X146713628Y-105628935D01*
X147189819Y-105867030D02*
X146189819Y-105867030D01*
X146189819Y-105867030D02*
X146189819Y-105486078D01*
X146189819Y-105486078D02*
X146237438Y-105390840D01*
X146237438Y-105390840D02*
X146285057Y-105343221D01*
X146285057Y-105343221D02*
X146380295Y-105295602D01*
X146380295Y-105295602D02*
X146523152Y-105295602D01*
X146523152Y-105295602D02*
X146618390Y-105343221D01*
X146618390Y-105343221D02*
X146666009Y-105390840D01*
X146666009Y-105390840D02*
X146713628Y-105486078D01*
X146713628Y-105486078D02*
X146713628Y-105867030D01*
X147189819Y-103533697D02*
X146713628Y-103867030D01*
X147189819Y-104105125D02*
X146189819Y-104105125D01*
X146189819Y-104105125D02*
X146189819Y-103724173D01*
X146189819Y-103724173D02*
X146237438Y-103628935D01*
X146237438Y-103628935D02*
X146285057Y-103581316D01*
X146285057Y-103581316D02*
X146380295Y-103533697D01*
X146380295Y-103533697D02*
X146523152Y-103533697D01*
X146523152Y-103533697D02*
X146618390Y-103581316D01*
X146618390Y-103581316D02*
X146666009Y-103628935D01*
X146666009Y-103628935D02*
X146713628Y-103724173D01*
X146713628Y-103724173D02*
X146713628Y-104105125D01*
X146189819Y-103200363D02*
X147189819Y-102533697D01*
X146189819Y-102533697D02*
X147189819Y-103200363D01*
X147189819Y-96818220D02*
X146189819Y-96818220D01*
X147189819Y-95770602D02*
X146713628Y-96103935D01*
X147189819Y-96342030D02*
X146189819Y-96342030D01*
X146189819Y-96342030D02*
X146189819Y-95961078D01*
X146189819Y-95961078D02*
X146237438Y-95865840D01*
X146237438Y-95865840D02*
X146285057Y-95818221D01*
X146285057Y-95818221D02*
X146380295Y-95770602D01*
X146380295Y-95770602D02*
X146523152Y-95770602D01*
X146523152Y-95770602D02*
X146618390Y-95818221D01*
X146618390Y-95818221D02*
X146666009Y-95865840D01*
X146666009Y-95865840D02*
X146713628Y-95961078D01*
X146713628Y-95961078D02*
X146713628Y-96342030D01*
X146189819Y-94722982D02*
X146189819Y-94151554D01*
X147189819Y-94437268D02*
X146189819Y-94437268D01*
X146189819Y-93913458D02*
X147189819Y-93246792D01*
X146189819Y-93246792D02*
X147189819Y-93913458D01*
X147142200Y-86070839D02*
X147189819Y-85927982D01*
X147189819Y-85927982D02*
X147189819Y-85689887D01*
X147189819Y-85689887D02*
X147142200Y-85594649D01*
X147142200Y-85594649D02*
X147094580Y-85547030D01*
X147094580Y-85547030D02*
X146999342Y-85499411D01*
X146999342Y-85499411D02*
X146904104Y-85499411D01*
X146904104Y-85499411D02*
X146808866Y-85547030D01*
X146808866Y-85547030D02*
X146761247Y-85594649D01*
X146761247Y-85594649D02*
X146713628Y-85689887D01*
X146713628Y-85689887D02*
X146666009Y-85880363D01*
X146666009Y-85880363D02*
X146618390Y-85975601D01*
X146618390Y-85975601D02*
X146570771Y-86023220D01*
X146570771Y-86023220D02*
X146475533Y-86070839D01*
X146475533Y-86070839D02*
X146380295Y-86070839D01*
X146380295Y-86070839D02*
X146285057Y-86023220D01*
X146285057Y-86023220D02*
X146237438Y-85975601D01*
X146237438Y-85975601D02*
X146189819Y-85880363D01*
X146189819Y-85880363D02*
X146189819Y-85642268D01*
X146189819Y-85642268D02*
X146237438Y-85499411D01*
X146189819Y-85213696D02*
X146189819Y-84642268D01*
X147189819Y-84927982D02*
X146189819Y-84927982D01*
X147189819Y-83737506D02*
X146713628Y-84070839D01*
X147189819Y-84308934D02*
X146189819Y-84308934D01*
X146189819Y-84308934D02*
X146189819Y-83927982D01*
X146189819Y-83927982D02*
X146237438Y-83832744D01*
X146237438Y-83832744D02*
X146285057Y-83785125D01*
X146285057Y-83785125D02*
X146380295Y-83737506D01*
X146380295Y-83737506D02*
X146523152Y-83737506D01*
X146523152Y-83737506D02*
X146618390Y-83785125D01*
X146618390Y-83785125D02*
X146666009Y-83832744D01*
X146666009Y-83832744D02*
X146713628Y-83927982D01*
X146713628Y-83927982D02*
X146713628Y-84308934D01*
X147189819Y-83308934D02*
X146189819Y-83308934D01*
X147189819Y-82832744D02*
X146189819Y-82832744D01*
X146189819Y-82832744D02*
X146189819Y-82451792D01*
X146189819Y-82451792D02*
X146237438Y-82356554D01*
X146237438Y-82356554D02*
X146285057Y-82308935D01*
X146285057Y-82308935D02*
X146380295Y-82261316D01*
X146380295Y-82261316D02*
X146523152Y-82261316D01*
X146523152Y-82261316D02*
X146618390Y-82308935D01*
X146618390Y-82308935D02*
X146666009Y-82356554D01*
X146666009Y-82356554D02*
X146713628Y-82451792D01*
X146713628Y-82451792D02*
X146713628Y-82832744D01*
X147189819Y-71418220D02*
X146189819Y-71418220D01*
X146189819Y-71418220D02*
X146904104Y-71084887D01*
X146904104Y-71084887D02*
X146189819Y-70751554D01*
X146189819Y-70751554D02*
X147189819Y-70751554D01*
X146189819Y-70084887D02*
X146189819Y-69894411D01*
X146189819Y-69894411D02*
X146237438Y-69799173D01*
X146237438Y-69799173D02*
X146332676Y-69703935D01*
X146332676Y-69703935D02*
X146523152Y-69656316D01*
X146523152Y-69656316D02*
X146856485Y-69656316D01*
X146856485Y-69656316D02*
X147046961Y-69703935D01*
X147046961Y-69703935D02*
X147142200Y-69799173D01*
X147142200Y-69799173D02*
X147189819Y-69894411D01*
X147189819Y-69894411D02*
X147189819Y-70084887D01*
X147189819Y-70084887D02*
X147142200Y-70180125D01*
X147142200Y-70180125D02*
X147046961Y-70275363D01*
X147046961Y-70275363D02*
X146856485Y-70322982D01*
X146856485Y-70322982D02*
X146523152Y-70322982D01*
X146523152Y-70322982D02*
X146332676Y-70275363D01*
X146332676Y-70275363D02*
X146237438Y-70180125D01*
X146237438Y-70180125D02*
X146189819Y-70084887D01*
X146189819Y-69370601D02*
X146189819Y-68799173D01*
X147189819Y-69084887D02*
X146189819Y-69084887D01*
X146189819Y-68275363D02*
X146189819Y-68084887D01*
X146189819Y-68084887D02*
X146237438Y-67989649D01*
X146237438Y-67989649D02*
X146332676Y-67894411D01*
X146332676Y-67894411D02*
X146523152Y-67846792D01*
X146523152Y-67846792D02*
X146856485Y-67846792D01*
X146856485Y-67846792D02*
X147046961Y-67894411D01*
X147046961Y-67894411D02*
X147142200Y-67989649D01*
X147142200Y-67989649D02*
X147189819Y-68084887D01*
X147189819Y-68084887D02*
X147189819Y-68275363D01*
X147189819Y-68275363D02*
X147142200Y-68370601D01*
X147142200Y-68370601D02*
X147046961Y-68465839D01*
X147046961Y-68465839D02*
X146856485Y-68513458D01*
X146856485Y-68513458D02*
X146523152Y-68513458D01*
X146523152Y-68513458D02*
X146332676Y-68465839D01*
X146332676Y-68465839D02*
X146237438Y-68370601D01*
X146237438Y-68370601D02*
X146189819Y-68275363D01*
X147189819Y-66846792D02*
X146713628Y-67180125D01*
X147189819Y-67418220D02*
X146189819Y-67418220D01*
X146189819Y-67418220D02*
X146189819Y-67037268D01*
X146189819Y-67037268D02*
X146237438Y-66942030D01*
X146237438Y-66942030D02*
X146285057Y-66894411D01*
X146285057Y-66894411D02*
X146380295Y-66846792D01*
X146380295Y-66846792D02*
X146523152Y-66846792D01*
X146523152Y-66846792D02*
X146618390Y-66894411D01*
X146618390Y-66894411D02*
X146666009Y-66942030D01*
X146666009Y-66942030D02*
X146713628Y-67037268D01*
X146713628Y-67037268D02*
X146713628Y-67418220D01*
%TO.C,J8*%
X188196666Y-78424819D02*
X188196666Y-79139104D01*
X188196666Y-79139104D02*
X188149047Y-79281961D01*
X188149047Y-79281961D02*
X188053809Y-79377200D01*
X188053809Y-79377200D02*
X187910952Y-79424819D01*
X187910952Y-79424819D02*
X187815714Y-79424819D01*
X188815714Y-78853390D02*
X188720476Y-78805771D01*
X188720476Y-78805771D02*
X188672857Y-78758152D01*
X188672857Y-78758152D02*
X188625238Y-78662914D01*
X188625238Y-78662914D02*
X188625238Y-78615295D01*
X188625238Y-78615295D02*
X188672857Y-78520057D01*
X188672857Y-78520057D02*
X188720476Y-78472438D01*
X188720476Y-78472438D02*
X188815714Y-78424819D01*
X188815714Y-78424819D02*
X189006190Y-78424819D01*
X189006190Y-78424819D02*
X189101428Y-78472438D01*
X189101428Y-78472438D02*
X189149047Y-78520057D01*
X189149047Y-78520057D02*
X189196666Y-78615295D01*
X189196666Y-78615295D02*
X189196666Y-78662914D01*
X189196666Y-78662914D02*
X189149047Y-78758152D01*
X189149047Y-78758152D02*
X189101428Y-78805771D01*
X189101428Y-78805771D02*
X189006190Y-78853390D01*
X189006190Y-78853390D02*
X188815714Y-78853390D01*
X188815714Y-78853390D02*
X188720476Y-78901009D01*
X188720476Y-78901009D02*
X188672857Y-78948628D01*
X188672857Y-78948628D02*
X188625238Y-79043866D01*
X188625238Y-79043866D02*
X188625238Y-79234342D01*
X188625238Y-79234342D02*
X188672857Y-79329580D01*
X188672857Y-79329580D02*
X188720476Y-79377200D01*
X188720476Y-79377200D02*
X188815714Y-79424819D01*
X188815714Y-79424819D02*
X189006190Y-79424819D01*
X189006190Y-79424819D02*
X189101428Y-79377200D01*
X189101428Y-79377200D02*
X189149047Y-79329580D01*
X189149047Y-79329580D02*
X189196666Y-79234342D01*
X189196666Y-79234342D02*
X189196666Y-79043866D01*
X189196666Y-79043866D02*
X189149047Y-78948628D01*
X189149047Y-78948628D02*
X189101428Y-78901009D01*
X189101428Y-78901009D02*
X189006190Y-78853390D01*
%TO.C,J7*%
X188196666Y-96964819D02*
X188196666Y-97679104D01*
X188196666Y-97679104D02*
X188149047Y-97821961D01*
X188149047Y-97821961D02*
X188053809Y-97917200D01*
X188053809Y-97917200D02*
X187910952Y-97964819D01*
X187910952Y-97964819D02*
X187815714Y-97964819D01*
X188577619Y-96964819D02*
X189244285Y-96964819D01*
X189244285Y-96964819D02*
X188815714Y-97964819D01*
%TO.C,J6*%
X188196666Y-106664819D02*
X188196666Y-107379104D01*
X188196666Y-107379104D02*
X188149047Y-107521961D01*
X188149047Y-107521961D02*
X188053809Y-107617200D01*
X188053809Y-107617200D02*
X187910952Y-107664819D01*
X187910952Y-107664819D02*
X187815714Y-107664819D01*
X189101428Y-106664819D02*
X188910952Y-106664819D01*
X188910952Y-106664819D02*
X188815714Y-106712438D01*
X188815714Y-106712438D02*
X188768095Y-106760057D01*
X188768095Y-106760057D02*
X188672857Y-106902914D01*
X188672857Y-106902914D02*
X188625238Y-107093390D01*
X188625238Y-107093390D02*
X188625238Y-107474342D01*
X188625238Y-107474342D02*
X188672857Y-107569580D01*
X188672857Y-107569580D02*
X188720476Y-107617200D01*
X188720476Y-107617200D02*
X188815714Y-107664819D01*
X188815714Y-107664819D02*
X189006190Y-107664819D01*
X189006190Y-107664819D02*
X189101428Y-107617200D01*
X189101428Y-107617200D02*
X189149047Y-107569580D01*
X189149047Y-107569580D02*
X189196666Y-107474342D01*
X189196666Y-107474342D02*
X189196666Y-107236247D01*
X189196666Y-107236247D02*
X189149047Y-107141009D01*
X189149047Y-107141009D02*
X189101428Y-107093390D01*
X189101428Y-107093390D02*
X189006190Y-107045771D01*
X189006190Y-107045771D02*
X188815714Y-107045771D01*
X188815714Y-107045771D02*
X188720476Y-107093390D01*
X188720476Y-107093390D02*
X188672857Y-107141009D01*
X188672857Y-107141009D02*
X188625238Y-107236247D01*
%TO.C,J5*%
X188196666Y-87314819D02*
X188196666Y-88029104D01*
X188196666Y-88029104D02*
X188149047Y-88171961D01*
X188149047Y-88171961D02*
X188053809Y-88267200D01*
X188053809Y-88267200D02*
X187910952Y-88314819D01*
X187910952Y-88314819D02*
X187815714Y-88314819D01*
X189149047Y-87314819D02*
X188672857Y-87314819D01*
X188672857Y-87314819D02*
X188625238Y-87791009D01*
X188625238Y-87791009D02*
X188672857Y-87743390D01*
X188672857Y-87743390D02*
X188768095Y-87695771D01*
X188768095Y-87695771D02*
X189006190Y-87695771D01*
X189006190Y-87695771D02*
X189101428Y-87743390D01*
X189101428Y-87743390D02*
X189149047Y-87791009D01*
X189149047Y-87791009D02*
X189196666Y-87886247D01*
X189196666Y-87886247D02*
X189196666Y-88124342D01*
X189196666Y-88124342D02*
X189149047Y-88219580D01*
X189149047Y-88219580D02*
X189101428Y-88267200D01*
X189101428Y-88267200D02*
X189006190Y-88314819D01*
X189006190Y-88314819D02*
X188768095Y-88314819D01*
X188768095Y-88314819D02*
X188672857Y-88267200D01*
X188672857Y-88267200D02*
X188625238Y-88219580D01*
%TO.C,J4*%
X139386666Y-77979819D02*
X139386666Y-78694104D01*
X139386666Y-78694104D02*
X139339047Y-78836961D01*
X139339047Y-78836961D02*
X139243809Y-78932200D01*
X139243809Y-78932200D02*
X139100952Y-78979819D01*
X139100952Y-78979819D02*
X139005714Y-78979819D01*
X140291428Y-78313152D02*
X140291428Y-78979819D01*
X140053333Y-77932200D02*
X139815238Y-78646485D01*
X139815238Y-78646485D02*
X140434285Y-78646485D01*
%TO.C,J3*%
X139386666Y-89364819D02*
X139386666Y-90079104D01*
X139386666Y-90079104D02*
X139339047Y-90221961D01*
X139339047Y-90221961D02*
X139243809Y-90317200D01*
X139243809Y-90317200D02*
X139100952Y-90364819D01*
X139100952Y-90364819D02*
X139005714Y-90364819D01*
X139767619Y-89364819D02*
X140386666Y-89364819D01*
X140386666Y-89364819D02*
X140053333Y-89745771D01*
X140053333Y-89745771D02*
X140196190Y-89745771D01*
X140196190Y-89745771D02*
X140291428Y-89793390D01*
X140291428Y-89793390D02*
X140339047Y-89841009D01*
X140339047Y-89841009D02*
X140386666Y-89936247D01*
X140386666Y-89936247D02*
X140386666Y-90174342D01*
X140386666Y-90174342D02*
X140339047Y-90269580D01*
X140339047Y-90269580D02*
X140291428Y-90317200D01*
X140291428Y-90317200D02*
X140196190Y-90364819D01*
X140196190Y-90364819D02*
X139910476Y-90364819D01*
X139910476Y-90364819D02*
X139815238Y-90317200D01*
X139815238Y-90317200D02*
X139767619Y-90269580D01*
%TO.C,J2*%
X139386666Y-98299819D02*
X139386666Y-99014104D01*
X139386666Y-99014104D02*
X139339047Y-99156961D01*
X139339047Y-99156961D02*
X139243809Y-99252200D01*
X139243809Y-99252200D02*
X139100952Y-99299819D01*
X139100952Y-99299819D02*
X139005714Y-99299819D01*
X139815238Y-98395057D02*
X139862857Y-98347438D01*
X139862857Y-98347438D02*
X139958095Y-98299819D01*
X139958095Y-98299819D02*
X140196190Y-98299819D01*
X140196190Y-98299819D02*
X140291428Y-98347438D01*
X140291428Y-98347438D02*
X140339047Y-98395057D01*
X140339047Y-98395057D02*
X140386666Y-98490295D01*
X140386666Y-98490295D02*
X140386666Y-98585533D01*
X140386666Y-98585533D02*
X140339047Y-98728390D01*
X140339047Y-98728390D02*
X139767619Y-99299819D01*
X139767619Y-99299819D02*
X140386666Y-99299819D01*
%TO.C,J1*%
X139386666Y-58939819D02*
X139386666Y-59654104D01*
X139386666Y-59654104D02*
X139339047Y-59796961D01*
X139339047Y-59796961D02*
X139243809Y-59892200D01*
X139243809Y-59892200D02*
X139100952Y-59939819D01*
X139100952Y-59939819D02*
X139005714Y-59939819D01*
X140386666Y-59939819D02*
X139815238Y-59939819D01*
X140100952Y-59939819D02*
X140100952Y-58939819D01*
X140100952Y-58939819D02*
X140005714Y-59082676D01*
X140005714Y-59082676D02*
X139910476Y-59177914D01*
X139910476Y-59177914D02*
X139815238Y-59225533D01*
%TO.C,U1*%
X152563095Y-56529819D02*
X152563095Y-57339342D01*
X152563095Y-57339342D02*
X152610714Y-57434580D01*
X152610714Y-57434580D02*
X152658333Y-57482200D01*
X152658333Y-57482200D02*
X152753571Y-57529819D01*
X152753571Y-57529819D02*
X152944047Y-57529819D01*
X152944047Y-57529819D02*
X153039285Y-57482200D01*
X153039285Y-57482200D02*
X153086904Y-57434580D01*
X153086904Y-57434580D02*
X153134523Y-57339342D01*
X153134523Y-57339342D02*
X153134523Y-56529819D01*
X154134523Y-57529819D02*
X153563095Y-57529819D01*
X153848809Y-57529819D02*
X153848809Y-56529819D01*
X153848809Y-56529819D02*
X153753571Y-56672676D01*
X153753571Y-56672676D02*
X153658333Y-56767914D01*
X153658333Y-56767914D02*
X153563095Y-56815533D01*
D11*
%TO.C,J8*%
X185610000Y-73300000D02*
X185200000Y-73300000D01*
X194240000Y-76937620D02*
X185610000Y-76937620D01*
X194240000Y-75520480D02*
X185610000Y-75520480D01*
X194240000Y-75284290D02*
X185610000Y-75284290D01*
X185610000Y-75840000D02*
X185260000Y-75840000D01*
X194240000Y-77530000D02*
X185610000Y-77530000D01*
X194240000Y-72390000D02*
X185610000Y-72390000D01*
X194240000Y-75402385D02*
X185610000Y-75402385D01*
X194240000Y-77173810D02*
X185610000Y-77173810D01*
X185610000Y-76560000D02*
X185260000Y-76560000D01*
X194240000Y-76465240D02*
X185610000Y-76465240D01*
X185610000Y-71480000D02*
X185200000Y-71480000D01*
X194240000Y-76583335D02*
X185610000Y-76583335D01*
X194240000Y-77410000D02*
X185610000Y-77410000D01*
X194240000Y-76110955D02*
X185610000Y-76110955D01*
X194240000Y-74930000D02*
X185610000Y-74930000D01*
X194240000Y-75048100D02*
X185610000Y-75048100D01*
X194240000Y-77291905D02*
X185610000Y-77291905D01*
X194240000Y-76819525D02*
X185610000Y-76819525D01*
X194240000Y-76347145D02*
X185610000Y-76347145D01*
X185610000Y-77530000D02*
X185610000Y-69790000D01*
X194240000Y-75992860D02*
X185610000Y-75992860D01*
X194240000Y-76229050D02*
X185610000Y-76229050D01*
X185610000Y-74020000D02*
X185200000Y-74020000D01*
X194240000Y-75638575D02*
X185610000Y-75638575D01*
X194240000Y-69790000D02*
X185610000Y-69790000D01*
X194240000Y-77055715D02*
X185610000Y-77055715D01*
X184150000Y-77530000D02*
X183040000Y-77530000D01*
X194240000Y-75756670D02*
X185610000Y-75756670D01*
X194240000Y-76701430D02*
X185610000Y-76701430D01*
X194240000Y-75166195D02*
X185610000Y-75166195D01*
X194240000Y-77530000D02*
X194240000Y-69790000D01*
X185610000Y-70760000D02*
X185200000Y-70760000D01*
X194240000Y-75874765D02*
X185610000Y-75874765D01*
X183040000Y-77530000D02*
X183040000Y-76200000D01*
%TO.C,J7*%
X185610000Y-91840000D02*
X185200000Y-91840000D01*
X194240000Y-95477620D02*
X185610000Y-95477620D01*
X194240000Y-94060480D02*
X185610000Y-94060480D01*
X194240000Y-93824290D02*
X185610000Y-93824290D01*
X185610000Y-94380000D02*
X185260000Y-94380000D01*
X194240000Y-96070000D02*
X185610000Y-96070000D01*
X194240000Y-90930000D02*
X185610000Y-90930000D01*
X194240000Y-93942385D02*
X185610000Y-93942385D01*
X194240000Y-95713810D02*
X185610000Y-95713810D01*
X185610000Y-95100000D02*
X185260000Y-95100000D01*
X194240000Y-95005240D02*
X185610000Y-95005240D01*
X185610000Y-90020000D02*
X185200000Y-90020000D01*
X194240000Y-95123335D02*
X185610000Y-95123335D01*
X194240000Y-95950000D02*
X185610000Y-95950000D01*
X194240000Y-94650955D02*
X185610000Y-94650955D01*
X194240000Y-93470000D02*
X185610000Y-93470000D01*
X194240000Y-93588100D02*
X185610000Y-93588100D01*
X194240000Y-95831905D02*
X185610000Y-95831905D01*
X194240000Y-95359525D02*
X185610000Y-95359525D01*
X194240000Y-94887145D02*
X185610000Y-94887145D01*
X185610000Y-96070000D02*
X185610000Y-88330000D01*
X194240000Y-94532860D02*
X185610000Y-94532860D01*
X194240000Y-94769050D02*
X185610000Y-94769050D01*
X185610000Y-92560000D02*
X185200000Y-92560000D01*
X194240000Y-94178575D02*
X185610000Y-94178575D01*
X194240000Y-88330000D02*
X185610000Y-88330000D01*
X194240000Y-95595715D02*
X185610000Y-95595715D01*
X184150000Y-96070000D02*
X183040000Y-96070000D01*
X194240000Y-94296670D02*
X185610000Y-94296670D01*
X194240000Y-95241430D02*
X185610000Y-95241430D01*
X194240000Y-93706195D02*
X185610000Y-93706195D01*
X194240000Y-96070000D02*
X194240000Y-88330000D01*
X185610000Y-89300000D02*
X185200000Y-89300000D01*
X194240000Y-94414765D02*
X185610000Y-94414765D01*
X183040000Y-96070000D02*
X183040000Y-94740000D01*
%TO.C,J6*%
X185610000Y-101540000D02*
X185200000Y-101540000D01*
X194240000Y-105177620D02*
X185610000Y-105177620D01*
X194240000Y-103760480D02*
X185610000Y-103760480D01*
X194240000Y-103524290D02*
X185610000Y-103524290D01*
X185610000Y-104080000D02*
X185260000Y-104080000D01*
X194240000Y-105770000D02*
X185610000Y-105770000D01*
X194240000Y-100630000D02*
X185610000Y-100630000D01*
X194240000Y-103642385D02*
X185610000Y-103642385D01*
X194240000Y-105413810D02*
X185610000Y-105413810D01*
X185610000Y-104800000D02*
X185260000Y-104800000D01*
X194240000Y-104705240D02*
X185610000Y-104705240D01*
X185610000Y-99720000D02*
X185200000Y-99720000D01*
X194240000Y-104823335D02*
X185610000Y-104823335D01*
X194240000Y-105650000D02*
X185610000Y-105650000D01*
X194240000Y-104350955D02*
X185610000Y-104350955D01*
X194240000Y-103170000D02*
X185610000Y-103170000D01*
X194240000Y-103288100D02*
X185610000Y-103288100D01*
X194240000Y-105531905D02*
X185610000Y-105531905D01*
X194240000Y-105059525D02*
X185610000Y-105059525D01*
X194240000Y-104587145D02*
X185610000Y-104587145D01*
X185610000Y-105770000D02*
X185610000Y-98030000D01*
X194240000Y-104232860D02*
X185610000Y-104232860D01*
X194240000Y-104469050D02*
X185610000Y-104469050D01*
X185610000Y-102260000D02*
X185200000Y-102260000D01*
X194240000Y-103878575D02*
X185610000Y-103878575D01*
X194240000Y-98030000D02*
X185610000Y-98030000D01*
X194240000Y-105295715D02*
X185610000Y-105295715D01*
X184150000Y-105770000D02*
X183040000Y-105770000D01*
X194240000Y-103996670D02*
X185610000Y-103996670D01*
X194240000Y-104941430D02*
X185610000Y-104941430D01*
X194240000Y-103406195D02*
X185610000Y-103406195D01*
X194240000Y-105770000D02*
X194240000Y-98030000D01*
X185610000Y-99000000D02*
X185200000Y-99000000D01*
X194240000Y-104114765D02*
X185610000Y-104114765D01*
X183040000Y-105770000D02*
X183040000Y-104440000D01*
%TO.C,J5*%
X194240000Y-86420000D02*
X185610000Y-86420000D01*
X194240000Y-83938100D02*
X185610000Y-83938100D01*
X194240000Y-86181905D02*
X185610000Y-86181905D01*
X185610000Y-86420000D02*
X185610000Y-81220000D01*
X185610000Y-82190000D02*
X185200000Y-82190000D01*
X194240000Y-85000955D02*
X185610000Y-85000955D01*
X194240000Y-84646670D02*
X185610000Y-84646670D01*
X194240000Y-84882860D02*
X185610000Y-84882860D01*
X194240000Y-85945715D02*
X185610000Y-85945715D01*
X194240000Y-81220000D02*
X185610000Y-81220000D01*
X194240000Y-85119050D02*
X185610000Y-85119050D01*
X194240000Y-84174290D02*
X185610000Y-84174290D01*
X194240000Y-86420000D02*
X194240000Y-81220000D01*
X194240000Y-85827620D02*
X185610000Y-85827620D01*
X194240000Y-84764765D02*
X185610000Y-84764765D01*
X184150000Y-86420000D02*
X183040000Y-86420000D01*
X194240000Y-85473335D02*
X185610000Y-85473335D01*
X194240000Y-83820000D02*
X185610000Y-83820000D01*
X185610000Y-82910000D02*
X185200000Y-82910000D01*
X194240000Y-84528575D02*
X185610000Y-84528575D01*
X183040000Y-86420000D02*
X183040000Y-85090000D01*
X194240000Y-84410480D02*
X185610000Y-84410480D01*
X194240000Y-84292385D02*
X185610000Y-84292385D01*
X194240000Y-85709525D02*
X185610000Y-85709525D01*
X194240000Y-85355240D02*
X185610000Y-85355240D01*
X194240000Y-85237145D02*
X185610000Y-85237145D01*
X185610000Y-84730000D02*
X185260000Y-84730000D01*
X185610000Y-85450000D02*
X185260000Y-85450000D01*
X194240000Y-85591430D02*
X185610000Y-85591430D01*
X194240000Y-86063810D02*
X185610000Y-86063810D01*
X194240000Y-84056195D02*
X185610000Y-84056195D01*
X194240000Y-86300000D02*
X185610000Y-86300000D01*
%TO.C,J4*%
X142640000Y-84195000D02*
X143050000Y-84195000D01*
X134010000Y-80557380D02*
X142640000Y-80557380D01*
X134010000Y-81974520D02*
X142640000Y-81974520D01*
X134010000Y-82210710D02*
X142640000Y-82210710D01*
X142640000Y-81655000D02*
X142990000Y-81655000D01*
X134010000Y-79965000D02*
X142640000Y-79965000D01*
X134010000Y-85105000D02*
X142640000Y-85105000D01*
X134010000Y-82092615D02*
X142640000Y-82092615D01*
X134010000Y-80321190D02*
X142640000Y-80321190D01*
X142640000Y-80935000D02*
X142990000Y-80935000D01*
X134010000Y-81029760D02*
X142640000Y-81029760D01*
X142640000Y-86015000D02*
X143050000Y-86015000D01*
X134010000Y-80911665D02*
X142640000Y-80911665D01*
X134010000Y-80085000D02*
X142640000Y-80085000D01*
X134010000Y-81384045D02*
X142640000Y-81384045D01*
X134010000Y-82565000D02*
X142640000Y-82565000D01*
X134010000Y-82446900D02*
X142640000Y-82446900D01*
X134010000Y-80203095D02*
X142640000Y-80203095D01*
X134010000Y-80675475D02*
X142640000Y-80675475D01*
X134010000Y-81147855D02*
X142640000Y-81147855D01*
X142640000Y-79965000D02*
X142640000Y-87705000D01*
X134010000Y-81502140D02*
X142640000Y-81502140D01*
X134010000Y-81265950D02*
X142640000Y-81265950D01*
X142640000Y-83475000D02*
X143050000Y-83475000D01*
X134010000Y-81856425D02*
X142640000Y-81856425D01*
X134010000Y-87705000D02*
X142640000Y-87705000D01*
X134010000Y-80439285D02*
X142640000Y-80439285D01*
X144100000Y-79965000D02*
X145210000Y-79965000D01*
X134010000Y-81738330D02*
X142640000Y-81738330D01*
X134010000Y-80793570D02*
X142640000Y-80793570D01*
X134010000Y-82328805D02*
X142640000Y-82328805D01*
X134010000Y-79965000D02*
X134010000Y-87705000D01*
X142640000Y-86735000D02*
X143050000Y-86735000D01*
X134010000Y-81620235D02*
X142640000Y-81620235D01*
X145210000Y-79965000D02*
X145210000Y-81295000D01*
%TO.C,J3*%
X134010000Y-91470000D02*
X142640000Y-91470000D01*
X134010000Y-93713805D02*
X142640000Y-93713805D01*
X134010000Y-91706190D02*
X142640000Y-91706190D01*
X134010000Y-92178570D02*
X142640000Y-92178570D01*
X142640000Y-92320000D02*
X142990000Y-92320000D01*
X142640000Y-93040000D02*
X142990000Y-93040000D01*
X134010000Y-92532855D02*
X142640000Y-92532855D01*
X134010000Y-92414760D02*
X142640000Y-92414760D01*
X134010000Y-92060475D02*
X142640000Y-92060475D01*
X134010000Y-93477615D02*
X142640000Y-93477615D01*
X134010000Y-93359520D02*
X142640000Y-93359520D01*
X145210000Y-91350000D02*
X145210000Y-92680000D01*
X134010000Y-93241425D02*
X142640000Y-93241425D01*
X142640000Y-94860000D02*
X143050000Y-94860000D01*
X134010000Y-93950000D02*
X142640000Y-93950000D01*
X134010000Y-92296665D02*
X142640000Y-92296665D01*
X144100000Y-91350000D02*
X145210000Y-91350000D01*
X134010000Y-93005235D02*
X142640000Y-93005235D01*
X134010000Y-91942380D02*
X142640000Y-91942380D01*
X134010000Y-91350000D02*
X134010000Y-96550000D01*
X134010000Y-93595710D02*
X142640000Y-93595710D01*
X134010000Y-92650950D02*
X142640000Y-92650950D01*
X134010000Y-96550000D02*
X142640000Y-96550000D01*
X134010000Y-91824285D02*
X142640000Y-91824285D01*
X134010000Y-92887140D02*
X142640000Y-92887140D01*
X134010000Y-93123330D02*
X142640000Y-93123330D01*
X134010000Y-92769045D02*
X142640000Y-92769045D01*
X142640000Y-95580000D02*
X143050000Y-95580000D01*
X142640000Y-91350000D02*
X142640000Y-96550000D01*
X134010000Y-91588095D02*
X142640000Y-91588095D01*
X134010000Y-93831900D02*
X142640000Y-93831900D01*
X134010000Y-91350000D02*
X142640000Y-91350000D01*
%TO.C,J2*%
X142640000Y-104515000D02*
X143050000Y-104515000D01*
X134010000Y-100877380D02*
X142640000Y-100877380D01*
X134010000Y-102294520D02*
X142640000Y-102294520D01*
X134010000Y-102530710D02*
X142640000Y-102530710D01*
X142640000Y-101975000D02*
X142990000Y-101975000D01*
X134010000Y-100285000D02*
X142640000Y-100285000D01*
X134010000Y-105425000D02*
X142640000Y-105425000D01*
X134010000Y-102412615D02*
X142640000Y-102412615D01*
X134010000Y-100641190D02*
X142640000Y-100641190D01*
X142640000Y-101255000D02*
X142990000Y-101255000D01*
X134010000Y-101349760D02*
X142640000Y-101349760D01*
X142640000Y-106335000D02*
X143050000Y-106335000D01*
X134010000Y-101231665D02*
X142640000Y-101231665D01*
X134010000Y-100405000D02*
X142640000Y-100405000D01*
X134010000Y-101704045D02*
X142640000Y-101704045D01*
X134010000Y-102885000D02*
X142640000Y-102885000D01*
X134010000Y-102766900D02*
X142640000Y-102766900D01*
X134010000Y-100523095D02*
X142640000Y-100523095D01*
X134010000Y-100995475D02*
X142640000Y-100995475D01*
X134010000Y-101467855D02*
X142640000Y-101467855D01*
X142640000Y-100285000D02*
X142640000Y-108025000D01*
X134010000Y-101822140D02*
X142640000Y-101822140D01*
X134010000Y-101585950D02*
X142640000Y-101585950D01*
X142640000Y-103795000D02*
X143050000Y-103795000D01*
X134010000Y-102176425D02*
X142640000Y-102176425D01*
X134010000Y-108025000D02*
X142640000Y-108025000D01*
X134010000Y-100759285D02*
X142640000Y-100759285D01*
X144100000Y-100285000D02*
X145210000Y-100285000D01*
X134010000Y-102058330D02*
X142640000Y-102058330D01*
X134010000Y-101113570D02*
X142640000Y-101113570D01*
X134010000Y-102648805D02*
X142640000Y-102648805D01*
X134010000Y-100285000D02*
X134010000Y-108025000D01*
X142640000Y-107055000D02*
X143050000Y-107055000D01*
X134010000Y-101940235D02*
X142640000Y-101940235D01*
X145210000Y-100285000D02*
X145210000Y-101615000D01*
%TO.C,J1*%
X134010000Y-62934520D02*
X142640000Y-62934520D01*
X134010000Y-62580235D02*
X142640000Y-62580235D01*
X134010000Y-61635475D02*
X142640000Y-61635475D01*
X142640000Y-60925000D02*
X142640000Y-76285000D01*
X134010000Y-61989760D02*
X142640000Y-61989760D01*
X134010000Y-71145000D02*
X142640000Y-71145000D01*
X142640000Y-67695000D02*
X143050000Y-67695000D01*
X134010000Y-76285000D02*
X142640000Y-76285000D01*
X134010000Y-60925000D02*
X142640000Y-60925000D01*
X145210000Y-60925000D02*
X145210000Y-62255000D01*
X134010000Y-61517380D02*
X142640000Y-61517380D01*
X134010000Y-68605000D02*
X142640000Y-68605000D01*
X134010000Y-63525000D02*
X142640000Y-63525000D01*
X142640000Y-69515000D02*
X143050000Y-69515000D01*
X134010000Y-62698330D02*
X142640000Y-62698330D01*
X134010000Y-62107855D02*
X142640000Y-62107855D01*
X142640000Y-64435000D02*
X143050000Y-64435000D01*
X134010000Y-62344045D02*
X142640000Y-62344045D01*
X142640000Y-66975000D02*
X143050000Y-66975000D01*
X134010000Y-62816425D02*
X142640000Y-62816425D01*
X134010000Y-61281190D02*
X142640000Y-61281190D01*
X134010000Y-62225950D02*
X142640000Y-62225950D01*
X142640000Y-74595000D02*
X143050000Y-74595000D01*
X134010000Y-62462140D02*
X142640000Y-62462140D01*
X142640000Y-61895000D02*
X142990000Y-61895000D01*
X142640000Y-72055000D02*
X143050000Y-72055000D01*
X134010000Y-63052615D02*
X142640000Y-63052615D01*
X134010000Y-63406900D02*
X142640000Y-63406900D01*
X134010000Y-60925000D02*
X134010000Y-76285000D01*
X134010000Y-61045000D02*
X142640000Y-61045000D01*
X142640000Y-65155000D02*
X143050000Y-65155000D01*
X134010000Y-73685000D02*
X142640000Y-73685000D01*
X134010000Y-61163095D02*
X142640000Y-61163095D01*
X142640000Y-75315000D02*
X143050000Y-75315000D01*
X134010000Y-63288805D02*
X142640000Y-63288805D01*
X134010000Y-61399285D02*
X142640000Y-61399285D01*
X134010000Y-63170710D02*
X142640000Y-63170710D01*
X134010000Y-61753570D02*
X142640000Y-61753570D01*
X134010000Y-61871665D02*
X142640000Y-61871665D01*
X144100000Y-60925000D02*
X145210000Y-60925000D01*
X134010000Y-66065000D02*
X142640000Y-66065000D01*
X142640000Y-72775000D02*
X143050000Y-72775000D01*
X142640000Y-70235000D02*
X143050000Y-70235000D01*
X142640000Y-62615000D02*
X142990000Y-62615000D01*
D12*
%TO.C,U1*%
X173460000Y-109910000D02*
X178910000Y-109910000D01*
X155770000Y-109910000D02*
X173460000Y-109910000D01*
X150400000Y-109910000D02*
X155770000Y-109910000D01*
X178910000Y-58960000D02*
X178910000Y-109910000D01*
X150400000Y-109910000D02*
X150400000Y-58960000D01*
X168180000Y-58960000D02*
X178910000Y-58960000D01*
X161469000Y-58960000D02*
X168180000Y-58960000D01*
X150400000Y-58960000D02*
X161469000Y-58960000D01*
D13*
X149930000Y-68920000D02*
G75*
G03*
X149930000Y-68920000I-100000J0D01*
G01*
D12*
X150400000Y-109910000D02*
X150400000Y-58960000D01*
X150400000Y-58960000D02*
X178910000Y-58960000D01*
X178910000Y-109910000D02*
X150400000Y-109910000D01*
X178910000Y-58960000D02*
X178910000Y-109910000D01*
%TD*%
M02*
