%TF.GenerationSoftware,KiCad,Pcbnew,7.0.5-0*%
%TF.CreationDate,2023-07-19T18:28:51-07:00*%
%TF.ProjectId,tasty-totem-board,74617374-792d-4746-9f74-656d2d626f61,0.1*%
%TF.SameCoordinates,Original*%
%TF.FileFunction,Soldermask,Bot*%
%TF.FilePolarity,Negative*%
%FSLAX46Y46*%
G04 Gerber Fmt 4.6, Leading zero omitted, Abs format (unit mm)*
G04 Created by KiCad (PCBNEW 7.0.5-0) date 2023-07-19 18:28:51*
%MOMM*%
%LPD*%
G01*
G04 APERTURE LIST*
%ADD10R,1.700000X1.700000*%
%ADD11O,1.700000X1.700000*%
%ADD12O,1.600000X1.600000*%
%ADD13R,1.600000X1.600000*%
%ADD14C,3.000000*%
%ADD15C,2.000000*%
%ADD16R,2.000000X2.000000*%
G04 APERTURE END LIST*
D10*
%TO.C,J8*%
X184150000Y-76200000D03*
D11*
X184150000Y-73660000D03*
X184150000Y-71120000D03*
%TD*%
D10*
%TO.C,J7*%
X184150000Y-94740000D03*
D11*
X184150000Y-92200000D03*
X184150000Y-89660000D03*
%TD*%
D10*
%TO.C,J6*%
X184150000Y-104440000D03*
D11*
X184150000Y-101900000D03*
X184150000Y-99360000D03*
%TD*%
D10*
%TO.C,J5*%
X184150000Y-85090000D03*
D11*
X184150000Y-82550000D03*
%TD*%
D12*
%TO.C,U2*%
X161300000Y-82560000D03*
X163840000Y-82560000D03*
X166380000Y-82560000D03*
X168920000Y-82560000D03*
X168920000Y-74940000D03*
X166380000Y-74940000D03*
X163840000Y-74940000D03*
D13*
X161300000Y-74940000D03*
%TD*%
D10*
%TO.C,J4*%
X144100000Y-81295000D03*
D11*
X144100000Y-83835000D03*
X144100000Y-86375000D03*
%TD*%
%TO.C,J3*%
X144100000Y-95220000D03*
D10*
X144100000Y-92680000D03*
%TD*%
%TO.C,J2*%
X144100000Y-101615000D03*
D11*
X144100000Y-104155000D03*
X144100000Y-106695000D03*
%TD*%
D10*
%TO.C,J1*%
X144100000Y-62255000D03*
D11*
X144100000Y-64795000D03*
X144100000Y-67335000D03*
X144100000Y-69875000D03*
X144100000Y-72415000D03*
X144100000Y-74955000D03*
%TD*%
D14*
%TO.C,U1*%
X152400000Y-60960000D03*
X176910000Y-60960000D03*
X176910000Y-107910000D03*
X152400000Y-107910000D03*
D15*
X177380000Y-104480000D03*
X177380000Y-101940000D03*
X177380000Y-99400000D03*
X177380000Y-96860000D03*
X177380000Y-94320000D03*
X177380000Y-91780000D03*
X177380000Y-89240000D03*
X177380000Y-86700000D03*
X177380000Y-84160000D03*
X177380000Y-81620000D03*
X177380000Y-79080000D03*
X177380000Y-76540000D03*
X177380000Y-74000000D03*
X177380000Y-71460000D03*
X177380000Y-68920000D03*
X151980000Y-104480000D03*
X151980000Y-101940000D03*
X151980000Y-99400000D03*
X151980000Y-96860000D03*
X151980000Y-94320000D03*
X151980000Y-91780000D03*
X151980000Y-89240000D03*
X151980000Y-86700000D03*
X151980000Y-84160000D03*
X151980000Y-81620000D03*
X151980000Y-79080000D03*
X151980000Y-76540000D03*
X151980000Y-74000000D03*
X151980000Y-71460000D03*
D16*
X151980000Y-68920000D03*
%TD*%
M02*
