M48
; DRILL file {KiCad 7.0.5-0} date 2023 July 19, Wednesday 18:28:57
; FORMAT={-:-/ absolute / inch / decimal}
; #@! TF.CreationDate,2023-07-19T18:28:57-07:00
; #@! TF.GenerationSoftware,Kicad,Pcbnew,7.0.5-0
; #@! TF.FileFunction,Plated,1,2,PTH
FMAT,2
INCH
; #@! TA.AperFunction,Plated,PTH,ComponentDrill
T1C0.0315
; #@! TA.AperFunction,Plated,PTH,ComponentDrill
T2C0.0394
; #@! TA.AperFunction,Plated,PTH,ComponentDrill
T3C0.0402
%
G90
G05
T1
X6.3504Y-2.9504
X6.3504Y-3.2504
X6.4504Y-2.9504
X6.4504Y-3.2504
X6.5504Y-2.9504
X6.5504Y-3.2504
X6.6504Y-2.9504
X6.6504Y-3.2504
T2
X5.6732Y-2.451
X5.6732Y-2.551
X5.6732Y-2.651
X5.6732Y-2.751
X5.6732Y-2.851
X5.6732Y-2.951
X5.6732Y-3.2006
X5.6732Y-3.3006
X5.6732Y-3.4006
X5.6732Y-3.6488
X5.6732Y-3.7488
X5.6732Y-4.0006
X5.6732Y-4.1006
X5.6732Y-4.2006
X7.25Y-2.8
X7.25Y-2.9
X7.25Y-3.0
X7.25Y-3.25
X7.25Y-3.35
X7.25Y-3.5299
X7.25Y-3.6299
X7.25Y-3.7299
X7.25Y-3.9118
X7.25Y-4.0118
X7.25Y-4.1118
T3
X5.9835Y-2.7134
X5.9835Y-2.8134
X5.9835Y-2.9134
X5.9835Y-3.0134
X5.9835Y-3.1134
X5.9835Y-3.2134
X5.9835Y-3.3134
X5.9835Y-3.4134
X5.9835Y-3.5134
X5.9835Y-3.6134
X5.9835Y-3.7134
X5.9835Y-3.8134
X5.9835Y-3.9134
X5.9835Y-4.0134
X5.9835Y-4.1134
X6.9835Y-2.7134
X6.9835Y-2.8134
X6.9835Y-2.9134
X6.9835Y-3.0134
X6.9835Y-3.1134
X6.9835Y-3.2134
X6.9835Y-3.3134
X6.9835Y-3.4134
X6.9835Y-3.5134
X6.9835Y-3.6134
X6.9835Y-3.7134
X6.9835Y-3.8134
X6.9835Y-3.9134
X6.9835Y-4.0134
X6.9835Y-4.1134
T0
M30
